<?xml version="1.0" encoding="UTF-8" standalone="no"?><svg xmlns="http://www.w3.org/2000/svg" xmlns:xlink="http://www.w3.org/1999/xlink" contentScriptType="application/ecmascript" contentStyleType="text/css" height="589px" preserveAspectRatio="none" style="width:953px;height:589px;" version="1.1" viewBox="0 0 953 589" width="953px" zoomAndPan="magnify"><defs><filter height="300%" id="fsoxo8kot8uzy" width="300%" x="-1" y="-1"><feGaussianBlur result="blurOut" stdDeviation="2.0"/><feColorMatrix in="blurOut" result="blurOut2" type="matrix" values="0 0 0 0 0 0 0 0 0 0 0 0 0 0 0 0 0 0 .4 0"/><feOffset dx="4.0" dy="4.0" in="blurOut2" result="blurOut3"/><feBlend in="SourceGraphic" in2="blurOut3" mode="normal"/></filter></defs><g><!--MD5=[b8b6ee908b7faff6fecf4288f82e2ead]
class Autarquia--><rect codeLine="5" fill="#FEFECE" filter="url(#fsoxo8kot8uzy)" height="52.8047" id="Autarquia" style="stroke:#A80036;stroke-width:1.5;" width="88" x="7" y="219"/><ellipse cx="22" cy="235" fill="#ADD1B2" rx="11" ry="11" style="stroke:#A80036;stroke-width:1.0;"/><path d="M24.3438,230.6719 C23.4063,230.2344 22.8125,230.0938 21.9375,230.0938 C19.3125,230.0938 17.3125,232.1719 17.3125,234.8906 L17.3125,236.0156 C17.3125,238.5938 19.4219,240.4844 22.3125,240.4844 C23.5313,240.4844 24.6875,240.1875 25.4375,239.6406 C26.0156,239.2344 26.3438,238.7813 26.3438,238.3906 C26.3438,237.9375 25.9531,237.5469 25.4844,237.5469 C25.2656,237.5469 25.0625,237.625 24.875,237.8125 C24.4219,238.2969 24.4219,238.2969 24.2344,238.3906 C23.8125,238.6563 23.125,238.7813 22.3594,238.7813 C20.3125,238.7813 19.0156,237.6875 19.0156,235.9844 L19.0156,234.8906 C19.0156,233.1094 20.2656,231.7969 22,231.7969 C22.5781,231.7969 23.1875,231.9531 23.6563,232.2031 C24.1406,232.4844 24.3125,232.7031 24.4063,233.1094 C24.4688,233.5156 24.5,233.6406 24.6406,233.7656 C24.7813,233.9063 25.0156,234.0156 25.2344,234.0156 C25.5,234.0156 25.7656,233.875 25.9375,233.6563 C26.0469,233.5 26.0781,233.3125 26.0781,232.8906 L26.0781,231.4688 C26.0781,231.0313 26.0625,230.9063 25.9688,230.75 C25.8125,230.4844 25.5313,230.3438 25.2344,230.3438 C24.9375,230.3438 24.7344,230.4375 24.5156,230.75 L24.3438,230.6719 Z " fill="#000000"/><text fill="#000000" font-family="sans-serif" font-size="12" lengthAdjust="spacingAndGlyphs" textLength="56" x="36" y="239.1543">Autarquia</text><line style="stroke:#A80036;stroke-width:1.5;" x1="8" x2="94" y1="251" y2="251"/><text fill="#000000" font-family="sans-serif" font-size="11" lengthAdjust="spacingAndGlyphs" textLength="74" x="13" y="265.2104">-String nome</text><!--MD5=[25ba56bf876b0b5138fdedf7889220de]
class Freguesia--><rect codeLine="9" fill="#FEFECE" filter="url(#fsoxo8kot8uzy)" height="52.8047" id="Freguesia" style="stroke:#A80036;stroke-width:1.5;" width="92" x="211" y="219"/><ellipse cx="226" cy="235" fill="#ADD1B2" rx="11" ry="11" style="stroke:#A80036;stroke-width:1.0;"/><path d="M228.3438,230.6719 C227.4063,230.2344 226.8125,230.0938 225.9375,230.0938 C223.3125,230.0938 221.3125,232.1719 221.3125,234.8906 L221.3125,236.0156 C221.3125,238.5938 223.4219,240.4844 226.3125,240.4844 C227.5313,240.4844 228.6875,240.1875 229.4375,239.6406 C230.0156,239.2344 230.3438,238.7813 230.3438,238.3906 C230.3438,237.9375 229.9531,237.5469 229.4844,237.5469 C229.2656,237.5469 229.0625,237.625 228.875,237.8125 C228.4219,238.2969 228.4219,238.2969 228.2344,238.3906 C227.8125,238.6563 227.125,238.7813 226.3594,238.7813 C224.3125,238.7813 223.0156,237.6875 223.0156,235.9844 L223.0156,234.8906 C223.0156,233.1094 224.2656,231.7969 226,231.7969 C226.5781,231.7969 227.1875,231.9531 227.6563,232.2031 C228.1406,232.4844 228.3125,232.7031 228.4063,233.1094 C228.4688,233.5156 228.5,233.6406 228.6406,233.7656 C228.7813,233.9063 229.0156,234.0156 229.2344,234.0156 C229.5,234.0156 229.7656,233.875 229.9375,233.6563 C230.0469,233.5 230.0781,233.3125 230.0781,232.8906 L230.0781,231.4688 C230.0781,231.0313 230.0625,230.9063 229.9688,230.75 C229.8125,230.4844 229.5313,230.3438 229.2344,230.3438 C228.9375,230.3438 228.7344,230.4375 228.5156,230.75 L228.3438,230.6719 Z " fill="#000000"/><text fill="#000000" font-family="sans-serif" font-size="12" lengthAdjust="spacingAndGlyphs" textLength="60" x="240" y="239.1543">Freguesia</text><line style="stroke:#A80036;stroke-width:1.5;" x1="212" x2="302" y1="251" y2="251"/><text fill="#000000" font-family="sans-serif" font-size="11" lengthAdjust="spacingAndGlyphs" textLength="74" x="217" y="265.2104">-String nome</text><!--MD5=[26905466b2de2c704432800e111a1f71]
class Terreno--><rect codeLine="13" fill="#FEFECE" filter="url(#fsoxo8kot8uzy)" height="91.2188" id="Terreno" style="stroke:#A80036;stroke-width:1.5;" width="113" x="404" y="200"/><ellipse cx="433.85" cy="216" fill="#ADD1B2" rx="11" ry="11" style="stroke:#A80036;stroke-width:1.0;"/><path d="M436.1938,211.6719 C435.2563,211.2344 434.6625,211.0938 433.7875,211.0938 C431.1625,211.0938 429.1625,213.1719 429.1625,215.8906 L429.1625,217.0156 C429.1625,219.5938 431.2719,221.4844 434.1625,221.4844 C435.3813,221.4844 436.5375,221.1875 437.2875,220.6406 C437.8656,220.2344 438.1938,219.7813 438.1938,219.3906 C438.1938,218.9375 437.8031,218.5469 437.3344,218.5469 C437.1156,218.5469 436.9125,218.625 436.725,218.8125 C436.2719,219.2969 436.2719,219.2969 436.0844,219.3906 C435.6625,219.6563 434.975,219.7813 434.2094,219.7813 C432.1625,219.7813 430.8656,218.6875 430.8656,216.9844 L430.8656,215.8906 C430.8656,214.1094 432.1156,212.7969 433.85,212.7969 C434.4281,212.7969 435.0375,212.9531 435.5063,213.2031 C435.9906,213.4844 436.1625,213.7031 436.2563,214.1094 C436.3188,214.5156 436.35,214.6406 436.4906,214.7656 C436.6313,214.9063 436.8656,215.0156 437.0844,215.0156 C437.35,215.0156 437.6156,214.875 437.7875,214.6563 C437.8969,214.5 437.9281,214.3125 437.9281,213.8906 L437.9281,212.4688 C437.9281,212.0313 437.9125,211.9063 437.8188,211.75 C437.6625,211.4844 437.3813,211.3438 437.0844,211.3438 C436.7875,211.3438 436.5844,211.4375 436.3656,211.75 L436.1938,211.6719 Z " fill="#000000"/><text fill="#000000" font-family="sans-serif" font-size="12" lengthAdjust="spacingAndGlyphs" textLength="48" x="451.15" y="220.1543">Terreno</text><line style="stroke:#A80036;stroke-width:1.5;" x1="405" x2="516" y1="232" y2="232"/><text fill="#000000" font-family="sans-serif" font-size="11" lengthAdjust="spacingAndGlyphs" textLength="59" x="410" y="246.2104">-Integer id</text><text fill="#000000" font-family="sans-serif" font-size="11" lengthAdjust="spacingAndGlyphs" textLength="101" x="410" y="259.0151">-String indiceCont</text><text fill="#000000" font-family="sans-serif" font-size="11" lengthAdjust="spacingAndGlyphs" textLength="75" x="410" y="271.8198">-Double area</text><text fill="#000000" font-family="sans-serif" font-size="11" lengthAdjust="spacingAndGlyphs" textLength="66" x="410" y="284.6245">-Double imi</text><!--MD5=[78f21c08692eebc4688c39ddeb4c353c]
class Forma--><rect codeLine="20" fill="#FEFECE" filter="url(#fsoxo8kot8uzy)" height="52.8047" id="Forma" style="stroke:#A80036;stroke-width:1.5;" width="87" x="634" y="139"/><ellipse cx="656.65" cy="155" fill="#ADD1B2" rx="11" ry="11" style="stroke:#A80036;stroke-width:1.0;"/><path d="M658.9938,150.6719 C658.0563,150.2344 657.4625,150.0938 656.5875,150.0938 C653.9625,150.0938 651.9625,152.1719 651.9625,154.8906 L651.9625,156.0156 C651.9625,158.5938 654.0719,160.4844 656.9625,160.4844 C658.1813,160.4844 659.3375,160.1875 660.0875,159.6406 C660.6656,159.2344 660.9938,158.7813 660.9938,158.3906 C660.9938,157.9375 660.6031,157.5469 660.1344,157.5469 C659.9156,157.5469 659.7125,157.625 659.525,157.8125 C659.0719,158.2969 659.0719,158.2969 658.8844,158.3906 C658.4625,158.6563 657.775,158.7813 657.0094,158.7813 C654.9625,158.7813 653.6656,157.6875 653.6656,155.9844 L653.6656,154.8906 C653.6656,153.1094 654.9156,151.7969 656.65,151.7969 C657.2281,151.7969 657.8375,151.9531 658.3063,152.2031 C658.7906,152.4844 658.9625,152.7031 659.0563,153.1094 C659.1188,153.5156 659.15,153.6406 659.2906,153.7656 C659.4313,153.9063 659.6656,154.0156 659.8844,154.0156 C660.15,154.0156 660.4156,153.875 660.5875,153.6563 C660.6969,153.5 660.7281,153.3125 660.7281,152.8906 L660.7281,151.4688 C660.7281,151.0313 660.7125,150.9063 660.6188,150.75 C660.4625,150.4844 660.1813,150.3438 659.8844,150.3438 C659.5875,150.3438 659.3844,150.4375 659.1656,150.75 L658.9938,150.6719 Z " fill="#000000"/><text fill="#000000" font-family="sans-serif" font-size="12" lengthAdjust="spacingAndGlyphs" textLength="38" x="672.35" y="159.1543">Forma</text><line style="stroke:#A80036;stroke-width:1.5;" x1="635" x2="720" y1="171" y2="171"/><text fill="#000000" font-family="sans-serif" font-size="11" lengthAdjust="spacingAndGlyphs" textLength="75" x="640" y="185.2104">-Double area</text><!--MD5=[1a24822eaf8b73e881588c13f79b9fdb]
class Triangular--><rect codeLine="24" fill="#FEFECE" filter="url(#fsoxo8kot8uzy)" height="52.8047" id="Triangular" style="stroke:#A80036;stroke-width:1.5;" width="91" x="834" y="7"/><ellipse cx="849" cy="23" fill="#ADD1B2" rx="11" ry="11" style="stroke:#A80036;stroke-width:1.0;"/><path d="M851.3438,18.6719 C850.4063,18.2344 849.8125,18.0938 848.9375,18.0938 C846.3125,18.0938 844.3125,20.1719 844.3125,22.8906 L844.3125,24.0156 C844.3125,26.5938 846.4219,28.4844 849.3125,28.4844 C850.5313,28.4844 851.6875,28.1875 852.4375,27.6406 C853.0156,27.2344 853.3438,26.7813 853.3438,26.3906 C853.3438,25.9375 852.9531,25.5469 852.4844,25.5469 C852.2656,25.5469 852.0625,25.625 851.875,25.8125 C851.4219,26.2969 851.4219,26.2969 851.2344,26.3906 C850.8125,26.6563 850.125,26.7813 849.3594,26.7813 C847.3125,26.7813 846.0156,25.6875 846.0156,23.9844 L846.0156,22.8906 C846.0156,21.1094 847.2656,19.7969 849,19.7969 C849.5781,19.7969 850.1875,19.9531 850.6563,20.2031 C851.1406,20.4844 851.3125,20.7031 851.4063,21.1094 C851.4688,21.5156 851.5,21.6406 851.6406,21.7656 C851.7813,21.9063 852.0156,22.0156 852.2344,22.0156 C852.5,22.0156 852.7656,21.875 852.9375,21.6563 C853.0469,21.5 853.0781,21.3125 853.0781,20.8906 L853.0781,19.4688 C853.0781,19.0313 853.0625,18.9063 852.9688,18.75 C852.8125,18.4844 852.5313,18.3438 852.2344,18.3438 C851.9375,18.3438 851.7344,18.4375 851.5156,18.75 L851.3438,18.6719 Z " fill="#000000"/><text fill="#000000" font-family="sans-serif" font-size="12" lengthAdjust="spacingAndGlyphs" textLength="59" x="863" y="27.1543">Triangular</text><line style="stroke:#A80036;stroke-width:1.5;" x1="835" x2="924" y1="39" y2="39"/><text fill="#000000" font-family="sans-serif" font-size="11" lengthAdjust="spacingAndGlyphs" textLength="75" x="840" y="53.2104">-Double area</text><!--MD5=[b6aed8f55a7bdd1ed0168b25c887807c]
class Circular--><rect codeLine="28" fill="#FEFECE" filter="url(#fsoxo8kot8uzy)" height="52.8047" id="Circular" style="stroke:#A80036;stroke-width:1.5;" width="87" x="836" y="95"/><ellipse cx="855.5" cy="111" fill="#ADD1B2" rx="11" ry="11" style="stroke:#A80036;stroke-width:1.0;"/><path d="M857.8438,106.6719 C856.9063,106.2344 856.3125,106.0938 855.4375,106.0938 C852.8125,106.0938 850.8125,108.1719 850.8125,110.8906 L850.8125,112.0156 C850.8125,114.5938 852.9219,116.4844 855.8125,116.4844 C857.0313,116.4844 858.1875,116.1875 858.9375,115.6406 C859.5156,115.2344 859.8438,114.7813 859.8438,114.3906 C859.8438,113.9375 859.4531,113.5469 858.9844,113.5469 C858.7656,113.5469 858.5625,113.625 858.375,113.8125 C857.9219,114.2969 857.9219,114.2969 857.7344,114.3906 C857.3125,114.6563 856.625,114.7813 855.8594,114.7813 C853.8125,114.7813 852.5156,113.6875 852.5156,111.9844 L852.5156,110.8906 C852.5156,109.1094 853.7656,107.7969 855.5,107.7969 C856.0781,107.7969 856.6875,107.9531 857.1563,108.2031 C857.6406,108.4844 857.8125,108.7031 857.9063,109.1094 C857.9688,109.5156 858,109.6406 858.1406,109.7656 C858.2813,109.9063 858.5156,110.0156 858.7344,110.0156 C859,110.0156 859.2656,109.875 859.4375,109.6563 C859.5469,109.5 859.5781,109.3125 859.5781,108.8906 L859.5781,107.4688 C859.5781,107.0313 859.5625,106.9063 859.4688,106.75 C859.3125,106.4844 859.0313,106.3438 858.7344,106.3438 C858.4375,106.3438 858.2344,106.4375 858.0156,106.75 L857.8438,106.6719 Z " fill="#000000"/><text fill="#000000" font-family="sans-serif" font-size="12" lengthAdjust="spacingAndGlyphs" textLength="45" x="870.5" y="115.1543">Circular</text><line style="stroke:#A80036;stroke-width:1.5;" x1="837" x2="922" y1="127" y2="127"/><text fill="#000000" font-family="sans-serif" font-size="11" lengthAdjust="spacingAndGlyphs" textLength="75" x="842" y="141.2104">-Double area</text><!--MD5=[d6947a45c6a695ad90c719b257327e44]
class Rectangular--><rect codeLine="32" fill="#FEFECE" filter="url(#fsoxo8kot8uzy)" height="52.8047" id="Rectangular" style="stroke:#A80036;stroke-width:1.5;" width="102" x="828.5" y="183"/><ellipse cx="843.5" cy="199" fill="#ADD1B2" rx="11" ry="11" style="stroke:#A80036;stroke-width:1.0;"/><path d="M845.8438,194.6719 C844.9063,194.2344 844.3125,194.0938 843.4375,194.0938 C840.8125,194.0938 838.8125,196.1719 838.8125,198.8906 L838.8125,200.0156 C838.8125,202.5938 840.9219,204.4844 843.8125,204.4844 C845.0313,204.4844 846.1875,204.1875 846.9375,203.6406 C847.5156,203.2344 847.8438,202.7813 847.8438,202.3906 C847.8438,201.9375 847.4531,201.5469 846.9844,201.5469 C846.7656,201.5469 846.5625,201.625 846.375,201.8125 C845.9219,202.2969 845.9219,202.2969 845.7344,202.3906 C845.3125,202.6563 844.625,202.7813 843.8594,202.7813 C841.8125,202.7813 840.5156,201.6875 840.5156,199.9844 L840.5156,198.8906 C840.5156,197.1094 841.7656,195.7969 843.5,195.7969 C844.0781,195.7969 844.6875,195.9531 845.1563,196.2031 C845.6406,196.4844 845.8125,196.7031 845.9063,197.1094 C845.9688,197.5156 846,197.6406 846.1406,197.7656 C846.2813,197.9063 846.5156,198.0156 846.7344,198.0156 C847,198.0156 847.2656,197.875 847.4375,197.6563 C847.5469,197.5 847.5781,197.3125 847.5781,196.8906 L847.5781,195.4688 C847.5781,195.0313 847.5625,194.9063 847.4688,194.75 C847.3125,194.4844 847.0313,194.3438 846.7344,194.3438 C846.4375,194.3438 846.2344,194.4375 846.0156,194.75 L845.8438,194.6719 Z " fill="#000000"/><text fill="#000000" font-family="sans-serif" font-size="12" lengthAdjust="spacingAndGlyphs" textLength="70" x="857.5" y="203.1543">Rectangular</text><line style="stroke:#A80036;stroke-width:1.5;" x1="829.5" x2="929.5" y1="215" y2="215"/><text fill="#000000" font-family="sans-serif" font-size="11" lengthAdjust="spacingAndGlyphs" textLength="75" x="834.5" y="229.2104">-Double area</text><!--MD5=[716bba0e94eea125d5a66a891f2c3c34]
class Classificacao--><rect codeLine="36" fill="#FEFECE" filter="url(#fsoxo8kot8uzy)" height="78.4141" id="Classificacao" style="stroke:#A80036;stroke-width:1.5;" width="119" x="618" y="359.5"/><ellipse cx="637.05" cy="375.5" fill="#ADD1B2" rx="11" ry="11" style="stroke:#A80036;stroke-width:1.0;"/><path d="M639.3938,371.1719 C638.4563,370.7344 637.8625,370.5938 636.9875,370.5938 C634.3625,370.5938 632.3625,372.6719 632.3625,375.3906 L632.3625,376.5156 C632.3625,379.0938 634.4719,380.9844 637.3625,380.9844 C638.5813,380.9844 639.7375,380.6875 640.4875,380.1406 C641.0656,379.7344 641.3938,379.2813 641.3938,378.8906 C641.3938,378.4375 641.0031,378.0469 640.5344,378.0469 C640.3156,378.0469 640.1125,378.125 639.925,378.3125 C639.4719,378.7969 639.4719,378.7969 639.2844,378.8906 C638.8625,379.1563 638.175,379.2813 637.4094,379.2813 C635.3625,379.2813 634.0656,378.1875 634.0656,376.4844 L634.0656,375.3906 C634.0656,373.6094 635.3156,372.2969 637.05,372.2969 C637.6281,372.2969 638.2375,372.4531 638.7063,372.7031 C639.1906,372.9844 639.3625,373.2031 639.4563,373.6094 C639.5188,374.0156 639.55,374.1406 639.6906,374.2656 C639.8313,374.4063 640.0656,374.5156 640.2844,374.5156 C640.55,374.5156 640.8156,374.375 640.9875,374.1563 C641.0969,374 641.1281,373.8125 641.1281,373.3906 L641.1281,371.9688 C641.1281,371.5313 641.1125,371.4063 641.0188,371.25 C640.8625,370.9844 640.5813,370.8438 640.2844,370.8438 C639.9875,370.8438 639.7844,370.9375 639.5656,371.25 L639.3938,371.1719 Z " fill="#000000"/><text fill="#000000" font-family="sans-serif" font-size="12" lengthAdjust="spacingAndGlyphs" textLength="78" x="651.95" y="379.6543">Classificacao</text><line style="stroke:#A80036;stroke-width:1.5;" x1="619" x2="736" y1="391.5" y2="391.5"/><text fill="#000000" font-family="sans-serif" font-size="11" lengthAdjust="spacingAndGlyphs" textLength="68" x="624" y="405.7104">-String desc</text><text fill="#000000" font-family="sans-serif" font-size="11" lengthAdjust="spacingAndGlyphs" textLength="107" x="624" y="418.5151">-Double areaConst</text><text fill="#000000" font-family="sans-serif" font-size="11" lengthAdjust="spacingAndGlyphs" textLength="98" x="624" y="431.3198">-String dataConst</text><!--MD5=[e1b108aeef6100ad38510f06dc65f284]
class Urbana--><rect codeLine="42" fill="#FEFECE" filter="url(#fsoxo8kot8uzy)" height="78.4141" id="Urbana" style="stroke:#A80036;stroke-width:1.5;" width="119" x="820" y="271.5"/><ellipse cx="854.8" cy="287.5" fill="#ADD1B2" rx="11" ry="11" style="stroke:#A80036;stroke-width:1.0;"/><path d="M857.1438,283.1719 C856.2063,282.7344 855.6125,282.5938 854.7375,282.5938 C852.1125,282.5938 850.1125,284.6719 850.1125,287.3906 L850.1125,288.5156 C850.1125,291.0938 852.2219,292.9844 855.1125,292.9844 C856.3313,292.9844 857.4875,292.6875 858.2375,292.1406 C858.8156,291.7344 859.1438,291.2813 859.1438,290.8906 C859.1438,290.4375 858.7531,290.0469 858.2844,290.0469 C858.0656,290.0469 857.8625,290.125 857.675,290.3125 C857.2219,290.7969 857.2219,290.7969 857.0344,290.8906 C856.6125,291.1563 855.925,291.2813 855.1594,291.2813 C853.1125,291.2813 851.8156,290.1875 851.8156,288.4844 L851.8156,287.3906 C851.8156,285.6094 853.0656,284.2969 854.8,284.2969 C855.3781,284.2969 855.9875,284.4531 856.4563,284.7031 C856.9406,284.9844 857.1125,285.2031 857.2063,285.6094 C857.2688,286.0156 857.3,286.1406 857.4406,286.2656 C857.5813,286.4063 857.8156,286.5156 858.0344,286.5156 C858.3,286.5156 858.5656,286.375 858.7375,286.1563 C858.8469,286 858.8781,285.8125 858.8781,285.3906 L858.8781,283.9688 C858.8781,283.5313 858.8625,283.4063 858.7688,283.25 C858.6125,282.9844 858.3313,282.8438 858.0344,282.8438 C857.7375,282.8438 857.5344,282.9375 857.3156,283.25 L857.1438,283.1719 Z " fill="#000000"/><text fill="#000000" font-family="sans-serif" font-size="12" lengthAdjust="spacingAndGlyphs" textLength="43" x="873.2" y="291.6543">Urbana</text><line style="stroke:#A80036;stroke-width:1.5;" x1="821" x2="938" y1="303.5" y2="303.5"/><text fill="#000000" font-family="sans-serif" font-size="11" lengthAdjust="spacingAndGlyphs" textLength="68" x="826" y="317.7104">-String desc</text><text fill="#000000" font-family="sans-serif" font-size="11" lengthAdjust="spacingAndGlyphs" textLength="107" x="826" y="330.5151">-Double areaConst</text><text fill="#000000" font-family="sans-serif" font-size="11" lengthAdjust="spacingAndGlyphs" textLength="98" x="826" y="343.3198">-String dataConst</text><!--MD5=[97e7c7c927ed2b2c9a6c4a278020550a]
class Industrial--><rect codeLine="48" fill="#FEFECE" filter="url(#fsoxo8kot8uzy)" height="78.4141" id="Industrial" style="stroke:#A80036;stroke-width:1.5;" width="119" x="820" y="384.5"/><ellipse cx="849.85" cy="400.5" fill="#ADD1B2" rx="11" ry="11" style="stroke:#A80036;stroke-width:1.0;"/><path d="M852.1938,396.1719 C851.2563,395.7344 850.6625,395.5938 849.7875,395.5938 C847.1625,395.5938 845.1625,397.6719 845.1625,400.3906 L845.1625,401.5156 C845.1625,404.0938 847.2719,405.9844 850.1625,405.9844 C851.3813,405.9844 852.5375,405.6875 853.2875,405.1406 C853.8656,404.7344 854.1938,404.2813 854.1938,403.8906 C854.1938,403.4375 853.8031,403.0469 853.3344,403.0469 C853.1156,403.0469 852.9125,403.125 852.725,403.3125 C852.2719,403.7969 852.2719,403.7969 852.0844,403.8906 C851.6625,404.1563 850.975,404.2813 850.2094,404.2813 C848.1625,404.2813 846.8656,403.1875 846.8656,401.4844 L846.8656,400.3906 C846.8656,398.6094 848.1156,397.2969 849.85,397.2969 C850.4281,397.2969 851.0375,397.4531 851.5063,397.7031 C851.9906,397.9844 852.1625,398.2031 852.2563,398.6094 C852.3188,399.0156 852.35,399.1406 852.4906,399.2656 C852.6313,399.4063 852.8656,399.5156 853.0844,399.5156 C853.35,399.5156 853.6156,399.375 853.7875,399.1563 C853.8969,399 853.9281,398.8125 853.9281,398.3906 L853.9281,396.9688 C853.9281,396.5313 853.9125,396.4063 853.8188,396.25 C853.6625,395.9844 853.3813,395.8438 853.0844,395.8438 C852.7875,395.8438 852.5844,395.9375 852.3656,396.25 L852.1938,396.1719 Z " fill="#000000"/><text fill="#000000" font-family="sans-serif" font-size="12" lengthAdjust="spacingAndGlyphs" textLength="54" x="867.15" y="404.6543">Industrial</text><line style="stroke:#A80036;stroke-width:1.5;" x1="821" x2="938" y1="416.5" y2="416.5"/><text fill="#000000" font-family="sans-serif" font-size="11" lengthAdjust="spacingAndGlyphs" textLength="68" x="826" y="430.7104">-String desc</text><text fill="#000000" font-family="sans-serif" font-size="11" lengthAdjust="spacingAndGlyphs" textLength="107" x="826" y="443.5151">-Double areaConst</text><text fill="#000000" font-family="sans-serif" font-size="11" lengthAdjust="spacingAndGlyphs" textLength="98" x="826" y="456.3198">-String dataConst</text><!--MD5=[9d6c8135b42eb16496d6c21566b10e69]
class Rural--><rect codeLine="54" fill="#FEFECE" filter="url(#fsoxo8kot8uzy)" height="78.4141" id="Rural" style="stroke:#A80036;stroke-width:1.5;" width="119" x="820" y="497.5"/><ellipse cx="861.1" cy="513.5" fill="#ADD1B2" rx="11" ry="11" style="stroke:#A80036;stroke-width:1.0;"/><path d="M863.4438,509.1719 C862.5063,508.7344 861.9125,508.5938 861.0375,508.5938 C858.4125,508.5938 856.4125,510.6719 856.4125,513.3906 L856.4125,514.5156 C856.4125,517.0938 858.5219,518.9844 861.4125,518.9844 C862.6313,518.9844 863.7875,518.6875 864.5375,518.1406 C865.1156,517.7344 865.4438,517.2813 865.4438,516.8906 C865.4438,516.4375 865.0531,516.0469 864.5844,516.0469 C864.3656,516.0469 864.1625,516.125 863.975,516.3125 C863.5219,516.7969 863.5219,516.7969 863.3344,516.8906 C862.9125,517.1563 862.225,517.2813 861.4594,517.2813 C859.4125,517.2813 858.1156,516.1875 858.1156,514.4844 L858.1156,513.3906 C858.1156,511.6094 859.3656,510.2969 861.1,510.2969 C861.6781,510.2969 862.2875,510.4531 862.7563,510.7031 C863.2406,510.9844 863.4125,511.2031 863.5063,511.6094 C863.5688,512.0156 863.6,512.1406 863.7406,512.2656 C863.8813,512.4063 864.1156,512.5156 864.3344,512.5156 C864.6,512.5156 864.8656,512.375 865.0375,512.1563 C865.1469,512 865.1781,511.8125 865.1781,511.3906 L865.1781,509.9688 C865.1781,509.5313 865.1625,509.4063 865.0688,509.25 C864.9125,508.9844 864.6313,508.8438 864.3344,508.8438 C864.0375,508.8438 863.8344,508.9375 863.6156,509.25 L863.4438,509.1719 Z " fill="#000000"/><text fill="#000000" font-family="sans-serif" font-size="12" lengthAdjust="spacingAndGlyphs" textLength="29" x="880.9" y="517.6543">Rural</text><line style="stroke:#A80036;stroke-width:1.5;" x1="821" x2="938" y1="529.5" y2="529.5"/><text fill="#000000" font-family="sans-serif" font-size="11" lengthAdjust="spacingAndGlyphs" textLength="68" x="826" y="543.7104">-String desc</text><text fill="#000000" font-family="sans-serif" font-size="11" lengthAdjust="spacingAndGlyphs" textLength="107" x="826" y="556.5151">-Double areaConst</text><text fill="#000000" font-family="sans-serif" font-size="11" lengthAdjust="spacingAndGlyphs" textLength="98" x="826" y="569.3198">-String dataConst</text><!--MD5=[e8772d8d63e33a37d8668d3122b6c8d5]
link Autarquia to Freguesia--><path codeLine="60" d="M95.2632,245.5 C129.181,245.5 176.243,245.5 210.678,245.5 " fill="none" id="Autarquia-Freguesia" style="stroke:#A80036;stroke-width:1.0;"/><polygon fill="#000000" points="135,237.0664,125.9549,234.1275,125.9549,240.0053,135,237.0664" style="stroke:#000000;stroke-width:1.0;"/><text fill="#000000" font-family="sans-serif" font-size="13" lengthAdjust="spacingAndGlyphs" textLength="41" x="139" y="241.5669">possui</text><text fill="#000000" font-family="sans-serif" font-size="13" lengthAdjust="spacingAndGlyphs" textLength="8" x="102.9551" y="258.7884">1</text><text fill="#000000" font-family="sans-serif" font-size="13" lengthAdjust="spacingAndGlyphs" textLength="20" x="183.1097" y="258.5968">1...</text><!--MD5=[fe58f711169fdf6c6f3bd7925b9573f1]
link Freguesia to Terreno--><path codeLine="62" d="M303.221,245.5 C332.925,245.5 371.995,245.5 403.639,245.5 " fill="none" id="Freguesia-Terreno" style="stroke:#A80036;stroke-width:1.0;"/><polygon fill="#000000" points="343,237.0664,333.9549,234.1275,333.9549,240.0053,343,237.0664" style="stroke:#000000;stroke-width:1.0;"/><text fill="#000000" font-family="sans-serif" font-size="13" lengthAdjust="spacingAndGlyphs" textLength="26" x="347" y="241.5669">tem</text><text fill="#000000" font-family="sans-serif" font-size="13" lengthAdjust="spacingAndGlyphs" textLength="8" x="310.9111" y="258.7405">1</text><text fill="#000000" font-family="sans-serif" font-size="13" lengthAdjust="spacingAndGlyphs" textLength="20" x="375.9082" y="258.4291">1...</text><!--MD5=[bb2ac99ed3864569c12ac4b2b8fa227c]
link Terreno to Forma--><path codeLine="63" d="M517.147,224.794 C553.603,211.229 600.52,193.772 633.986,181.319 " fill="none" id="Terreno-Forma" style="stroke:#A80036;stroke-width:1.0;"/><polygon fill="#000000" points="556.6861,191.3227,547.184,191.7226,549.2338,197.2315,556.6861,191.3227" style="stroke:#000000;stroke-width:1.0;"/><text fill="#000000" font-family="sans-serif" font-size="13" lengthAdjust="spacingAndGlyphs" textLength="26" x="561" y="197.5669">tem</text><text fill="#000000" font-family="sans-serif" font-size="13" lengthAdjust="spacingAndGlyphs" textLength="16" x="525.0259" y="235.2462">1..</text><text fill="#000000" font-family="sans-serif" font-size="13" lengthAdjust="spacingAndGlyphs" textLength="8" x="618.1165" y="197.2753">1</text><!--MD5=[0e6a292806aae07b926a297a01593e7d]
link Terreno to Classificacao--><path codeLine="64" d="M517.147,285.1 C549.248,307.944 589.46,336.56 621.458,359.331 " fill="none" id="Terreno-Classificacao" style="stroke:#A80036;stroke-width:1.0;"/><polygon fill="#000000" points="556.0738,301.9654,550.4083,294.3265,547.0002,299.1155,556.0738,301.9654" style="stroke:#000000;stroke-width:1.0;"/><text fill="#000000" font-family="sans-serif" font-size="13" lengthAdjust="spacingAndGlyphs" textLength="26" x="561" y="303.5669">tem</text><text fill="#000000" font-family="sans-serif" font-size="13" lengthAdjust="spacingAndGlyphs" textLength="16" x="525.0259" y="302.902">1..</text><text fill="#000000" font-family="sans-serif" font-size="13" lengthAdjust="spacingAndGlyphs" textLength="8" x="603.1383" y="348.3525">1</text><!--MD5=[1c465b32ca0468e7ec758b35a8aaffc3]
reverse link Forma to Triangular--><path codeLine="66" d="M723.527,135.782 C757.918,113.084 804.896,82.079 838.087,60.172 " fill="none" id="Forma-backto-Triangular" style="stroke:#A80036;stroke-width:1.0;"/><polygon fill="#A80036" points="718.973,138.788,728.6878,137.1685,723.146,136.0336,724.2808,130.4918,718.973,138.788" style="stroke:#A80036;stroke-width:1.0;"/><polygon fill="#000000" points="776.173,85.3122,767.005,87.8418,770.2428,92.7475,776.173,85.3122" style="stroke:#000000;stroke-width:1.0;"/><text fill="#000000" font-family="sans-serif" font-size="13" lengthAdjust="spacingAndGlyphs" textLength="8" x="781" y="92.5669">é</text><text fill="#000000" font-family="sans-serif" font-size="13" lengthAdjust="spacingAndGlyphs" textLength="8" x="719.6386" y="127.9813">1</text><text fill="#000000" font-family="sans-serif" font-size="13" lengthAdjust="spacingAndGlyphs" textLength="8" x="820.1529" y="79.7499">1</text><!--MD5=[03b4786bbfe644ecee2a05797579cc38]
reverse link Forma to Circular--><path codeLine="67" d="M726.643,154.908 C759.868,147.599 803.652,137.967 835.666,130.923 " fill="none" id="Forma-backto-Circular" style="stroke:#A80036;stroke-width:1.0;"/><polygon fill="#A80036" points="721.405,156.061,731.0541,158.0343,726.2883,154.9869,729.3356,150.2211,721.405,156.061" style="stroke:#A80036;stroke-width:1.0;"/><polygon fill="#000000" points="776.8832,132.9921,767.4179,132.0653,768.6809,137.8058,776.8832,132.9921" style="stroke:#000000;stroke-width:1.0;"/><text fill="#000000" font-family="sans-serif" font-size="13" lengthAdjust="spacingAndGlyphs" textLength="8" x="781" y="138.5669">é</text><text fill="#000000" font-family="sans-serif" font-size="13" lengthAdjust="spacingAndGlyphs" textLength="8" x="729.0399" y="167.845">1</text><text fill="#000000" font-family="sans-serif" font-size="13" lengthAdjust="spacingAndGlyphs" textLength="8" x="820.0425" y="145.7131">1</text><!--MD5=[4137596e5fb08a916841c8b9c7c2f64b]
reverse link Forma to Rectangular--><path codeLine="68" d="M726.643,176.092 C757.368,182.851 797.122,191.597 828.248,198.445 " fill="none" id="Forma-backto-Rectangular" style="stroke:#A80036;stroke-width:1.0;"/><polygon fill="#A80036" points="721.405,174.939,729.3356,180.7789,726.2883,176.0131,731.0541,172.9657,721.405,174.939" style="stroke:#A80036;stroke-width:1.0;"/><polygon fill="#000000" points="781.8832,181.0743,773.6808,176.2606,772.4179,182.0012,781.8832,181.0743" style="stroke:#000000;stroke-width:1.0;"/><text fill="#000000" font-family="sans-serif" font-size="13" lengthAdjust="spacingAndGlyphs" textLength="8" x="729.0399" y="189.7317">1</text><text fill="#000000" font-family="sans-serif" font-size="13" lengthAdjust="spacingAndGlyphs" textLength="8" x="812.4782" y="210.035">1</text><!--MD5=[831c5d2265282725a77cd49af7f57604]
reverse link Classificacao to Rural--><path codeLine="70" d="M739.451,440.556 C765.693,458.663 796.192,479.7072 821.927,497.4649 " fill="none" id="Classificacao-backto-Rural" style="stroke:#A80036;stroke-width:1.0;"/><polygon fill="#A80036" points="735.277,437.676,740.4148,446.0786,739.393,440.5148,744.9568,439.493,735.277,437.676" style="stroke:#A80036;stroke-width:1.0;"/><polygon fill="#000000" points="776.1154,456.906,770.3397,449.3501,767.0015,454.1881,776.1154,456.906" style="stroke:#000000;stroke-width:1.0;"/><text fill="#000000" font-family="sans-serif" font-size="13" lengthAdjust="spacingAndGlyphs" textLength="8" x="781" y="458.5669">é</text><text fill="#000000" font-family="sans-serif" font-size="13" lengthAdjust="spacingAndGlyphs" textLength="8" x="736.856" y="458.032">1</text><text fill="#000000" font-family="sans-serif" font-size="13" lengthAdjust="spacingAndGlyphs" textLength="8" x="804.1138" y="487.0929">1</text><!--MD5=[68897943cf52423f8cdb49efab270e91]
reverse link Classificacao to Urbana--><path codeLine="71" d="M741.779,370.657 C766.774,359.659 795.323,347.098 819.846,336.308 " fill="none" id="Classificacao-backto-Urbana" style="stroke:#A80036;stroke-width:1.0;"/><polygon fill="#A80036" points="737.155,372.692,747.0038,372.728,741.7314,370.678,743.7814,365.4057,737.155,372.692" style="stroke:#A80036;stroke-width:1.0;"/><polygon fill="#000000" points="776.5766,341.0527,767.1139,342.0054,769.4811,347.3855,776.5766,341.0527" style="stroke:#000000;stroke-width:1.0;"/><text fill="#000000" font-family="sans-serif" font-size="13" lengthAdjust="spacingAndGlyphs" textLength="8" x="781" y="347.5669">é</text><text fill="#000000" font-family="sans-serif" font-size="13" lengthAdjust="spacingAndGlyphs" textLength="8" x="744.913" y="382.5105">1</text><text fill="#000000" font-family="sans-serif" font-size="13" lengthAdjust="spacingAndGlyphs" textLength="8" x="804.0882" y="352.4172">1</text><!--MD5=[3d88720ea708b8b4b0463f4934725acf]
reverse link Classificacao to Industrial--><path codeLine="72" d="M742.402,406.488 C767.247,409.593 795.527,413.128 819.846,416.168 " fill="none" id="Classificacao-backto-Industrial" style="stroke:#A80036;stroke-width:1.0;"/><polygon fill="#A80036" points="737.155,405.832,745.5895,410.9171,742.1164,406.452,746.5815,402.9789,737.155,405.832" style="stroke:#A80036;stroke-width:1.0;"/><polygon fill="#000000" points="776.9614,401.6865,768.3507,397.6485,767.6216,403.4809,776.9614,401.6865" style="stroke:#000000;stroke-width:1.0;"/><text fill="#000000" font-family="sans-serif" font-size="13" lengthAdjust="spacingAndGlyphs" textLength="8" x="781" y="405.5669">é</text><text fill="#000000" font-family="sans-serif" font-size="13" lengthAdjust="spacingAndGlyphs" textLength="8" x="744.913" y="419.6894">1</text><text fill="#000000" font-family="sans-serif" font-size="13" lengthAdjust="spacingAndGlyphs" textLength="8" x="804.0882" y="428.2382">1</text><!--MD5=[844352e713d07d5939dcea1e0629afcb]
@startuml
skinparam classAttributeIconSize 0
hide methods
left to right direction

class Autarquia {
  -String nome
}

class Freguesia {
  -String nome
}

class Terreno {
  -Integer id
  -String indiceCont
  -Double area
  -Double imi
}

class Forma {
  -Double area
}

class Triangular {
  -Double area
}

class Circular {
  -Double area
}

class Rectangular {
  -Double area
}

class Classificacao {
  -String desc
  -Double areaConst
  -String dataConst
}

class Urbana {
  -String desc
  -Double areaConst
  -String dataConst
}

class Industrial {
  -String desc
  -Double areaConst
  -String dataConst
}

class Rural {
  -String desc
  -Double areaConst
  -String dataConst
}

Autarquia "1" - - "1..." Freguesia : possui >

Freguesia "1" - - "1..." Terreno : tem >
Terreno "1.." - - "1" Forma : tem >
Terreno "1.." - - "1" Classificacao : tem >

Forma "1" <- - "1" Triangular : é >
Forma "1" <- - "1" Circular : é >
Forma "1" <- - "1" Rectangular : >

Classificacao "1" <- - "1" Rural : é >
Classificacao "1" <- - "1" Urbana : é >
Classificacao "1" <- - "1" Industrial : é >
@enduml

PlantUML version 1.2020.21beta7(Unknown compile time)
(GPL source distribution)
Java Runtime: Java(TM) SE Runtime Environment
JVM: Java HotSpot(TM) 64-Bit Server VM
Default Encoding: UTF-8
Language: en
Country: US
--></g></svg>