<?xml version="1.0" encoding="UTF-8" standalone="no"?><svg xmlns="http://www.w3.org/2000/svg" xmlns:xlink="http://www.w3.org/1999/xlink" contentScriptType="application/ecmascript" contentStyleType="text/css" height="589px" preserveAspectRatio="none" style="width:1038px;height:589px;" version="1.1" viewBox="0 0 1038 589" width="1038px" zoomAndPan="magnify"><defs><filter height="300%" id="f1gy7l2a6q1pxn" width="300%" x="-1" y="-1"><feGaussianBlur result="blurOut" stdDeviation="2.0"/><feColorMatrix in="blurOut" result="blurOut2" type="matrix" values="0 0 0 0 0 0 0 0 0 0 0 0 0 0 0 0 0 0 .4 0"/><feOffset dx="4.0" dy="4.0" in="blurOut2" result="blurOut3"/><feBlend in="SourceGraphic" in2="blurOut3" mode="normal"/></filter></defs><g><!--MD5=[b8b6ee908b7faff6fecf4288f82e2ead]
class Autarquia--><rect codeLine="5" fill="#FEFECE" filter="url(#f1gy7l2a6q1pxn)" height="52.8047" id="Autarquia" style="stroke:#A80036;stroke-width:1.5;" width="88" x="7" y="60"/><ellipse cx="22" cy="76" fill="#ADD1B2" rx="11" ry="11" style="stroke:#A80036;stroke-width:1.0;"/><path d="M24.3438,71.6719 C23.4063,71.2344 22.8125,71.0938 21.9375,71.0938 C19.3125,71.0938 17.3125,73.1719 17.3125,75.8906 L17.3125,77.0156 C17.3125,79.5938 19.4219,81.4844 22.3125,81.4844 C23.5313,81.4844 24.6875,81.1875 25.4375,80.6406 C26.0156,80.2344 26.3438,79.7813 26.3438,79.3906 C26.3438,78.9375 25.9531,78.5469 25.4844,78.5469 C25.2656,78.5469 25.0625,78.625 24.875,78.8125 C24.4219,79.2969 24.4219,79.2969 24.2344,79.3906 C23.8125,79.6563 23.125,79.7813 22.3594,79.7813 C20.3125,79.7813 19.0156,78.6875 19.0156,76.9844 L19.0156,75.8906 C19.0156,74.1094 20.2656,72.7969 22,72.7969 C22.5781,72.7969 23.1875,72.9531 23.6563,73.2031 C24.1406,73.4844 24.3125,73.7031 24.4063,74.1094 C24.4688,74.5156 24.5,74.6406 24.6406,74.7656 C24.7813,74.9063 25.0156,75.0156 25.2344,75.0156 C25.5,75.0156 25.7656,74.875 25.9375,74.6563 C26.0469,74.5 26.0781,74.3125 26.0781,73.8906 L26.0781,72.4688 C26.0781,72.0313 26.0625,71.9063 25.9688,71.75 C25.8125,71.4844 25.5313,71.3438 25.2344,71.3438 C24.9375,71.3438 24.7344,71.4375 24.5156,71.75 L24.3438,71.6719 Z " fill="#000000"/><text fill="#000000" font-family="sans-serif" font-size="12" lengthAdjust="spacingAndGlyphs" textLength="56" x="36" y="80.1543">Autarquia</text><line style="stroke:#A80036;stroke-width:1.5;" x1="8" x2="94" y1="92" y2="92"/><text fill="#000000" font-family="sans-serif" font-size="11" lengthAdjust="spacingAndGlyphs" textLength="74" x="13" y="106.2104">-String nome</text><!--MD5=[ec4e9ac521a71f7b069122f6baf1b57e]
class Pessoa--><rect codeLine="9" fill="#FEFECE" filter="url(#f1gy7l2a6q1pxn)" height="78.4141" id="Pessoa" style="stroke:#A80036;stroke-width:1.5;" width="145" x="404" y="13.5"/><ellipse cx="450.75" cy="29.5" fill="#ADD1B2" rx="11" ry="11" style="stroke:#A80036;stroke-width:1.0;"/><path d="M453.0938,25.1719 C452.1563,24.7344 451.5625,24.5938 450.6875,24.5938 C448.0625,24.5938 446.0625,26.6719 446.0625,29.3906 L446.0625,30.5156 C446.0625,33.0938 448.1719,34.9844 451.0625,34.9844 C452.2813,34.9844 453.4375,34.6875 454.1875,34.1406 C454.7656,33.7344 455.0938,33.2813 455.0938,32.8906 C455.0938,32.4375 454.7031,32.0469 454.2344,32.0469 C454.0156,32.0469 453.8125,32.125 453.625,32.3125 C453.1719,32.7969 453.1719,32.7969 452.9844,32.8906 C452.5625,33.1563 451.875,33.2813 451.1094,33.2813 C449.0625,33.2813 447.7656,32.1875 447.7656,30.4844 L447.7656,29.3906 C447.7656,27.6094 449.0156,26.2969 450.75,26.2969 C451.3281,26.2969 451.9375,26.4531 452.4063,26.7031 C452.8906,26.9844 453.0625,27.2031 453.1563,27.6094 C453.2188,28.0156 453.25,28.1406 453.3906,28.2656 C453.5313,28.4063 453.7656,28.5156 453.9844,28.5156 C454.25,28.5156 454.5156,28.375 454.6875,28.1563 C454.7969,28 454.8281,27.8125 454.8281,27.3906 L454.8281,25.9688 C454.8281,25.5313 454.8125,25.4063 454.7188,25.25 C454.5625,24.9844 454.2813,24.8438 453.9844,24.8438 C453.6875,24.8438 453.4844,24.9375 453.2656,25.25 L453.0938,25.1719 Z " fill="#000000"/><text fill="#000000" font-family="sans-serif" font-size="12" lengthAdjust="spacingAndGlyphs" textLength="43" x="471.25" y="33.6543">Pessoa</text><line style="stroke:#A80036;stroke-width:1.5;" x1="405" x2="548" y1="45.5" y2="45.5"/><text fill="#000000" font-family="sans-serif" font-size="11" lengthAdjust="spacingAndGlyphs" textLength="74" x="410" y="59.7104">-String nome</text><text fill="#000000" font-family="sans-serif" font-size="11" lengthAdjust="spacingAndGlyphs" textLength="55" x="410" y="72.5151">-String nif</text><text fill="#000000" font-family="sans-serif" font-size="11" lengthAdjust="spacingAndGlyphs" textLength="133" x="410" y="85.3198">-String dataNascimento</text><!--MD5=[55a49fe1500ca3a9afacd5256121ad4e]
class Escritura--><rect codeLine="16" fill="#FEFECE" filter="url(#f1gy7l2a6q1pxn)" height="65.6094" id="Escritura" style="stroke:#A80036;stroke-width:1.5;" width="86" x="719.5" y="32.5"/><ellipse cx="735.4" cy="48.5" fill="#ADD1B2" rx="11" ry="11" style="stroke:#A80036;stroke-width:1.0;"/><path d="M737.7438,44.1719 C736.8063,43.7344 736.2125,43.5938 735.3375,43.5938 C732.7125,43.5938 730.7125,45.6719 730.7125,48.3906 L730.7125,49.5156 C730.7125,52.0938 732.8219,53.9844 735.7125,53.9844 C736.9313,53.9844 738.0875,53.6875 738.8375,53.1406 C739.4156,52.7344 739.7438,52.2813 739.7438,51.8906 C739.7438,51.4375 739.3531,51.0469 738.8844,51.0469 C738.6656,51.0469 738.4625,51.125 738.275,51.3125 C737.8219,51.7969 737.8219,51.7969 737.6344,51.8906 C737.2125,52.1563 736.525,52.2813 735.7594,52.2813 C733.7125,52.2813 732.4156,51.1875 732.4156,49.4844 L732.4156,48.3906 C732.4156,46.6094 733.6656,45.2969 735.4,45.2969 C735.9781,45.2969 736.5875,45.4531 737.0563,45.7031 C737.5406,45.9844 737.7125,46.2031 737.8063,46.6094 C737.8688,47.0156 737.9,47.1406 738.0406,47.2656 C738.1813,47.4063 738.4156,47.5156 738.6344,47.5156 C738.9,47.5156 739.1656,47.375 739.3375,47.1563 C739.4469,47 739.4781,46.8125 739.4781,46.3906 L739.4781,44.9688 C739.4781,44.5313 739.4625,44.4063 739.3688,44.25 C739.2125,43.9844 738.9313,43.8438 738.6344,43.8438 C738.3375,43.8438 738.1344,43.9375 737.9156,44.25 L737.7438,44.1719 Z " fill="#000000"/><text fill="#000000" font-family="sans-serif" font-size="12" lengthAdjust="spacingAndGlyphs" textLength="52" x="749.6" y="52.6543">Escritura</text><line style="stroke:#A80036;stroke-width:1.5;" x1="720.5" x2="804.5" y1="64.5" y2="64.5"/><text fill="#000000" font-family="sans-serif" font-size="11" lengthAdjust="spacingAndGlyphs" textLength="74" x="725.5" y="78.7104">-Integer num</text><text fill="#000000" font-family="sans-serif" font-size="11" lengthAdjust="spacingAndGlyphs" textLength="66" x="725.5" y="91.5151">-String data</text><!--MD5=[25ba56bf876b0b5138fdedf7889220de]
class Freguesia--><rect codeLine="21" fill="#FEFECE" filter="url(#f1gy7l2a6q1pxn)" height="52.8047" id="Freguesia" style="stroke:#A80036;stroke-width:1.5;" width="92" x="211" y="123"/><ellipse cx="226" cy="139" fill="#ADD1B2" rx="11" ry="11" style="stroke:#A80036;stroke-width:1.0;"/><path d="M228.3438,134.6719 C227.4063,134.2344 226.8125,134.0938 225.9375,134.0938 C223.3125,134.0938 221.3125,136.1719 221.3125,138.8906 L221.3125,140.0156 C221.3125,142.5938 223.4219,144.4844 226.3125,144.4844 C227.5313,144.4844 228.6875,144.1875 229.4375,143.6406 C230.0156,143.2344 230.3438,142.7813 230.3438,142.3906 C230.3438,141.9375 229.9531,141.5469 229.4844,141.5469 C229.2656,141.5469 229.0625,141.625 228.875,141.8125 C228.4219,142.2969 228.4219,142.2969 228.2344,142.3906 C227.8125,142.6563 227.125,142.7813 226.3594,142.7813 C224.3125,142.7813 223.0156,141.6875 223.0156,139.9844 L223.0156,138.8906 C223.0156,137.1094 224.2656,135.7969 226,135.7969 C226.5781,135.7969 227.1875,135.9531 227.6563,136.2031 C228.1406,136.4844 228.3125,136.7031 228.4063,137.1094 C228.4688,137.5156 228.5,137.6406 228.6406,137.7656 C228.7813,137.9063 229.0156,138.0156 229.2344,138.0156 C229.5,138.0156 229.7656,137.875 229.9375,137.6563 C230.0469,137.5 230.0781,137.3125 230.0781,136.8906 L230.0781,135.4688 C230.0781,135.0313 230.0625,134.9063 229.9688,134.75 C229.8125,134.4844 229.5313,134.3438 229.2344,134.3438 C228.9375,134.3438 228.7344,134.4375 228.5156,134.75 L228.3438,134.6719 Z " fill="#000000"/><text fill="#000000" font-family="sans-serif" font-size="12" lengthAdjust="spacingAndGlyphs" textLength="60" x="240" y="143.1543">Freguesia</text><line style="stroke:#A80036;stroke-width:1.5;" x1="212" x2="302" y1="155" y2="155"/><text fill="#000000" font-family="sans-serif" font-size="11" lengthAdjust="spacingAndGlyphs" textLength="74" x="217" y="169.2104">-String nome</text><!--MD5=[26905466b2de2c704432800e111a1f71]
class Terreno--><rect codeLine="25" fill="#FEFECE" filter="url(#f1gy7l2a6q1pxn)" height="91.2188" id="Terreno" style="stroke:#A80036;stroke-width:1.5;" width="113" x="420" y="127"/><ellipse cx="449.85" cy="143" fill="#ADD1B2" rx="11" ry="11" style="stroke:#A80036;stroke-width:1.0;"/><path d="M452.1938,138.6719 C451.2563,138.2344 450.6625,138.0938 449.7875,138.0938 C447.1625,138.0938 445.1625,140.1719 445.1625,142.8906 L445.1625,144.0156 C445.1625,146.5938 447.2719,148.4844 450.1625,148.4844 C451.3813,148.4844 452.5375,148.1875 453.2875,147.6406 C453.8656,147.2344 454.1938,146.7813 454.1938,146.3906 C454.1938,145.9375 453.8031,145.5469 453.3344,145.5469 C453.1156,145.5469 452.9125,145.625 452.725,145.8125 C452.2719,146.2969 452.2719,146.2969 452.0844,146.3906 C451.6625,146.6563 450.975,146.7813 450.2094,146.7813 C448.1625,146.7813 446.8656,145.6875 446.8656,143.9844 L446.8656,142.8906 C446.8656,141.1094 448.1156,139.7969 449.85,139.7969 C450.4281,139.7969 451.0375,139.9531 451.5063,140.2031 C451.9906,140.4844 452.1625,140.7031 452.2563,141.1094 C452.3188,141.5156 452.35,141.6406 452.4906,141.7656 C452.6313,141.9063 452.8656,142.0156 453.0844,142.0156 C453.35,142.0156 453.6156,141.875 453.7875,141.6563 C453.8969,141.5 453.9281,141.3125 453.9281,140.8906 L453.9281,139.4688 C453.9281,139.0313 453.9125,138.9063 453.8188,138.75 C453.6625,138.4844 453.3813,138.3438 453.0844,138.3438 C452.7875,138.3438 452.5844,138.4375 452.3656,138.75 L452.1938,138.6719 Z " fill="#000000"/><text fill="#000000" font-family="sans-serif" font-size="12" lengthAdjust="spacingAndGlyphs" textLength="48" x="467.15" y="147.1543">Terreno</text><line style="stroke:#A80036;stroke-width:1.5;" x1="421" x2="532" y1="159" y2="159"/><text fill="#000000" font-family="sans-serif" font-size="11" lengthAdjust="spacingAndGlyphs" textLength="59" x="426" y="173.2104">-Integer id</text><text fill="#000000" font-family="sans-serif" font-size="11" lengthAdjust="spacingAndGlyphs" textLength="101" x="426" y="186.0151">-String indiceCont</text><text fill="#000000" font-family="sans-serif" font-size="11" lengthAdjust="spacingAndGlyphs" textLength="75" x="426" y="198.8198">-Double area</text><text fill="#000000" font-family="sans-serif" font-size="11" lengthAdjust="spacingAndGlyphs" textLength="66" x="426" y="211.6245">-Double imi</text><!--MD5=[78f21c08692eebc4688c39ddeb4c353c]
class Forma--><rect codeLine="32" fill="#FEFECE" filter="url(#f1gy7l2a6q1pxn)" height="52.8047" id="Forma" style="stroke:#A80036;stroke-width:1.5;" width="87" x="719" y="139"/><ellipse cx="741.65" cy="155" fill="#ADD1B2" rx="11" ry="11" style="stroke:#A80036;stroke-width:1.0;"/><path d="M743.9938,150.6719 C743.0563,150.2344 742.4625,150.0938 741.5875,150.0938 C738.9625,150.0938 736.9625,152.1719 736.9625,154.8906 L736.9625,156.0156 C736.9625,158.5938 739.0719,160.4844 741.9625,160.4844 C743.1813,160.4844 744.3375,160.1875 745.0875,159.6406 C745.6656,159.2344 745.9938,158.7813 745.9938,158.3906 C745.9938,157.9375 745.6031,157.5469 745.1344,157.5469 C744.9156,157.5469 744.7125,157.625 744.525,157.8125 C744.0719,158.2969 744.0719,158.2969 743.8844,158.3906 C743.4625,158.6563 742.775,158.7813 742.0094,158.7813 C739.9625,158.7813 738.6656,157.6875 738.6656,155.9844 L738.6656,154.8906 C738.6656,153.1094 739.9156,151.7969 741.65,151.7969 C742.2281,151.7969 742.8375,151.9531 743.3063,152.2031 C743.7906,152.4844 743.9625,152.7031 744.0563,153.1094 C744.1188,153.5156 744.15,153.6406 744.2906,153.7656 C744.4313,153.9063 744.6656,154.0156 744.8844,154.0156 C745.15,154.0156 745.4156,153.875 745.5875,153.6563 C745.6969,153.5 745.7281,153.3125 745.7281,152.8906 L745.7281,151.4688 C745.7281,151.0313 745.7125,150.9063 745.6188,150.75 C745.4625,150.4844 745.1813,150.3438 744.8844,150.3438 C744.5875,150.3438 744.3844,150.4375 744.1656,150.75 L743.9938,150.6719 Z " fill="#000000"/><text fill="#000000" font-family="sans-serif" font-size="12" lengthAdjust="spacingAndGlyphs" textLength="38" x="757.35" y="159.1543">Forma</text><line style="stroke:#A80036;stroke-width:1.5;" x1="720" x2="805" y1="171" y2="171"/><text fill="#000000" font-family="sans-serif" font-size="11" lengthAdjust="spacingAndGlyphs" textLength="75" x="725" y="185.2104">-Double area</text><!--MD5=[1a24822eaf8b73e881588c13f79b9fdb]
class Triangular--><rect codeLine="36" fill="#FEFECE" filter="url(#f1gy7l2a6q1pxn)" height="52.8047" id="Triangular" style="stroke:#A80036;stroke-width:1.5;" width="91" x="919" y="7"/><ellipse cx="934" cy="23" fill="#ADD1B2" rx="11" ry="11" style="stroke:#A80036;stroke-width:1.0;"/><path d="M936.3438,18.6719 C935.4063,18.2344 934.8125,18.0938 933.9375,18.0938 C931.3125,18.0938 929.3125,20.1719 929.3125,22.8906 L929.3125,24.0156 C929.3125,26.5938 931.4219,28.4844 934.3125,28.4844 C935.5313,28.4844 936.6875,28.1875 937.4375,27.6406 C938.0156,27.2344 938.3438,26.7813 938.3438,26.3906 C938.3438,25.9375 937.9531,25.5469 937.4844,25.5469 C937.2656,25.5469 937.0625,25.625 936.875,25.8125 C936.4219,26.2969 936.4219,26.2969 936.2344,26.3906 C935.8125,26.6563 935.125,26.7813 934.3594,26.7813 C932.3125,26.7813 931.0156,25.6875 931.0156,23.9844 L931.0156,22.8906 C931.0156,21.1094 932.2656,19.7969 934,19.7969 C934.5781,19.7969 935.1875,19.9531 935.6563,20.2031 C936.1406,20.4844 936.3125,20.7031 936.4063,21.1094 C936.4688,21.5156 936.5,21.6406 936.6406,21.7656 C936.7813,21.9063 937.0156,22.0156 937.2344,22.0156 C937.5,22.0156 937.7656,21.875 937.9375,21.6563 C938.0469,21.5 938.0781,21.3125 938.0781,20.8906 L938.0781,19.4688 C938.0781,19.0313 938.0625,18.9063 937.9688,18.75 C937.8125,18.4844 937.5313,18.3438 937.2344,18.3438 C936.9375,18.3438 936.7344,18.4375 936.5156,18.75 L936.3438,18.6719 Z " fill="#000000"/><text fill="#000000" font-family="sans-serif" font-size="12" lengthAdjust="spacingAndGlyphs" textLength="59" x="948" y="27.1543">Triangular</text><line style="stroke:#A80036;stroke-width:1.5;" x1="920" x2="1009" y1="39" y2="39"/><text fill="#000000" font-family="sans-serif" font-size="11" lengthAdjust="spacingAndGlyphs" textLength="75" x="925" y="53.2104">-Double area</text><!--MD5=[b6aed8f55a7bdd1ed0168b25c887807c]
class Circular--><rect codeLine="40" fill="#FEFECE" filter="url(#f1gy7l2a6q1pxn)" height="52.8047" id="Circular" style="stroke:#A80036;stroke-width:1.5;" width="87" x="921" y="95"/><ellipse cx="940.5" cy="111" fill="#ADD1B2" rx="11" ry="11" style="stroke:#A80036;stroke-width:1.0;"/><path d="M942.8438,106.6719 C941.9063,106.2344 941.3125,106.0938 940.4375,106.0938 C937.8125,106.0938 935.8125,108.1719 935.8125,110.8906 L935.8125,112.0156 C935.8125,114.5938 937.9219,116.4844 940.8125,116.4844 C942.0313,116.4844 943.1875,116.1875 943.9375,115.6406 C944.5156,115.2344 944.8438,114.7813 944.8438,114.3906 C944.8438,113.9375 944.4531,113.5469 943.9844,113.5469 C943.7656,113.5469 943.5625,113.625 943.375,113.8125 C942.9219,114.2969 942.9219,114.2969 942.7344,114.3906 C942.3125,114.6563 941.625,114.7813 940.8594,114.7813 C938.8125,114.7813 937.5156,113.6875 937.5156,111.9844 L937.5156,110.8906 C937.5156,109.1094 938.7656,107.7969 940.5,107.7969 C941.0781,107.7969 941.6875,107.9531 942.1563,108.2031 C942.6406,108.4844 942.8125,108.7031 942.9063,109.1094 C942.9688,109.5156 943,109.6406 943.1406,109.7656 C943.2813,109.9063 943.5156,110.0156 943.7344,110.0156 C944,110.0156 944.2656,109.875 944.4375,109.6563 C944.5469,109.5 944.5781,109.3125 944.5781,108.8906 L944.5781,107.4688 C944.5781,107.0313 944.5625,106.9063 944.4688,106.75 C944.3125,106.4844 944.0313,106.3438 943.7344,106.3438 C943.4375,106.3438 943.2344,106.4375 943.0156,106.75 L942.8438,106.6719 Z " fill="#000000"/><text fill="#000000" font-family="sans-serif" font-size="12" lengthAdjust="spacingAndGlyphs" textLength="45" x="955.5" y="115.1543">Circular</text><line style="stroke:#A80036;stroke-width:1.5;" x1="922" x2="1007" y1="127" y2="127"/><text fill="#000000" font-family="sans-serif" font-size="11" lengthAdjust="spacingAndGlyphs" textLength="75" x="927" y="141.2104">-Double area</text><!--MD5=[d6947a45c6a695ad90c719b257327e44]
class Rectangular--><rect codeLine="44" fill="#FEFECE" filter="url(#f1gy7l2a6q1pxn)" height="52.8047" id="Rectangular" style="stroke:#A80036;stroke-width:1.5;" width="102" x="913.5" y="183"/><ellipse cx="928.5" cy="199" fill="#ADD1B2" rx="11" ry="11" style="stroke:#A80036;stroke-width:1.0;"/><path d="M930.8438,194.6719 C929.9063,194.2344 929.3125,194.0938 928.4375,194.0938 C925.8125,194.0938 923.8125,196.1719 923.8125,198.8906 L923.8125,200.0156 C923.8125,202.5938 925.9219,204.4844 928.8125,204.4844 C930.0313,204.4844 931.1875,204.1875 931.9375,203.6406 C932.5156,203.2344 932.8438,202.7813 932.8438,202.3906 C932.8438,201.9375 932.4531,201.5469 931.9844,201.5469 C931.7656,201.5469 931.5625,201.625 931.375,201.8125 C930.9219,202.2969 930.9219,202.2969 930.7344,202.3906 C930.3125,202.6563 929.625,202.7813 928.8594,202.7813 C926.8125,202.7813 925.5156,201.6875 925.5156,199.9844 L925.5156,198.8906 C925.5156,197.1094 926.7656,195.7969 928.5,195.7969 C929.0781,195.7969 929.6875,195.9531 930.1563,196.2031 C930.6406,196.4844 930.8125,196.7031 930.9063,197.1094 C930.9688,197.5156 931,197.6406 931.1406,197.7656 C931.2813,197.9063 931.5156,198.0156 931.7344,198.0156 C932,198.0156 932.2656,197.875 932.4375,197.6563 C932.5469,197.5 932.5781,197.3125 932.5781,196.8906 L932.5781,195.4688 C932.5781,195.0313 932.5625,194.9063 932.4688,194.75 C932.3125,194.4844 932.0313,194.3438 931.7344,194.3438 C931.4375,194.3438 931.2344,194.4375 931.0156,194.75 L930.8438,194.6719 Z " fill="#000000"/><text fill="#000000" font-family="sans-serif" font-size="12" lengthAdjust="spacingAndGlyphs" textLength="70" x="942.5" y="203.1543">Rectangular</text><line style="stroke:#A80036;stroke-width:1.5;" x1="914.5" x2="1014.5" y1="215" y2="215"/><text fill="#000000" font-family="sans-serif" font-size="11" lengthAdjust="spacingAndGlyphs" textLength="75" x="919.5" y="229.2104">-Double area</text><!--MD5=[716bba0e94eea125d5a66a891f2c3c34]
class Classificacao--><rect codeLine="48" fill="#FEFECE" filter="url(#f1gy7l2a6q1pxn)" height="78.4141" id="Classificacao" style="stroke:#A80036;stroke-width:1.5;" width="119" x="703" y="328.5"/><ellipse cx="722.05" cy="344.5" fill="#ADD1B2" rx="11" ry="11" style="stroke:#A80036;stroke-width:1.0;"/><path d="M724.3938,340.1719 C723.4563,339.7344 722.8625,339.5938 721.9875,339.5938 C719.3625,339.5938 717.3625,341.6719 717.3625,344.3906 L717.3625,345.5156 C717.3625,348.0938 719.4719,349.9844 722.3625,349.9844 C723.5813,349.9844 724.7375,349.6875 725.4875,349.1406 C726.0656,348.7344 726.3938,348.2813 726.3938,347.8906 C726.3938,347.4375 726.0031,347.0469 725.5344,347.0469 C725.3156,347.0469 725.1125,347.125 724.925,347.3125 C724.4719,347.7969 724.4719,347.7969 724.2844,347.8906 C723.8625,348.1563 723.175,348.2813 722.4094,348.2813 C720.3625,348.2813 719.0656,347.1875 719.0656,345.4844 L719.0656,344.3906 C719.0656,342.6094 720.3156,341.2969 722.05,341.2969 C722.6281,341.2969 723.2375,341.4531 723.7063,341.7031 C724.1906,341.9844 724.3625,342.2031 724.4563,342.6094 C724.5188,343.0156 724.55,343.1406 724.6906,343.2656 C724.8313,343.4063 725.0656,343.5156 725.2844,343.5156 C725.55,343.5156 725.8156,343.375 725.9875,343.1563 C726.0969,343 726.1281,342.8125 726.1281,342.3906 L726.1281,340.9688 C726.1281,340.5313 726.1125,340.4063 726.0188,340.25 C725.8625,339.9844 725.5813,339.8438 725.2844,339.8438 C724.9875,339.8438 724.7844,339.9375 724.5656,340.25 L724.3938,340.1719 Z " fill="#000000"/><text fill="#000000" font-family="sans-serif" font-size="12" lengthAdjust="spacingAndGlyphs" textLength="78" x="736.95" y="348.6543">Classificacao</text><line style="stroke:#A80036;stroke-width:1.5;" x1="704" x2="821" y1="360.5" y2="360.5"/><text fill="#000000" font-family="sans-serif" font-size="11" lengthAdjust="spacingAndGlyphs" textLength="68" x="709" y="374.7104">-String desc</text><text fill="#000000" font-family="sans-serif" font-size="11" lengthAdjust="spacingAndGlyphs" textLength="107" x="709" y="387.5151">-Double areaConst</text><text fill="#000000" font-family="sans-serif" font-size="11" lengthAdjust="spacingAndGlyphs" textLength="98" x="709" y="400.3198">-String dataConst</text><!--MD5=[e1b108aeef6100ad38510f06dc65f284]
class Urbana--><rect codeLine="54" fill="#FEFECE" filter="url(#f1gy7l2a6q1pxn)" height="78.4141" id="Urbana" style="stroke:#A80036;stroke-width:1.5;" width="119" x="905" y="271.5"/><ellipse cx="939.8" cy="287.5" fill="#ADD1B2" rx="11" ry="11" style="stroke:#A80036;stroke-width:1.0;"/><path d="M942.1438,283.1719 C941.2063,282.7344 940.6125,282.5938 939.7375,282.5938 C937.1125,282.5938 935.1125,284.6719 935.1125,287.3906 L935.1125,288.5156 C935.1125,291.0938 937.2219,292.9844 940.1125,292.9844 C941.3313,292.9844 942.4875,292.6875 943.2375,292.1406 C943.8156,291.7344 944.1438,291.2813 944.1438,290.8906 C944.1438,290.4375 943.7531,290.0469 943.2844,290.0469 C943.0656,290.0469 942.8625,290.125 942.675,290.3125 C942.2219,290.7969 942.2219,290.7969 942.0344,290.8906 C941.6125,291.1563 940.925,291.2813 940.1594,291.2813 C938.1125,291.2813 936.8156,290.1875 936.8156,288.4844 L936.8156,287.3906 C936.8156,285.6094 938.0656,284.2969 939.8,284.2969 C940.3781,284.2969 940.9875,284.4531 941.4563,284.7031 C941.9406,284.9844 942.1125,285.2031 942.2063,285.6094 C942.2688,286.0156 942.3,286.1406 942.4406,286.2656 C942.5813,286.4063 942.8156,286.5156 943.0344,286.5156 C943.3,286.5156 943.5656,286.375 943.7375,286.1563 C943.8469,286 943.8781,285.8125 943.8781,285.3906 L943.8781,283.9688 C943.8781,283.5313 943.8625,283.4063 943.7688,283.25 C943.6125,282.9844 943.3313,282.8438 943.0344,282.8438 C942.7375,282.8438 942.5344,282.9375 942.3156,283.25 L942.1438,283.1719 Z " fill="#000000"/><text fill="#000000" font-family="sans-serif" font-size="12" lengthAdjust="spacingAndGlyphs" textLength="43" x="958.2" y="291.6543">Urbana</text><line style="stroke:#A80036;stroke-width:1.5;" x1="906" x2="1023" y1="303.5" y2="303.5"/><text fill="#000000" font-family="sans-serif" font-size="11" lengthAdjust="spacingAndGlyphs" textLength="68" x="911" y="317.7104">-String desc</text><text fill="#000000" font-family="sans-serif" font-size="11" lengthAdjust="spacingAndGlyphs" textLength="107" x="911" y="330.5151">-Double areaConst</text><text fill="#000000" font-family="sans-serif" font-size="11" lengthAdjust="spacingAndGlyphs" textLength="98" x="911" y="343.3198">-String dataConst</text><!--MD5=[97e7c7c927ed2b2c9a6c4a278020550a]
class Industrial--><rect codeLine="60" fill="#FEFECE" filter="url(#f1gy7l2a6q1pxn)" height="78.4141" id="Industrial" style="stroke:#A80036;stroke-width:1.5;" width="119" x="905" y="384.5"/><ellipse cx="934.85" cy="400.5" fill="#ADD1B2" rx="11" ry="11" style="stroke:#A80036;stroke-width:1.0;"/><path d="M937.1938,396.1719 C936.2563,395.7344 935.6625,395.5938 934.7875,395.5938 C932.1625,395.5938 930.1625,397.6719 930.1625,400.3906 L930.1625,401.5156 C930.1625,404.0938 932.2719,405.9844 935.1625,405.9844 C936.3813,405.9844 937.5375,405.6875 938.2875,405.1406 C938.8656,404.7344 939.1938,404.2813 939.1938,403.8906 C939.1938,403.4375 938.8031,403.0469 938.3344,403.0469 C938.1156,403.0469 937.9125,403.125 937.725,403.3125 C937.2719,403.7969 937.2719,403.7969 937.0844,403.8906 C936.6625,404.1563 935.975,404.2813 935.2094,404.2813 C933.1625,404.2813 931.8656,403.1875 931.8656,401.4844 L931.8656,400.3906 C931.8656,398.6094 933.1156,397.2969 934.85,397.2969 C935.4281,397.2969 936.0375,397.4531 936.5063,397.7031 C936.9906,397.9844 937.1625,398.2031 937.2563,398.6094 C937.3188,399.0156 937.35,399.1406 937.4906,399.2656 C937.6313,399.4063 937.8656,399.5156 938.0844,399.5156 C938.35,399.5156 938.6156,399.375 938.7875,399.1563 C938.8969,399 938.9281,398.8125 938.9281,398.3906 L938.9281,396.9688 C938.9281,396.5313 938.9125,396.4063 938.8188,396.25 C938.6625,395.9844 938.3813,395.8438 938.0844,395.8438 C937.7875,395.8438 937.5844,395.9375 937.3656,396.25 L937.1938,396.1719 Z " fill="#000000"/><text fill="#000000" font-family="sans-serif" font-size="12" lengthAdjust="spacingAndGlyphs" textLength="54" x="952.15" y="404.6543">Industrial</text><line style="stroke:#A80036;stroke-width:1.5;" x1="906" x2="1023" y1="416.5" y2="416.5"/><text fill="#000000" font-family="sans-serif" font-size="11" lengthAdjust="spacingAndGlyphs" textLength="68" x="911" y="430.7104">-String desc</text><text fill="#000000" font-family="sans-serif" font-size="11" lengthAdjust="spacingAndGlyphs" textLength="107" x="911" y="443.5151">-Double areaConst</text><text fill="#000000" font-family="sans-serif" font-size="11" lengthAdjust="spacingAndGlyphs" textLength="98" x="911" y="456.3198">-String dataConst</text><!--MD5=[9d6c8135b42eb16496d6c21566b10e69]
class Rural--><rect codeLine="66" fill="#FEFECE" filter="url(#f1gy7l2a6q1pxn)" height="78.4141" id="Rural" style="stroke:#A80036;stroke-width:1.5;" width="119" x="905" y="497.5"/><ellipse cx="946.1" cy="513.5" fill="#ADD1B2" rx="11" ry="11" style="stroke:#A80036;stroke-width:1.0;"/><path d="M948.4438,509.1719 C947.5063,508.7344 946.9125,508.5938 946.0375,508.5938 C943.4125,508.5938 941.4125,510.6719 941.4125,513.3906 L941.4125,514.5156 C941.4125,517.0938 943.5219,518.9844 946.4125,518.9844 C947.6313,518.9844 948.7875,518.6875 949.5375,518.1406 C950.1156,517.7344 950.4438,517.2813 950.4438,516.8906 C950.4438,516.4375 950.0531,516.0469 949.5844,516.0469 C949.3656,516.0469 949.1625,516.125 948.975,516.3125 C948.5219,516.7969 948.5219,516.7969 948.3344,516.8906 C947.9125,517.1563 947.225,517.2813 946.4594,517.2813 C944.4125,517.2813 943.1156,516.1875 943.1156,514.4844 L943.1156,513.3906 C943.1156,511.6094 944.3656,510.2969 946.1,510.2969 C946.6781,510.2969 947.2875,510.4531 947.7563,510.7031 C948.2406,510.9844 948.4125,511.2031 948.5063,511.6094 C948.5688,512.0156 948.6,512.1406 948.7406,512.2656 C948.8813,512.4063 949.1156,512.5156 949.3344,512.5156 C949.6,512.5156 949.8656,512.375 950.0375,512.1563 C950.1469,512 950.1781,511.8125 950.1781,511.3906 L950.1781,509.9688 C950.1781,509.5313 950.1625,509.4063 950.0688,509.25 C949.9125,508.9844 949.6313,508.8438 949.3344,508.8438 C949.0375,508.8438 948.8344,508.9375 948.6156,509.25 L948.4438,509.1719 Z " fill="#000000"/><text fill="#000000" font-family="sans-serif" font-size="12" lengthAdjust="spacingAndGlyphs" textLength="29" x="965.9" y="517.6543">Rural</text><line style="stroke:#A80036;stroke-width:1.5;" x1="906" x2="1023" y1="529.5" y2="529.5"/><text fill="#000000" font-family="sans-serif" font-size="11" lengthAdjust="spacingAndGlyphs" textLength="68" x="911" y="543.7104">-String desc</text><text fill="#000000" font-family="sans-serif" font-size="11" lengthAdjust="spacingAndGlyphs" textLength="107" x="911" y="556.5151">-Double areaConst</text><text fill="#000000" font-family="sans-serif" font-size="11" lengthAdjust="spacingAndGlyphs" textLength="98" x="911" y="569.3198">-String dataConst</text><!--MD5=[e8772d8d63e33a37d8668d3122b6c8d5]
link Autarquia to Freguesia--><path codeLine="72" d="M95.2632,99.861 C129.181,110.335 176.243,124.869 210.678,135.504 " fill="none" id="Autarquia-Freguesia" style="stroke:#A80036;stroke-width:1.0;"/><polygon fill="#000000" points="134.7774,103.5418,127.0022,98.0647,125.2678,103.6809,134.7774,103.5418" style="stroke:#000000;stroke-width:1.0;"/><text fill="#000000" font-family="sans-serif" font-size="13" lengthAdjust="spacingAndGlyphs" textLength="41" x="139" y="106.5669">possui</text><text fill="#000000" font-family="sans-serif" font-size="13" lengthAdjust="spacingAndGlyphs" textLength="8" x="102.9551" y="115.2788">1</text><text fill="#000000" font-family="sans-serif" font-size="13" lengthAdjust="spacingAndGlyphs" textLength="27" x="176.0133" y="146.7596">1...*</text><!--MD5=[9d1f79f015101a430f970ca1fac3815a]
link Autarquia to Pessoa--><path codeLine="73" d="M95.3317,83.021 C168.062,77.182 315.39,65.354 403.761,58.259 " fill="none" id="Autarquia-Pessoa" style="stroke:#A80036;stroke-width:1.0;"/><polygon fill="#000000" points="246.484,57.6663,237.2327,55.4606,237.7031,61.3196,246.484,57.6663" style="stroke:#000000;stroke-width:1.0;"/><text fill="#000000" font-family="sans-serif" font-size="13" lengthAdjust="spacingAndGlyphs" textLength="26" x="250.5" y="62.5669">tem</text><text fill="#000000" font-family="sans-serif" font-size="13" lengthAdjust="spacingAndGlyphs" textLength="8" x="103.0346" y="95.7549">1</text><text fill="#000000" font-family="sans-serif" font-size="13" lengthAdjust="spacingAndGlyphs" textLength="27" x="369.0803" y="71.4942">1...*</text><!--MD5=[47051fed48d110500a8c7a9c799d5112]
link Pessoa to Escritura--><path codeLine="75" d="M549.165,55.78 C602.898,58.24 674.608,61.523 719.413,63.573 " fill="none" id="Pessoa-Escritura" style="stroke:#A80036;stroke-width:1.0;"/><polygon fill="#000000" points="615.4948,48.295,606.5935,44.9456,606.3248,50.8173,615.4948,48.295" style="stroke:#000000;stroke-width:1.0;"/><text fill="#000000" font-family="sans-serif" font-size="13" lengthAdjust="spacingAndGlyphs" textLength="26" x="619.5" y="52.5669">tem</text><text fill="#000000" font-family="sans-serif" font-size="13" lengthAdjust="spacingAndGlyphs" textLength="27" x="557.1083" y="68.8277">1...*</text><text fill="#000000" font-family="sans-serif" font-size="13" lengthAdjust="spacingAndGlyphs" textLength="27" x="684.4555" y="76.4604">0...*</text><!--MD5=[fe58f711169fdf6c6f3bd7925b9573f1]
link Freguesia to Terreno--><path codeLine="77" d="M303.194,155.083 C313.016,156.251 323.353,157.447 333,158.5 C361.666,161.628 393.612,164.795 419.979,167.325 " fill="none" id="Freguesia-Terreno" style="stroke:#A80036;stroke-width:1.0;"/><polygon fill="#000000" points="342.9728,150.5877,334.2834,146.7218,333.6706,152.5676,342.9728,150.5877" style="stroke:#000000;stroke-width:1.0;"/><text fill="#000000" font-family="sans-serif" font-size="13" lengthAdjust="spacingAndGlyphs" textLength="26" x="347" y="154.5669">tem</text><text fill="#000000" font-family="sans-serif" font-size="13" lengthAdjust="spacingAndGlyphs" textLength="8" x="310.88" y="169.1784">1</text><text fill="#000000" font-family="sans-serif" font-size="13" lengthAdjust="spacingAndGlyphs" textLength="27" x="384.8828" y="179.6558">1...*</text><!--MD5=[6571597d05da3f90679511d771047437]
link Freguesia to Pessoa--><path codeLine="78" d="M303.066,129.402 C332.182,116.416 370.702,99.237 403.948,84.41 " fill="none" id="Freguesia-Pessoa" style="stroke:#A80036;stroke-width:1.0;stroke-dasharray:7.0,7.0;"/><polygon fill="#000000" points="342.5664,87.0298,333.1086,88.0299,335.5027,93.3981,342.5664,87.0298" style="stroke:#000000;stroke-width:1.0;"/><text fill="#000000" font-family="sans-serif" font-size="13" lengthAdjust="spacingAndGlyphs" textLength="26" x="347" y="93.5669">tem</text><text fill="#000000" font-family="sans-serif" font-size="13" lengthAdjust="spacingAndGlyphs" textLength="8" x="311.0453" y="139.4872">1</text><text fill="#000000" font-family="sans-serif" font-size="13" lengthAdjust="spacingAndGlyphs" textLength="27" x="369.0151" y="100.097">1...*</text><!--MD5=[bb2ac99ed3864569c12ac4b2b8fa227c]
link Terreno to Forma--><path codeLine="79" d="M533.147,174.268 C572.283,175.148 625.869,175.626 673,173.5 C687.949,172.826 704.276,171.514 718.789,170.144 " fill="none" id="Terreno-Forma" style="stroke:#A80036;stroke-width:1.0;"/><polygon fill="#000000" points="615.4988,164.9554,606.3906,162.218,606.5212,168.0944,615.4988,164.9554" style="stroke:#000000;stroke-width:1.0;"/><text fill="#000000" font-family="sans-serif" font-size="13" lengthAdjust="spacingAndGlyphs" textLength="26" x="619.5" y="169.5669">tem</text><text fill="#000000" font-family="sans-serif" font-size="13" lengthAdjust="spacingAndGlyphs" textLength="23" x="541.0265" y="187.4015">1..*</text><text fill="#000000" font-family="sans-serif" font-size="13" lengthAdjust="spacingAndGlyphs" textLength="8" x="702.8869" y="184.2494">1</text><!--MD5=[0e6a292806aae07b926a297a01593e7d]
link Terreno to Classificacao--><path codeLine="80" d="M533.27,210.793 C582.702,244.733 654.569,294.079 704.398,328.293 " fill="none" id="Terreno-Classificacao" style="stroke:#A80036;stroke-width:1.0;"/><polygon fill="#000000" points="614.6219,240.8966,608.8289,233.3539,605.5018,238.1995,614.6219,240.8966" style="stroke:#000000;stroke-width:1.0;"/><text fill="#000000" font-family="sans-serif" font-size="13" lengthAdjust="spacingAndGlyphs" textLength="26" x="619.5" y="242.5669">tem</text><text fill="#000000" font-family="sans-serif" font-size="13" lengthAdjust="spacingAndGlyphs" textLength="23" x="541.1637" y="228.1497">1..*</text><text fill="#000000" font-family="sans-serif" font-size="13" lengthAdjust="spacingAndGlyphs" textLength="8" x="686.8886" y="318.1864">1</text><!--MD5=[d1c4e62a2a52de7ff48c70b94e540036]
link Terreno to Escritura--><path codeLine="81" d="M533.27,151.488 C587.871,130.917 669.846,100.032 719.257,81.416 " fill="none" id="Terreno-Escritura" style="stroke:#A80036;stroke-width:1.0;"/><polygon fill="#000000" points="588.6789,89.3036,579.1785,89.7424,581.2508,95.2428,588.6789,89.3036" style="stroke:#000000;stroke-width:1.0;"/><text fill="#000000" font-family="sans-serif" font-size="13" lengthAdjust="spacingAndGlyphs" textLength="79" x="593" y="95.5669">está contido</text><text fill="#000000" font-family="sans-serif" font-size="13" lengthAdjust="spacingAndGlyphs" textLength="8" x="541.0562" y="161.8182">1</text><text fill="#000000" font-family="sans-serif" font-size="13" lengthAdjust="spacingAndGlyphs" textLength="8" x="703.4324" y="97.4045">1</text><!--MD5=[1c465b32ca0468e7ec758b35a8aaffc3]
reverse link Forma to Triangular--><path codeLine="83" d="M808.527,135.782 C842.918,113.084 889.896,82.079 923.087,60.172 " fill="none" id="Forma-backto-Triangular" style="stroke:#A80036;stroke-width:1.0;"/><polygon fill="#A80036" points="803.973,138.788,813.6878,137.1685,808.146,136.0336,809.2808,130.4918,803.973,138.788" style="stroke:#A80036;stroke-width:1.0;"/><polygon fill="#000000" points="861.173,84.3122,852.005,86.8418,855.2428,91.7475,861.173,84.3122" style="stroke:#000000;stroke-width:1.0;"/><text fill="#000000" font-family="sans-serif" font-size="13" lengthAdjust="spacingAndGlyphs" textLength="8" x="866" y="91.5669">é</text><text fill="#000000" font-family="sans-serif" font-size="13" lengthAdjust="spacingAndGlyphs" textLength="8" x="804.6386" y="127.9813">1</text><text fill="#000000" font-family="sans-serif" font-size="13" lengthAdjust="spacingAndGlyphs" textLength="8" x="905.1529" y="79.7499">1</text><!--MD5=[03b4786bbfe644ecee2a05797579cc38]
reverse link Forma to Circular--><path codeLine="84" d="M811.643,154.908 C844.868,147.599 888.652,137.967 920.666,130.923 " fill="none" id="Forma-backto-Circular" style="stroke:#A80036;stroke-width:1.0;"/><polygon fill="#A80036" points="806.405,156.061,816.0541,158.0343,811.2883,154.9869,814.3356,150.2211,806.405,156.061" style="stroke:#A80036;stroke-width:1.0;"/><polygon fill="#000000" points="861.8832,131.9921,852.4179,131.0653,853.6809,136.8058,861.8832,131.9921" style="stroke:#000000;stroke-width:1.0;"/><text fill="#000000" font-family="sans-serif" font-size="13" lengthAdjust="spacingAndGlyphs" textLength="8" x="866" y="137.5669">é</text><text fill="#000000" font-family="sans-serif" font-size="13" lengthAdjust="spacingAndGlyphs" textLength="8" x="814.0399" y="167.845">1</text><text fill="#000000" font-family="sans-serif" font-size="13" lengthAdjust="spacingAndGlyphs" textLength="8" x="905.0425" y="145.7131">1</text><!--MD5=[4137596e5fb08a916841c8b9c7c2f64b]
reverse link Forma to Rectangular--><path codeLine="85" d="M811.643,176.092 C842.368,182.851 882.122,191.597 913.248,198.445 " fill="none" id="Forma-backto-Rectangular" style="stroke:#A80036;stroke-width:1.0;"/><polygon fill="#A80036" points="806.405,174.939,814.3356,180.7789,811.2883,176.0131,816.0541,172.9657,806.405,174.939" style="stroke:#A80036;stroke-width:1.0;"/><polygon fill="#000000" points="866.8832,180.0743,858.6808,175.2606,857.4179,181.0012,866.8832,180.0743" style="stroke:#000000;stroke-width:1.0;"/><text fill="#000000" font-family="sans-serif" font-size="13" lengthAdjust="spacingAndGlyphs" textLength="8" x="814.0399" y="189.7317">1</text><text fill="#000000" font-family="sans-serif" font-size="13" lengthAdjust="spacingAndGlyphs" textLength="8" x="897.4782" y="210.035">1</text><!--MD5=[831c5d2265282725a77cd49af7f57604]
reverse link Classificacao to Rural--><path codeLine="87" d="M813.707,409.925 C845.403,436.708 886.062,471.065 917.019,497.2234 " fill="none" id="Classificacao-backto-Rural" style="stroke:#A80036;stroke-width:1.0;"/><polygon fill="#A80036" points="809.887,406.697,814.1807,415.5606,813.7065,409.9237,819.3434,409.4495,809.887,406.697" style="stroke:#A80036;stroke-width:1.0;"/><polygon fill="#000000" points="860.8191,441.2935,855.8071,433.2108,852.0134,437.7004,860.8191,441.2935" style="stroke:#000000;stroke-width:1.0;"/><text fill="#000000" font-family="sans-serif" font-size="13" lengthAdjust="spacingAndGlyphs" textLength="8" x="866" y="442.5669">é</text><text fill="#000000" font-family="sans-serif" font-size="13" lengthAdjust="spacingAndGlyphs" textLength="8" x="809.6153" y="427.0567">1</text><text fill="#000000" font-family="sans-serif" font-size="13" lengthAdjust="spacingAndGlyphs" textLength="8" x="900.4925" y="486.5196">1</text><!--MD5=[68897943cf52423f8cdb49efab270e91]
reverse link Classificacao to Urbana--><path codeLine="88" d="M827.09,349.377 C852.011,342.274 880.425,334.176 904.846,327.216 " fill="none" id="Classificacao-backto-Urbana" style="stroke:#A80036;stroke-width:1.0;"/><polygon fill="#A80036" points="822.155,350.783,831.9066,352.1639,826.9636,349.413,829.7145,344.47,822.155,350.783" style="stroke:#A80036;stroke-width:1.0;"/><polygon fill="#000000" points="861.8085,326.6959,852.3043,326.3488,853.9154,332.0015,861.8085,326.6959" style="stroke:#000000;stroke-width:1.0;"/><text fill="#000000" font-family="sans-serif" font-size="13" lengthAdjust="spacingAndGlyphs" textLength="8" x="866" y="332.5669">é</text><text fill="#000000" font-family="sans-serif" font-size="13" lengthAdjust="spacingAndGlyphs" textLength="8" x="829.913" y="361.7094">1</text><text fill="#000000" font-family="sans-serif" font-size="13" lengthAdjust="spacingAndGlyphs" textLength="8" x="889.0882" y="342.2171">1</text><!--MD5=[3d88720ea708b8b4b0463f4934725acf]
reverse link Classificacao to Industrial--><path codeLine="89" d="M827.09,385.305 C852.011,392.283 880.425,400.239 904.846,407.077 " fill="none" id="Classificacao-backto-Industrial" style="stroke:#A80036;stroke-width:1.0;"/><polygon fill="#A80036" points="822.155,383.923,829.7429,390.2018,826.9698,385.2713,831.9002,382.4981,822.155,383.923" style="stroke:#A80036;stroke-width:1.0;"/><polygon fill="#000000" points="861.8148,386.4146,853.8972,381.1456,852.3123,386.8058,861.8148,386.4146" style="stroke:#000000;stroke-width:1.0;"/><text fill="#000000" font-family="sans-serif" font-size="13" lengthAdjust="spacingAndGlyphs" textLength="8" x="866" y="389.5669">é</text><text fill="#000000" font-family="sans-serif" font-size="13" lengthAdjust="spacingAndGlyphs" textLength="8" x="829.913" y="398.8884">1</text><text fill="#000000" font-family="sans-serif" font-size="13" lengthAdjust="spacingAndGlyphs" textLength="8" x="889.0882" y="418.0393">1</text><!--MD5=[e647f2e891eda98828baf19b250c1c4d]
@startuml
skinparam classAttributeIconSize 0
hide methods
left to right direction

class Autarquia {
  -String nome
}

class Pessoa {
  -String nome	
  -String nif
  -String dataNascimento

}

class Escritura {
  -Integer num
  -String data
}

class Freguesia {
  -String nome
}

class Terreno {
  -Integer id
  -String indiceCont
  -Double area
  -Double imi
}

class Forma {
  -Double area
}

class Triangular {
  -Double area
}

class Circular {
  -Double area
}

class Rectangular {
  -Double area
}

class Classificacao {
  -String desc
  -Double areaConst
  -String dataConst
}

class Urbana {
  -String desc
  -Double areaConst
  -String dataConst
}

class Industrial {
  -String desc
  -Double areaConst
  -String dataConst
}

class Rural {
  -String desc
  -Double areaConst
  -String dataConst
}

Autarquia "1" - - "1...*" Freguesia : possui >
Autarquia "1" - - "1...*" Pessoa : tem >

Pessoa "1...*" - - "0...*" Escritura : tem  >

Freguesia "1" - - "1...*" Terreno : tem >
Freguesia "1" .. "1...*" Pessoa : tem >
Terreno "1..*" - - "1" Forma : tem >
Terreno "1..*" - - "1" Classificacao : tem >
Terreno "1" - - "1" Escritura : está contido >

Forma "1" <- - "1" Triangular : é >
Forma "1" <- - "1" Circular : é >
Forma "1" <- - "1" Rectangular : >

Classificacao "1" <- - "1" Rural : é >
Classificacao "1" <- - "1" Urbana : é >
Classificacao "1" <- - "1" Industrial : é >
@enduml

PlantUML version 1.2020.21beta7(Unknown compile time)
(GPL source distribution)
Java Runtime: Java(TM) SE Runtime Environment
JVM: Java HotSpot(TM) 64-Bit Server VM
Default Encoding: UTF-8
Language: en
Country: US
--></g></svg>