<?xml version="1.0" encoding="UTF-8" standalone="no"?><svg xmlns="http://www.w3.org/2000/svg" xmlns:xlink="http://www.w3.org/1999/xlink" contentScriptType="application/ecmascript" contentStyleType="text/css" height="367px" preserveAspectRatio="none" style="width:620px;height:367px;" version="1.1" viewBox="0 0 620 367" width="620px" zoomAndPan="magnify"><defs><filter height="300%" id="fka91536klwrq" width="300%" x="-1" y="-1"><feGaussianBlur result="blurOut" stdDeviation="2.0"/><feColorMatrix in="blurOut" result="blurOut2" type="matrix" values="0 0 0 0 0 0 0 0 0 0 0 0 0 0 0 0 0 0 .4 0"/><feOffset dx="4.0" dy="4.0" in="blurOut2" result="blurOut3"/><feBlend in="SourceGraphic" in2="blurOut3" mode="normal"/></filter></defs><g><rect fill="#FFFFFF" filter="url(#fka91536klwrq)" height="29.1328" style="stroke:#A80036;stroke-width:1.0;" width="10" x="554" y="119.4297"/><rect fill="#FFFFFF" filter="url(#fka91536klwrq)" height="29.1328" style="stroke:#A80036;stroke-width:1.0;" width="10" x="554" y="177.6953"/><rect fill="#FFFFFF" filter="url(#fka91536klwrq)" height="29.1328" style="stroke:#A80036;stroke-width:1.0;" width="10" x="554" y="235.9609"/><line style="stroke:#A80036;stroke-width:1.0;stroke-dasharray:5.0,5.0;" x1="42" x2="42" y1="88.2969" y2="283.0938"/><line style="stroke:#A80036;stroke-width:1.0;stroke-dasharray:5.0,5.0;" x1="559" x2="559" y1="88.2969" y2="283.0938"/><text fill="#000000" font-family="sans-serif" font-size="14" lengthAdjust="spacingAndGlyphs" textLength="68" x="5" y="84.9951">Utilizador</text><ellipse cx="42" cy="15" fill="#FEFECE" filter="url(#fka91536klwrq)" rx="8" ry="8" style="stroke:#A80036;stroke-width:2.0;"/><path d="M42,23 L42,50 M29,31 L55,31 M42,50 L29,65 M42,50 L55,65 " fill="none" filter="url(#fka91536klwrq)" style="stroke:#A80036;stroke-width:2.0;"/><text fill="#000000" font-family="sans-serif" font-size="14" lengthAdjust="spacingAndGlyphs" textLength="68" x="5" y="295.0889">Utilizador</text><ellipse cx="42" cy="308.3906" fill="#FEFECE" filter="url(#fka91536klwrq)" rx="8" ry="8" style="stroke:#A80036;stroke-width:2.0;"/><path d="M42,316.3906 L42,343.3906 M29,324.3906 L55,324.3906 M42,343.3906 L29,358.3906 M42,343.3906 L55,358.3906 " fill="none" filter="url(#fka91536klwrq)" style="stroke:#A80036;stroke-width:2.0;"/><rect fill="#FEFECE" filter="url(#fka91536klwrq)" height="30.2969" style="stroke:#A80036;stroke-width:1.5;" width="98" x="508" y="53"/><text fill="#000000" font-family="sans-serif" font-size="14" lengthAdjust="spacingAndGlyphs" textLength="84" x="515" y="72.9951">:Plataforma</text><rect fill="#FEFECE" filter="url(#fka91536klwrq)" height="30.2969" style="stroke:#A80036;stroke-width:1.5;" width="98" x="508" y="282.0938"/><text fill="#000000" font-family="sans-serif" font-size="14" lengthAdjust="spacingAndGlyphs" textLength="84" x="515" y="302.0889">:Plataforma</text><rect fill="#FFFFFF" filter="url(#fka91536klwrq)" height="29.1328" style="stroke:#A80036;stroke-width:1.0;" width="10" x="554" y="119.4297"/><rect fill="#FFFFFF" filter="url(#fka91536klwrq)" height="29.1328" style="stroke:#A80036;stroke-width:1.0;" width="10" x="554" y="177.6953"/><rect fill="#FFFFFF" filter="url(#fka91536klwrq)" height="29.1328" style="stroke:#A80036;stroke-width:1.0;" width="10" x="554" y="235.9609"/><polygon fill="#A80036" points="542,115.4297,552,119.4297,542,123.4297,546,119.4297" style="stroke:#A80036;stroke-width:1.0;"/><line style="stroke:#A80036;stroke-width:1.0;" x1="42" x2="548" y1="119.4297" y2="119.4297"/><text fill="#000000" font-family="sans-serif" font-size="13" font-weight="bold" lengthAdjust="spacingAndGlyphs" textLength="9" x="49" y="114.3638">1</text><text fill="#000000" font-family="sans-serif" font-size="13" lengthAdjust="spacingAndGlyphs" textLength="252" x="62" y="114.3638">Acede à plataforma para listar pessoas</text><polygon fill="#A80036" points="53,144.5625,43,148.5625,53,152.5625,49,148.5625" style="stroke:#A80036;stroke-width:1.0;"/><line style="stroke:#A80036;stroke-width:1.0;stroke-dasharray:2.0,2.0;" x1="47" x2="558" y1="148.5625" y2="148.5625"/><text fill="#000000" font-family="sans-serif" font-size="13" font-weight="bold" lengthAdjust="spacingAndGlyphs" textLength="9" x="59" y="143.4966">2</text><text fill="#000000" font-family="sans-serif" font-size="13" lengthAdjust="spacingAndGlyphs" textLength="475" x="72" y="143.4966">Solicita o parâmetro de ordenação pretendido para a listagem de pessoas</text><polygon fill="#A80036" points="542,173.6953,552,177.6953,542,181.6953,546,177.6953" style="stroke:#A80036;stroke-width:1.0;"/><line style="stroke:#A80036;stroke-width:1.0;" x1="42" x2="548" y1="177.6953" y2="177.6953"/><text fill="#000000" font-family="sans-serif" font-size="13" font-weight="bold" lengthAdjust="spacingAndGlyphs" textLength="8" x="49" y="172.6294">3</text><text fill="#000000" font-family="sans-serif" font-size="13" lengthAdjust="spacingAndGlyphs" textLength="145" x="61" y="172.6294">Seleciona o parâmetro</text><polygon fill="#A80036" points="53,202.8281,43,206.8281,53,210.8281,49,206.8281" style="stroke:#A80036;stroke-width:1.0;"/><line style="stroke:#A80036;stroke-width:1.0;stroke-dasharray:2.0,2.0;" x1="47" x2="558" y1="206.8281" y2="206.8281"/><text fill="#000000" font-family="sans-serif" font-size="13" font-weight="bold" lengthAdjust="spacingAndGlyphs" textLength="9" x="59" y="201.7622">4</text><text fill="#000000" font-family="sans-serif" font-size="13" lengthAdjust="spacingAndGlyphs" textLength="446" x="72" y="201.7622">Apresenta a listagem de pessoas ordenada pelo parâmetro escolhido</text><polygon fill="#A80036" points="542,231.9609,552,235.9609,542,239.9609,546,235.9609" style="stroke:#A80036;stroke-width:1.0;"/><line style="stroke:#A80036;stroke-width:1.0;" x1="42" x2="548" y1="235.9609" y2="235.9609"/><text fill="#000000" font-family="sans-serif" font-size="13" font-weight="bold" lengthAdjust="spacingAndGlyphs" textLength="9" x="49" y="230.895">5</text><text fill="#000000" font-family="sans-serif" font-size="13" lengthAdjust="spacingAndGlyphs" textLength="207" x="62" y="230.895">Confirma a listagem de pessoas</text><polygon fill="#A80036" points="53,261.0938,43,265.0938,53,269.0938,49,265.0938" style="stroke:#A80036;stroke-width:1.0;"/><line style="stroke:#A80036;stroke-width:1.0;stroke-dasharray:2.0,2.0;" x1="47" x2="558" y1="265.0938" y2="265.0938"/><text fill="#000000" font-family="sans-serif" font-size="13" font-weight="bold" lengthAdjust="spacingAndGlyphs" textLength="9" x="59" y="260.0278">6</text><text fill="#000000" font-family="sans-serif" font-size="13" lengthAdjust="spacingAndGlyphs" textLength="210" x="72" y="260.0278">Informa do sucesso da operação</text><!--MD5=[e638b1be051f4429d2be9b8b53ceb717]
@startuml
autonumber

actor "Utilizador"

Utilizador -> ":Plataforma" : Acede à plataforma para listar pessoas
activate ":Plataforma"
":Plataforma" - -> Utilizador: Solicita o parâmetro de ordenação pretendido para a listagem de pessoas
deactivate ":Plataforma"

Utilizador -> ":Plataforma" : Seleciona o parâmetro
activate ":Plataforma"
":Plataforma" - -> Utilizador: Apresenta a listagem de pessoas ordenada pelo parâmetro escolhido
deactivate ":Plataforma"

Utilizador ->":Plataforma" : Confirma a listagem de pessoas
activate ":Plataforma"
":Plataforma" - -> Utilizador: Informa do sucesso da operação
deactivate ":Plataforma"

deactivate "Utilizador"
@enduml

PlantUML version 1.2020.21beta7(Unknown compile time)
(GPL source distribution)
Java Runtime: Java(TM) SE Runtime Environment
JVM: Java HotSpot(TM) 64-Bit Server VM
Default Encoding: UTF-8
Language: en
Country: US
--></g></svg>