<?xml version="1.0" encoding="UTF-8" standalone="no"?><svg xmlns="http://www.w3.org/2000/svg" xmlns:xlink="http://www.w3.org/1999/xlink" contentScriptType="application/ecmascript" contentStyleType="text/css" height="225px" preserveAspectRatio="none" style="width:803px;height:225px;" version="1.1" viewBox="0 0 803 225" width="803px" zoomAndPan="magnify"><defs><filter height="300%" id="fsuu3aj8fuuns" width="300%" x="-1" y="-1"><feGaussianBlur result="blurOut" stdDeviation="2.0"/><feColorMatrix in="blurOut" result="blurOut2" type="matrix" values="0 0 0 0 0 0 0 0 0 0 0 0 0 0 0 0 0 0 .4 0"/><feOffset dx="4.0" dy="4.0" in="blurOut2" result="blurOut3"/><feBlend in="SourceGraphic" in2="blurOut3" mode="normal"/></filter></defs><g><!--MD5=[b8b6ee908b7faff6fecf4288f82e2ead]
class Autarquia--><rect codeLine="5" fill="#FEFECE" filter="url(#fsuu3aj8fuuns)" height="52.8047" id="Autarquia" style="stroke:#A80036;stroke-width:1.5;" width="88" x="7" y="53.5"/><ellipse cx="22" cy="69.5" fill="#ADD1B2" rx="11" ry="11" style="stroke:#A80036;stroke-width:1.0;"/><path d="M24.3438,65.1719 C23.4063,64.7344 22.8125,64.5938 21.9375,64.5938 C19.3125,64.5938 17.3125,66.6719 17.3125,69.3906 L17.3125,70.5156 C17.3125,73.0938 19.4219,74.9844 22.3125,74.9844 C23.5313,74.9844 24.6875,74.6875 25.4375,74.1406 C26.0156,73.7344 26.3438,73.2813 26.3438,72.8906 C26.3438,72.4375 25.9531,72.0469 25.4844,72.0469 C25.2656,72.0469 25.0625,72.125 24.875,72.3125 C24.4219,72.7969 24.4219,72.7969 24.2344,72.8906 C23.8125,73.1563 23.125,73.2813 22.3594,73.2813 C20.3125,73.2813 19.0156,72.1875 19.0156,70.4844 L19.0156,69.3906 C19.0156,67.6094 20.2656,66.2969 22,66.2969 C22.5781,66.2969 23.1875,66.4531 23.6563,66.7031 C24.1406,66.9844 24.3125,67.2031 24.4063,67.6094 C24.4688,68.0156 24.5,68.1406 24.6406,68.2656 C24.7813,68.4063 25.0156,68.5156 25.2344,68.5156 C25.5,68.5156 25.7656,68.375 25.9375,68.1563 C26.0469,68 26.0781,67.8125 26.0781,67.3906 L26.0781,65.9688 C26.0781,65.5313 26.0625,65.4063 25.9688,65.25 C25.8125,64.9844 25.5313,64.8438 25.2344,64.8438 C24.9375,64.8438 24.7344,64.9375 24.5156,65.25 L24.3438,65.1719 Z " fill="#000000"/><text fill="#000000" font-family="sans-serif" font-size="12" lengthAdjust="spacingAndGlyphs" textLength="56" x="36" y="73.6543">Autarquia</text><line style="stroke:#A80036;stroke-width:1.5;" x1="8" x2="94" y1="85.5" y2="85.5"/><text fill="#000000" font-family="sans-serif" font-size="11" lengthAdjust="spacingAndGlyphs" textLength="74" x="13" y="99.7104">-String nome</text><!--MD5=[ec4e9ac521a71f7b069122f6baf1b57e]
class Pessoa--><rect codeLine="9" fill="#FEFECE" filter="url(#fsuu3aj8fuuns)" height="78.4141" id="Pessoa" style="stroke:#A80036;stroke-width:1.5;" width="145" x="404" y="7"/><ellipse cx="450.75" cy="23" fill="#ADD1B2" rx="11" ry="11" style="stroke:#A80036;stroke-width:1.0;"/><path d="M453.0938,18.6719 C452.1563,18.2344 451.5625,18.0938 450.6875,18.0938 C448.0625,18.0938 446.0625,20.1719 446.0625,22.8906 L446.0625,24.0156 C446.0625,26.5938 448.1719,28.4844 451.0625,28.4844 C452.2813,28.4844 453.4375,28.1875 454.1875,27.6406 C454.7656,27.2344 455.0938,26.7813 455.0938,26.3906 C455.0938,25.9375 454.7031,25.5469 454.2344,25.5469 C454.0156,25.5469 453.8125,25.625 453.625,25.8125 C453.1719,26.2969 453.1719,26.2969 452.9844,26.3906 C452.5625,26.6563 451.875,26.7813 451.1094,26.7813 C449.0625,26.7813 447.7656,25.6875 447.7656,23.9844 L447.7656,22.8906 C447.7656,21.1094 449.0156,19.7969 450.75,19.7969 C451.3281,19.7969 451.9375,19.9531 452.4063,20.2031 C452.8906,20.4844 453.0625,20.7031 453.1563,21.1094 C453.2188,21.5156 453.25,21.6406 453.3906,21.7656 C453.5313,21.9063 453.7656,22.0156 453.9844,22.0156 C454.25,22.0156 454.5156,21.875 454.6875,21.6563 C454.7969,21.5 454.8281,21.3125 454.8281,20.8906 L454.8281,19.4688 C454.8281,19.0313 454.8125,18.9063 454.7188,18.75 C454.5625,18.4844 454.2813,18.3438 453.9844,18.3438 C453.6875,18.3438 453.4844,18.4375 453.2656,18.75 L453.0938,18.6719 Z " fill="#000000"/><text fill="#000000" font-family="sans-serif" font-size="12" lengthAdjust="spacingAndGlyphs" textLength="43" x="471.25" y="27.1543">Pessoa</text><line style="stroke:#A80036;stroke-width:1.5;" x1="405" x2="548" y1="39" y2="39"/><text fill="#000000" font-family="sans-serif" font-size="11" lengthAdjust="spacingAndGlyphs" textLength="74" x="410" y="53.2104">-String nome</text><text fill="#000000" font-family="sans-serif" font-size="11" lengthAdjust="spacingAndGlyphs" textLength="55" x="410" y="66.0151">-String nif</text><text fill="#000000" font-family="sans-serif" font-size="11" lengthAdjust="spacingAndGlyphs" textLength="133" x="410" y="78.8198">-String dataNascimento</text><!--MD5=[55a49fe1500ca3a9afacd5256121ad4e]
class Escritura--><rect codeLine="16" fill="#FEFECE" filter="url(#fsuu3aj8fuuns)" height="65.6094" id="Escritura" style="stroke:#A80036;stroke-width:1.5;" width="86" x="703" y="66"/><ellipse cx="718.9" cy="82" fill="#ADD1B2" rx="11" ry="11" style="stroke:#A80036;stroke-width:1.0;"/><path d="M721.2438,77.6719 C720.3063,77.2344 719.7125,77.0938 718.8375,77.0938 C716.2125,77.0938 714.2125,79.1719 714.2125,81.8906 L714.2125,83.0156 C714.2125,85.5938 716.3219,87.4844 719.2125,87.4844 C720.4313,87.4844 721.5875,87.1875 722.3375,86.6406 C722.9156,86.2344 723.2438,85.7813 723.2438,85.3906 C723.2438,84.9375 722.8531,84.5469 722.3844,84.5469 C722.1656,84.5469 721.9625,84.625 721.775,84.8125 C721.3219,85.2969 721.3219,85.2969 721.1344,85.3906 C720.7125,85.6563 720.025,85.7813 719.2594,85.7813 C717.2125,85.7813 715.9156,84.6875 715.9156,82.9844 L715.9156,81.8906 C715.9156,80.1094 717.1656,78.7969 718.9,78.7969 C719.4781,78.7969 720.0875,78.9531 720.5563,79.2031 C721.0406,79.4844 721.2125,79.7031 721.3063,80.1094 C721.3688,80.5156 721.4,80.6406 721.5406,80.7656 C721.6813,80.9063 721.9156,81.0156 722.1344,81.0156 C722.4,81.0156 722.6656,80.875 722.8375,80.6563 C722.9469,80.5 722.9781,80.3125 722.9781,79.8906 L722.9781,78.4688 C722.9781,78.0313 722.9625,77.9063 722.8688,77.75 C722.7125,77.4844 722.4313,77.3438 722.1344,77.3438 C721.8375,77.3438 721.6344,77.4375 721.4156,77.75 L721.2438,77.6719 Z " fill="#000000"/><text fill="#000000" font-family="sans-serif" font-size="12" lengthAdjust="spacingAndGlyphs" textLength="52" x="733.1" y="86.1543">Escritura</text><line style="stroke:#A80036;stroke-width:1.5;" x1="704" x2="788" y1="98" y2="98"/><text fill="#000000" font-family="sans-serif" font-size="11" lengthAdjust="spacingAndGlyphs" textLength="74" x="709" y="112.2104">-Integer num</text><text fill="#000000" font-family="sans-serif" font-size="11" lengthAdjust="spacingAndGlyphs" textLength="66" x="709" y="125.0151">-String data</text><!--MD5=[25ba56bf876b0b5138fdedf7889220de]
class Freguesia--><rect codeLine="21" fill="#FEFECE" filter="url(#fsuu3aj8fuuns)" height="52.8047" id="Freguesia" style="stroke:#A80036;stroke-width:1.5;" width="92" x="211" y="116.5"/><ellipse cx="226" cy="132.5" fill="#ADD1B2" rx="11" ry="11" style="stroke:#A80036;stroke-width:1.0;"/><path d="M228.3438,128.1719 C227.4063,127.7344 226.8125,127.5938 225.9375,127.5938 C223.3125,127.5938 221.3125,129.6719 221.3125,132.3906 L221.3125,133.5156 C221.3125,136.0938 223.4219,137.9844 226.3125,137.9844 C227.5313,137.9844 228.6875,137.6875 229.4375,137.1406 C230.0156,136.7344 230.3438,136.2813 230.3438,135.8906 C230.3438,135.4375 229.9531,135.0469 229.4844,135.0469 C229.2656,135.0469 229.0625,135.125 228.875,135.3125 C228.4219,135.7969 228.4219,135.7969 228.2344,135.8906 C227.8125,136.1563 227.125,136.2813 226.3594,136.2813 C224.3125,136.2813 223.0156,135.1875 223.0156,133.4844 L223.0156,132.3906 C223.0156,130.6094 224.2656,129.2969 226,129.2969 C226.5781,129.2969 227.1875,129.4531 227.6563,129.7031 C228.1406,129.9844 228.3125,130.2031 228.4063,130.6094 C228.4688,131.0156 228.5,131.1406 228.6406,131.2656 C228.7813,131.4063 229.0156,131.5156 229.2344,131.5156 C229.5,131.5156 229.7656,131.375 229.9375,131.1563 C230.0469,131 230.0781,130.8125 230.0781,130.3906 L230.0781,128.9688 C230.0781,128.5313 230.0625,128.4063 229.9688,128.25 C229.8125,127.9844 229.5313,127.8438 229.2344,127.8438 C228.9375,127.8438 228.7344,127.9375 228.5156,128.25 L228.3438,128.1719 Z " fill="#000000"/><text fill="#000000" font-family="sans-serif" font-size="12" lengthAdjust="spacingAndGlyphs" textLength="60" x="240" y="136.6543">Freguesia</text><line style="stroke:#A80036;stroke-width:1.5;" x1="212" x2="302" y1="148.5" y2="148.5"/><text fill="#000000" font-family="sans-serif" font-size="11" lengthAdjust="spacingAndGlyphs" textLength="74" x="217" y="162.7104">-String nome</text><!--MD5=[26905466b2de2c704432800e111a1f71]
class Terreno--><rect codeLine="25" fill="#FEFECE" filter="url(#fsuu3aj8fuuns)" height="91.2188" id="Terreno" style="stroke:#A80036;stroke-width:1.5;" width="113" x="420" y="120.5"/><ellipse cx="449.85" cy="136.5" fill="#ADD1B2" rx="11" ry="11" style="stroke:#A80036;stroke-width:1.0;"/><path d="M452.1938,132.1719 C451.2563,131.7344 450.6625,131.5938 449.7875,131.5938 C447.1625,131.5938 445.1625,133.6719 445.1625,136.3906 L445.1625,137.5156 C445.1625,140.0938 447.2719,141.9844 450.1625,141.9844 C451.3813,141.9844 452.5375,141.6875 453.2875,141.1406 C453.8656,140.7344 454.1938,140.2813 454.1938,139.8906 C454.1938,139.4375 453.8031,139.0469 453.3344,139.0469 C453.1156,139.0469 452.9125,139.125 452.725,139.3125 C452.2719,139.7969 452.2719,139.7969 452.0844,139.8906 C451.6625,140.1563 450.975,140.2813 450.2094,140.2813 C448.1625,140.2813 446.8656,139.1875 446.8656,137.4844 L446.8656,136.3906 C446.8656,134.6094 448.1156,133.2969 449.85,133.2969 C450.4281,133.2969 451.0375,133.4531 451.5063,133.7031 C451.9906,133.9844 452.1625,134.2031 452.2563,134.6094 C452.3188,135.0156 452.35,135.1406 452.4906,135.2656 C452.6313,135.4063 452.8656,135.5156 453.0844,135.5156 C453.35,135.5156 453.6156,135.375 453.7875,135.1563 C453.8969,135 453.9281,134.8125 453.9281,134.3906 L453.9281,132.9688 C453.9281,132.5313 453.9125,132.4063 453.8188,132.25 C453.6625,131.9844 453.3813,131.8438 453.0844,131.8438 C452.7875,131.8438 452.5844,131.9375 452.3656,132.25 L452.1938,132.1719 Z " fill="#000000"/><text fill="#000000" font-family="sans-serif" font-size="12" lengthAdjust="spacingAndGlyphs" textLength="48" x="467.15" y="140.6543">Terreno</text><line style="stroke:#A80036;stroke-width:1.5;" x1="421" x2="532" y1="152.5" y2="152.5"/><text fill="#000000" font-family="sans-serif" font-size="11" lengthAdjust="spacingAndGlyphs" textLength="59" x="426" y="166.7104">-Integer id</text><text fill="#000000" font-family="sans-serif" font-size="11" lengthAdjust="spacingAndGlyphs" textLength="101" x="426" y="179.5151">-String indiceCont</text><text fill="#000000" font-family="sans-serif" font-size="11" lengthAdjust="spacingAndGlyphs" textLength="75" x="426" y="192.3198">-Double area</text><text fill="#000000" font-family="sans-serif" font-size="11" lengthAdjust="spacingAndGlyphs" textLength="66" x="426" y="205.1245">-Double imi</text><!--MD5=[e8772d8d63e33a37d8668d3122b6c8d5]
link Autarquia to Freguesia--><path codeLine="32" d="M95.2632,93.361 C129.181,103.835 176.243,118.3692 210.678,129.0036 " fill="none" id="Autarquia-Freguesia" style="stroke:#A80036;stroke-width:1.0;"/><polygon fill="#000000" points="134.7774,97.0418,127.0022,91.5647,125.2678,97.1809,134.7774,97.0418" style="stroke:#000000;stroke-width:1.0;"/><text fill="#000000" font-family="sans-serif" font-size="13" lengthAdjust="spacingAndGlyphs" textLength="41" x="139" y="100.0669">possui</text><text fill="#000000" font-family="sans-serif" font-size="13" lengthAdjust="spacingAndGlyphs" textLength="8" x="102.9551" y="108.7788">1</text><text fill="#000000" font-family="sans-serif" font-size="13" lengthAdjust="spacingAndGlyphs" textLength="27" x="176.0133" y="140.2592">1...*</text><!--MD5=[9d1f79f015101a430f970ca1fac3815a]
link Autarquia to Pessoa--><path codeLine="33" d="M95.3317,76.521 C168.062,70.682 315.39,58.854 403.761,51.759 " fill="none" id="Autarquia-Pessoa" style="stroke:#A80036;stroke-width:1.0;"/><polygon fill="#000000" points="246.484,51.1663,237.2327,48.9606,237.7031,54.8196,246.484,51.1663" style="stroke:#000000;stroke-width:1.0;"/><text fill="#000000" font-family="sans-serif" font-size="13" lengthAdjust="spacingAndGlyphs" textLength="26" x="250.5" y="56.0669">tem</text><text fill="#000000" font-family="sans-serif" font-size="13" lengthAdjust="spacingAndGlyphs" textLength="8" x="103.0346" y="89.2549">1</text><text fill="#000000" font-family="sans-serif" font-size="13" lengthAdjust="spacingAndGlyphs" textLength="27" x="369.0803" y="64.9942">1...*</text><!--MD5=[47051fed48d110500a8c7a9c799d5112]
link Pessoa to Escritura--><path codeLine="35" d="M549.185,60.203 C598.244,69.923 661.617,82.479 702.773,90.634 " fill="none" id="Pessoa-Escritura" style="stroke:#A80036;stroke-width:1.0;"/><polygon fill="#000000" points="615.4047,58.5382,607.1032,53.8973,605.9609,59.6631,615.4047,58.5382" style="stroke:#000000;stroke-width:1.0;"/><text fill="#000000" font-family="sans-serif" font-size="13" lengthAdjust="spacingAndGlyphs" textLength="26" x="619.5" y="62.0669">tem</text><text fill="#000000" font-family="sans-serif" font-size="13" lengthAdjust="spacingAndGlyphs" textLength="27" x="557.1302" y="74.2577">1...*</text><text fill="#000000" font-family="sans-serif" font-size="13" lengthAdjust="spacingAndGlyphs" textLength="27" x="668.1503" y="102.6197">0...*</text><!--MD5=[fe58f711169fdf6c6f3bd7925b9573f1]
link Freguesia to Terreno--><path codeLine="37" d="M303.194,148.5826 C313.016,149.7513 323.353,150.9474 333,152 C361.666,155.1277 393.612,158.2955 419.979,160.8248 " fill="none" id="Freguesia-Terreno" style="stroke:#A80036;stroke-width:1.0;"/><polygon fill="#000000" points="342.9728,144.0877,334.2834,140.2218,333.6706,146.0676,342.9728,144.0877" style="stroke:#000000;stroke-width:1.0;"/><text fill="#000000" font-family="sans-serif" font-size="13" lengthAdjust="spacingAndGlyphs" textLength="26" x="347" y="148.0669">tem</text><text fill="#000000" font-family="sans-serif" font-size="13" lengthAdjust="spacingAndGlyphs" textLength="8" x="310.88" y="162.6779">1</text><text fill="#000000" font-family="sans-serif" font-size="13" lengthAdjust="spacingAndGlyphs" textLength="27" x="384.8828" y="173.1555">1...*</text><!--MD5=[6571597d05da3f90679511d771047437]
link Freguesia to Pessoa--><path codeLine="38" d="M303.066,122.9015 C332.182,109.916 370.702,92.737 403.948,77.91 " fill="none" id="Freguesia-Pessoa" style="stroke:#A80036;stroke-width:1.0;stroke-dasharray:7.0,7.0;"/><polygon fill="#000000" points="342.5664,80.5299,333.1086,81.5299,335.5027,86.8981,342.5664,80.5299" style="stroke:#000000;stroke-width:1.0;"/><text fill="#000000" font-family="sans-serif" font-size="13" lengthAdjust="spacingAndGlyphs" textLength="26" x="347" y="87.0669">tem</text><text fill="#000000" font-family="sans-serif" font-size="13" lengthAdjust="spacingAndGlyphs" textLength="8" x="311.0453" y="132.9867">1</text><text fill="#000000" font-family="sans-serif" font-size="13" lengthAdjust="spacingAndGlyphs" textLength="27" x="369.0151" y="93.597">1...*</text><!--MD5=[d1c4e62a2a52de7ff48c70b94e540036]
link Terreno to Escritura--><path codeLine="39" d="M533.251,152.0362 C583.78,139.3803 657.139,121.0063 702.908,109.543 " fill="none" id="Terreno-Escritura" style="stroke:#A80036;stroke-width:1.0;"/><polygon fill="#000000" points="588.8502,108.3516,579.3621,107.6983,580.7902,113.4001,588.8502,108.3516" style="stroke:#000000;stroke-width:1.0;"/><text fill="#000000" font-family="sans-serif" font-size="13" lengthAdjust="spacingAndGlyphs" textLength="79" x="593" y="114.0669">está contido</text><text fill="#000000" font-family="sans-serif" font-size="13" lengthAdjust="spacingAndGlyphs" textLength="8" x="541.0347" y="163.2694">1</text><text fill="#000000" font-family="sans-serif" font-size="13" lengthAdjust="spacingAndGlyphs" textLength="8" x="687.1084" y="124.6416">1</text><!--MD5=[c78381e9b36e0470d1de0bdb790472a5]
@startuml
skinparam classAttributeIconSize 0
hide methods
left to right direction

class Autarquia {
  -String nome
}

class Pessoa {
  -String nome	
  -String nif
  -String dataNascimento

}

class Escritura {
  -Integer num
  -String data
}

class Freguesia {
  -String nome
}

class Terreno {
  -Integer id
  -String indiceCont
  -Double area
  -Double imi
}

Autarquia "1" - - "1...*" Freguesia : possui >
Autarquia "1" - - "1...*" Pessoa : tem >

Pessoa "1...*" - - "0...*" Escritura : tem  >

Freguesia "1" - - "1...*" Terreno : tem >
Freguesia "1" .. "1...*" Pessoa : tem >
Terreno "1" - - "1" Escritura : está contido >
@enduml

PlantUML version 1.2020.21beta7(Unknown compile time)
(GPL source distribution)
Java Runtime: Java(TM) SE Runtime Environment
JVM: Java HotSpot(TM) 64-Bit Server VM
Default Encoding: UTF-8
Language: en
Country: US
--></g></svg>