<?xml version="1.0" encoding="UTF-8" standalone="no"?><svg xmlns="http://www.w3.org/2000/svg" xmlns:xlink="http://www.w3.org/1999/xlink" contentScriptType="application/ecmascript" contentStyleType="text/css" height="1307px" preserveAspectRatio="none" style="width:412px;height:1307px;" version="1.1" viewBox="0 0 412 1307" width="412px" zoomAndPan="magnify"><defs><filter height="300%" id="f6fz7m0mteh3j" width="300%" x="-1" y="-1"><feGaussianBlur result="blurOut" stdDeviation="2.0"/><feColorMatrix in="blurOut" result="blurOut2" type="matrix" values="0 0 0 0 0 0 0 0 0 0 0 0 0 0 0 0 0 0 .4 0"/><feOffset dx="4.0" dy="4.0" in="blurOut2" result="blurOut3"/><feBlend in="SourceGraphic" in2="blurOut3" mode="normal"/></filter></defs><g><!--MD5=[b8b6ee908b7faff6fecf4288f82e2ead]
class Autarquia--><rect codeLine="1" fill="#FEFECE" filter="url(#f6fz7m0mteh3j)" height="752.2578" id="Autarquia" style="stroke:#A80036;stroke-width:1.5;" width="391" x="7" y="7"/><ellipse cx="170.25" cy="23" fill="#ADD1B2" rx="11" ry="11" style="stroke:#A80036;stroke-width:1.0;"/><path d="M172.5938,18.6719 C171.6563,18.2344 171.0625,18.0938 170.1875,18.0938 C167.5625,18.0938 165.5625,20.1719 165.5625,22.8906 L165.5625,24.0156 C165.5625,26.5938 167.6719,28.4844 170.5625,28.4844 C171.7813,28.4844 172.9375,28.1875 173.6875,27.6406 C174.2656,27.2344 174.5938,26.7813 174.5938,26.3906 C174.5938,25.9375 174.2031,25.5469 173.7344,25.5469 C173.5156,25.5469 173.3125,25.625 173.125,25.8125 C172.6719,26.2969 172.6719,26.2969 172.4844,26.3906 C172.0625,26.6563 171.375,26.7813 170.6094,26.7813 C168.5625,26.7813 167.2656,25.6875 167.2656,23.9844 L167.2656,22.8906 C167.2656,21.1094 168.5156,19.7969 170.25,19.7969 C170.8281,19.7969 171.4375,19.9531 171.9063,20.2031 C172.3906,20.4844 172.5625,20.7031 172.6563,21.1094 C172.7188,21.5156 172.75,21.6406 172.8906,21.7656 C173.0313,21.9063 173.2656,22.0156 173.4844,22.0156 C173.75,22.0156 174.0156,21.875 174.1875,21.6563 C174.2969,21.5 174.3281,21.3125 174.3281,20.8906 L174.3281,19.4688 C174.3281,19.0313 174.3125,18.9063 174.2188,18.75 C174.0625,18.4844 173.7813,18.3438 173.4844,18.3438 C173.1875,18.3438 172.9844,18.4375 172.7656,18.75 L172.5938,18.6719 Z " fill="#000000"/><text fill="#000000" font-family="sans-serif" font-size="12" lengthAdjust="spacingAndGlyphs" textLength="56" x="190.75" y="27.1543">Autarquia</text><line style="stroke:#A80036;stroke-width:1.5;" x1="8" x2="397" y1="39" y2="39"/><rect fill="none" height="6" style="stroke:#C82930;stroke-width:1.0;" width="6" x="15" y="47"/><text fill="#000000" font-family="sans-serif" font-size="11" lengthAdjust="spacingAndGlyphs" textLength="70" x="27" y="53.2104">String nome</text><rect fill="none" height="6" style="stroke:#C82930;stroke-width:1.0;" width="6" x="15" y="59.8047"/><text fill="#000000" font-family="sans-serif" font-size="11" lengthAdjust="spacingAndGlyphs" textLength="75" x="27" y="66.0151">Int valorBase</text><rect fill="none" height="6" style="stroke:#C82930;stroke-width:1.0;" width="6" x="15" y="72.6094"/><text fill="#000000" font-family="sans-serif" font-size="11" lengthAdjust="spacingAndGlyphs" textLength="83" x="27" y="78.8198">List pessoaList</text><rect fill="none" height="6" style="stroke:#C82930;stroke-width:1.0;" width="6" x="15" y="85.4141"/><text fill="#000000" font-family="sans-serif" font-size="11" lengthAdjust="spacingAndGlyphs" textLength="96" x="27" y="91.6245">List freguesiaList</text><rect fill="none" height="6" style="stroke:#C82930;stroke-width:1.0;" width="6" x="15" y="98.2188"/><text fill="#000000" font-family="sans-serif" font-size="11" lengthAdjust="spacingAndGlyphs" textLength="91" x="27" y="104.4292">List escrituraList</text><ellipse cx="18" cy="114.0234" fill="none" rx="3" ry="3" style="stroke:#038048;stroke-width:1.0;"/><text fill="#000000" font-family="sans-serif" font-size="11" lengthAdjust="spacingAndGlyphs" textLength="82" x="27" y="117.2339">Valorbase : int</text><ellipse cx="18" cy="126.8281" fill="none" rx="3" ry="3" style="stroke:#038048;stroke-width:1.0;"/><text fill="#000000" font-family="sans-serif" font-size="11" lengthAdjust="spacingAndGlyphs" textLength="179" x="27" y="130.0386">FreguesiaList : List&lt;Freguesia&gt;</text><ellipse cx="18" cy="139.6328" fill="none" rx="3" ry="3" style="stroke:#038048;stroke-width:1.0;"/><text fill="#000000" font-family="sans-serif" font-size="11" lengthAdjust="spacingAndGlyphs" textLength="147" x="27" y="142.8433">PessoaList : List&lt;Pessoa&gt;</text><ellipse cx="18" cy="152.4375" fill="none" rx="3" ry="3" style="stroke:#038048;stroke-width:1.0;"/><text fill="#000000" font-family="sans-serif" font-size="11" lengthAdjust="spacingAndGlyphs" textLength="163" x="27" y="155.6479">EscrituraList : List&lt;Escritura&gt;</text><ellipse cx="18" cy="165.2422" fill="none" rx="3" ry="3" style="stroke:#038048;stroke-width:1.0;"/><text fill="#000000" font-family="sans-serif" font-size="11" lengthAdjust="spacingAndGlyphs" textLength="76" x="27" y="168.4526">Nome : string</text><line style="stroke:#A80036;stroke-width:1.5;" x1="8" x2="397" y1="175.0469" y2="175.0469"/><ellipse cx="18" cy="186.0469" fill="#84BE84" rx="3" ry="3" style="stroke:#038048;stroke-width:1.0;"/><text fill="#000000" font-family="sans-serif" font-size="11" lengthAdjust="spacingAndGlyphs" textLength="114" x="27" y="189.2573">Autarquia(string, int)</text><ellipse cx="18" cy="198.8516" fill="#84BE84" rx="3" ry="3" style="stroke:#038048;stroke-width:1.0;"/><text fill="#000000" font-family="sans-serif" font-size="11" lengthAdjust="spacingAndGlyphs" textLength="62" x="27" y="202.062">Autarquia()</text><ellipse cx="18" cy="211.6563" fill="#84BE84" rx="3" ry="3" style="stroke:#038048;stroke-width:1.0;"/><text fill="#000000" font-family="sans-serif" font-size="11" lengthAdjust="spacingAndGlyphs" textLength="112" x="27" y="214.8667">Valorbase.get() : int</text><ellipse cx="18" cy="224.4609" fill="#84BE84" rx="3" ry="3" style="stroke:#038048;stroke-width:1.0;"/><text fill="#000000" font-family="sans-serif" font-size="11" lengthAdjust="spacingAndGlyphs" textLength="135" x="27" y="227.6714">Valorbase.set(int) : void</text><ellipse cx="18" cy="237.2656" fill="#84BE84" rx="3" ry="3" style="stroke:#038048;stroke-width:1.0;"/><text fill="#000000" font-family="sans-serif" font-size="11" lengthAdjust="spacingAndGlyphs" textLength="209" x="27" y="240.4761">FreguesiaList.get() : List&lt;Freguesia&gt;</text><ellipse cx="18" cy="250.0703" fill="#84BE84" rx="3" ry="3" style="stroke:#038048;stroke-width:1.0;"/><text fill="#000000" font-family="sans-serif" font-size="11" lengthAdjust="spacingAndGlyphs" textLength="232" x="27" y="253.2808">FreguesiaList.set(List&lt;Freguesia&gt;) : void</text><ellipse cx="18" cy="262.875" fill="#84BE84" rx="3" ry="3" style="stroke:#038048;stroke-width:1.0;"/><text fill="#000000" font-family="sans-serif" font-size="11" lengthAdjust="spacingAndGlyphs" textLength="177" x="27" y="266.0854">PessoaList.get() : List&lt;Pessoa&gt;</text><ellipse cx="18" cy="275.6797" fill="#84BE84" rx="3" ry="3" style="stroke:#038048;stroke-width:1.0;"/><text fill="#000000" font-family="sans-serif" font-size="11" lengthAdjust="spacingAndGlyphs" textLength="200" x="27" y="278.8901">PessoaList.set(List&lt;Pessoa&gt;) : void</text><ellipse cx="18" cy="288.4844" fill="#84BE84" rx="3" ry="3" style="stroke:#038048;stroke-width:1.0;"/><text fill="#000000" font-family="sans-serif" font-size="11" lengthAdjust="spacingAndGlyphs" textLength="193" x="27" y="291.6948">EscrituraList.get() : List&lt;Escritura&gt;</text><ellipse cx="18" cy="301.2891" fill="#84BE84" rx="3" ry="3" style="stroke:#038048;stroke-width:1.0;"/><text fill="#000000" font-family="sans-serif" font-size="11" lengthAdjust="spacingAndGlyphs" textLength="216" x="27" y="304.4995">EscrituraList.set(List&lt;Escritura&gt;) : void</text><ellipse cx="18" cy="314.0938" fill="#84BE84" rx="3" ry="3" style="stroke:#038048;stroke-width:1.0;"/><text fill="#000000" font-family="sans-serif" font-size="11" lengthAdjust="spacingAndGlyphs" textLength="106" x="27" y="317.3042">Nome.get() : string</text><ellipse cx="18" cy="326.8984" fill="#84BE84" rx="3" ry="3" style="stroke:#038048;stroke-width:1.0;"/><text fill="#000000" font-family="sans-serif" font-size="11" lengthAdjust="spacingAndGlyphs" textLength="129" x="27" y="330.1089">Nome.set(string) : void</text><ellipse cx="18" cy="339.7031" fill="#84BE84" rx="3" ry="3" style="stroke:#038048;stroke-width:1.0;"/><text fill="#000000" font-family="sans-serif" font-size="11" lengthAdjust="spacingAndGlyphs" textLength="181" x="27" y="342.9136">GetPessoaByNif(string) : Pessoa</text><ellipse cx="18" cy="352.5078" fill="#84BE84" rx="3" ry="3" style="stroke:#038048;stroke-width:1.0;"/><text fill="#000000" font-family="sans-serif" font-size="11" lengthAdjust="spacingAndGlyphs" textLength="169" x="27" y="355.7183">RegistarPessoa(Pessoa) : void</text><ellipse cx="18" cy="365.3125" fill="#84BE84" rx="3" ry="3" style="stroke:#038048;stroke-width:1.0;"/><text fill="#000000" font-family="sans-serif" font-size="11" lengthAdjust="spacingAndGlyphs" textLength="184" x="27" y="368.5229">PesquisarPessoa(string) : Pessoa</text><ellipse cx="18" cy="378.1172" fill="#84BE84" rx="3" ry="3" style="stroke:#038048;stroke-width:1.0;"/><text fill="#000000" font-family="sans-serif" font-size="11" lengthAdjust="spacingAndGlyphs" textLength="208" x="27" y="381.3276">ObterTodasPessoas() : List&lt;Pessoa&gt;</text><ellipse cx="18" cy="390.9219" fill="#84BE84" rx="3" ry="3" style="stroke:#038048;stroke-width:1.0;"/><text fill="#000000" font-family="sans-serif" font-size="11" lengthAdjust="spacingAndGlyphs" textLength="177" x="27" y="394.1323">AlterarPessoa(Pessoa) : Pessoa</text><ellipse cx="18" cy="403.7266" fill="#84BE84" rx="3" ry="3" style="stroke:#038048;stroke-width:1.0;"/><text fill="#000000" font-family="sans-serif" font-size="11" lengthAdjust="spacingAndGlyphs" textLength="175" x="27" y="406.937">EliminarPessoa(string) : Pessoa</text><ellipse cx="18" cy="416.5313" fill="#84BE84" rx="3" ry="3" style="stroke:#038048;stroke-width:1.0;"/><text fill="#000000" font-family="sans-serif" font-size="11" lengthAdjust="spacingAndGlyphs" textLength="125" x="27" y="419.7417">CriarPessoa() : Pessoa</text><ellipse cx="18" cy="429.3359" fill="#84BE84" rx="3" ry="3" style="stroke:#038048;stroke-width:1.0;"/><text fill="#000000" font-family="sans-serif" font-size="11" lengthAdjust="spacingAndGlyphs" textLength="232" x="27" y="432.5464">GetFreguesiaByNome(string) : Freguesia</text><ellipse cx="18" cy="442.1406" fill="#84BE84" rx="3" ry="3" style="stroke:#038048;stroke-width:1.0;"/><text fill="#000000" font-family="sans-serif" font-size="11" lengthAdjust="spacingAndGlyphs" textLength="157" x="27" y="445.3511">CriarFreguesia() : Freguesia</text><ellipse cx="18" cy="454.9453" fill="#84BE84" rx="3" ry="3" style="stroke:#038048;stroke-width:1.0;"/><text fill="#000000" font-family="sans-serif" font-size="11" lengthAdjust="spacingAndGlyphs" textLength="201" x="27" y="458.1558">RegistarFreguesia(Freguesia) : void</text><ellipse cx="18" cy="467.75" fill="#84BE84" rx="3" ry="3" style="stroke:#038048;stroke-width:1.0;"/><text fill="#000000" font-family="sans-serif" font-size="11" lengthAdjust="spacingAndGlyphs" textLength="216" x="27" y="470.9604">PesquisarFreguesia(string) : Freguesia</text><ellipse cx="18" cy="480.5547" fill="#84BE84" rx="3" ry="3" style="stroke:#038048;stroke-width:1.0;"/><text fill="#000000" font-family="sans-serif" font-size="11" lengthAdjust="spacingAndGlyphs" textLength="240" x="27" y="483.7651">ObterTodasFreguesias() : List&lt;Freguesia&gt;</text><ellipse cx="18" cy="493.3594" fill="#84BE84" rx="3" ry="3" style="stroke:#038048;stroke-width:1.0;"/><text fill="#000000" font-family="sans-serif" font-size="11" lengthAdjust="spacingAndGlyphs" textLength="231" x="27" y="496.5698">AlterarFreguesia(Freguesia, string) : void</text><ellipse cx="18" cy="506.1641" fill="#84BE84" rx="3" ry="3" style="stroke:#038048;stroke-width:1.0;"/><text fill="#000000" font-family="sans-serif" font-size="11" lengthAdjust="spacingAndGlyphs" textLength="207" x="27" y="509.3745">EliminarFreguesia(string) : Freguesia</text><ellipse cx="18" cy="518.9688" fill="#84BE84" rx="3" ry="3" style="stroke:#038048;stroke-width:1.0;"/><text fill="#000000" font-family="sans-serif" font-size="11" lengthAdjust="spacingAndGlyphs" textLength="226" x="27" y="522.1792">GetFuncionarioByNr(string) : Funcionario</text><ellipse cx="18" cy="531.7734" fill="#84BE84" rx="3" ry="3" style="stroke:#038048;stroke-width:1.0;"/><text fill="#000000" font-family="sans-serif" font-size="11" lengthAdjust="spacingAndGlyphs" textLength="217" x="27" y="534.9839">RegistarFuncionario(Funcionario) : void</text><ellipse cx="18" cy="544.5781" fill="#84BE84" rx="3" ry="3" style="stroke:#038048;stroke-width:1.0;"/><text fill="#000000" font-family="sans-serif" font-size="11" lengthAdjust="spacingAndGlyphs" textLength="232" x="27" y="547.7886">PesquisarFuncionario(string) : Funcionario</text><ellipse cx="18" cy="557.3828" fill="#84BE84" rx="3" ry="3" style="stroke:#038048;stroke-width:1.0;"/><text fill="#000000" font-family="sans-serif" font-size="11" lengthAdjust="spacingAndGlyphs" textLength="256" x="27" y="560.5933">ObterTodosFuncionarios() : List&lt;Funcionario&gt;</text><ellipse cx="18" cy="570.1875" fill="#84BE84" rx="3" ry="3" style="stroke:#038048;stroke-width:1.0;"/><text fill="#000000" font-family="sans-serif" font-size="11" lengthAdjust="spacingAndGlyphs" textLength="223" x="27" y="573.3979">EliminarFuncionario(string) : Funcionario</text><ellipse cx="18" cy="582.9922" fill="#84BE84" rx="3" ry="3" style="stroke:#038048;stroke-width:1.0;"/><text fill="#000000" font-family="sans-serif" font-size="11" lengthAdjust="spacingAndGlyphs" textLength="191" x="27" y="586.2026">GetEscrituraByNum(int) : Escritura</text><ellipse cx="18" cy="595.7969" fill="#84BE84" rx="3" ry="3" style="stroke:#038048;stroke-width:1.0;"/><text fill="#000000" font-family="sans-serif" font-size="11" lengthAdjust="spacingAndGlyphs" textLength="185" x="27" y="599.0073">RegistarEscritura(Escritura) : void</text><ellipse cx="18" cy="608.6016" fill="#84BE84" rx="3" ry="3" style="stroke:#038048;stroke-width:1.0;"/><text fill="#000000" font-family="sans-serif" font-size="11" lengthAdjust="spacingAndGlyphs" textLength="183" x="27" y="611.812">PesquisarEscritura(int) : Escritura</text><ellipse cx="18" cy="621.4063" fill="#84BE84" rx="3" ry="3" style="stroke:#038048;stroke-width:1.0;"/><text fill="#000000" font-family="sans-serif" font-size="11" lengthAdjust="spacingAndGlyphs" textLength="224" x="27" y="624.6167">ObterTodasEscrituras() : List&lt;Escritura&gt;</text><ellipse cx="18" cy="634.2109" fill="#84BE84" rx="3" ry="3" style="stroke:#038048;stroke-width:1.0;"/><text fill="#000000" font-family="sans-serif" font-size="11" lengthAdjust="spacingAndGlyphs" textLength="174" x="27" y="637.4214">EliminarEscritura(int) : Escritura</text><ellipse cx="18" cy="647.0156" fill="#84BE84" rx="3" ry="3" style="stroke:#038048;stroke-width:1.0;"/><text fill="#000000" font-family="sans-serif" font-size="11" lengthAdjust="spacingAndGlyphs" textLength="342" x="27" y="650.2261">MostrarPessoasDeterminadaData(DateTime) : List&lt;Pessoa&gt;</text><ellipse cx="18" cy="659.8203" fill="#84BE84" rx="3" ry="3" style="stroke:#038048;stroke-width:1.0;"/><text fill="#000000" font-family="sans-serif" font-size="11" lengthAdjust="spacingAndGlyphs" textLength="275" x="27" y="663.0308">MostrarTop5PessoasMaisVelhas() : List&lt;Pessoa&gt;</text><ellipse cx="18" cy="672.625" fill="#84BE84" rx="3" ry="3" style="stroke:#038048;stroke-width:1.0;"/><text fill="#000000" font-family="sans-serif" font-size="11" lengthAdjust="spacingAndGlyphs" textLength="208" x="27" y="675.8354">MostrarAreaTotalAutarquia() : double</text><ellipse cx="18" cy="685.4297" fill="#84BE84" rx="3" ry="3" style="stroke:#038048;stroke-width:1.0;"/><text fill="#000000" font-family="sans-serif" font-size="11" lengthAdjust="spacingAndGlyphs" textLength="284" x="27" y="688.6401">MostrarPercentagemAreaRuralAutarquia() : double</text><ellipse cx="18" cy="698.2344" fill="#84BE84" rx="3" ry="3" style="stroke:#038048;stroke-width:1.0;"/><text fill="#000000" font-family="sans-serif" font-size="11" lengthAdjust="spacingAndGlyphs" textLength="309" x="27" y="701.4448">MostrarAreaPredominanteFreguesia(Freguesia) : string</text><ellipse cx="18" cy="711.0391" fill="#84BE84" rx="3" ry="3" style="stroke:#038048;stroke-width:1.0;"/><text fill="#000000" font-family="sans-serif" font-size="11" lengthAdjust="spacingAndGlyphs" textLength="228" x="27" y="714.2495">MostrarTopProprietarios() : List&lt;Pessoa&gt;</text><ellipse cx="18" cy="723.8438" fill="#84BE84" rx="3" ry="3" style="stroke:#038048;stroke-width:1.0;"/><text fill="#000000" font-family="sans-serif" font-size="11" lengthAdjust="spacingAndGlyphs" textLength="223" x="27" y="727.0542">CalcContriAutarquia() : List&lt;Freguesia&gt;</text><ellipse cx="18" cy="736.6484" fill="#84BE84" rx="3" ry="3" style="stroke:#038048;stroke-width:1.0;"/><text fill="#000000" font-family="sans-serif" font-size="11" lengthAdjust="spacingAndGlyphs" textLength="365" x="27" y="739.8589">MostrarListaTerrenosInspecao(DateTime, string) : List&lt;Terreno&gt;</text><ellipse cx="18" cy="749.4531" fill="#84BE84" rx="3" ry="3" style="stroke:#038048;stroke-width:1.0;"/><text fill="#000000" font-family="sans-serif" font-size="11" lengthAdjust="spacingAndGlyphs" textLength="273" x="27" y="752.6636">MostrarFreguesiasDimensao() : List&lt;Freguesia&gt;</text><!--MD5=[25ba56bf876b0b5138fdedf7889220de]
class Freguesia--><rect codeLine="60" fill="#FEFECE" filter="url(#f6fz7m0mteh3j)" height="457.75" id="Freguesia" style="stroke:#A80036;stroke-width:1.5;" width="244" x="80.5" y="836"/><ellipse cx="168.25" cy="852" fill="#ADD1B2" rx="11" ry="11" style="stroke:#A80036;stroke-width:1.0;"/><path d="M170.5938,847.6719 C169.6563,847.2344 169.0625,847.0938 168.1875,847.0938 C165.5625,847.0938 163.5625,849.1719 163.5625,851.8906 L163.5625,853.0156 C163.5625,855.5938 165.6719,857.4844 168.5625,857.4844 C169.7813,857.4844 170.9375,857.1875 171.6875,856.6406 C172.2656,856.2344 172.5938,855.7813 172.5938,855.3906 C172.5938,854.9375 172.2031,854.5469 171.7344,854.5469 C171.5156,854.5469 171.3125,854.625 171.125,854.8125 C170.6719,855.2969 170.6719,855.2969 170.4844,855.3906 C170.0625,855.6563 169.375,855.7813 168.6094,855.7813 C166.5625,855.7813 165.2656,854.6875 165.2656,852.9844 L165.2656,851.8906 C165.2656,850.1094 166.5156,848.7969 168.25,848.7969 C168.8281,848.7969 169.4375,848.9531 169.9063,849.2031 C170.3906,849.4844 170.5625,849.7031 170.6563,850.1094 C170.7188,850.5156 170.75,850.6406 170.8906,850.7656 C171.0313,850.9063 171.2656,851.0156 171.4844,851.0156 C171.75,851.0156 172.0156,850.875 172.1875,850.6563 C172.2969,850.5 172.3281,850.3125 172.3281,849.8906 L172.3281,848.4688 C172.3281,848.0313 172.3125,847.9063 172.2188,847.75 C172.0625,847.4844 171.7813,847.3438 171.4844,847.3438 C171.1875,847.3438 170.9844,847.4375 170.7656,847.75 L170.5938,847.6719 Z " fill="#000000"/><text fill="#000000" font-family="sans-serif" font-size="12" lengthAdjust="spacingAndGlyphs" textLength="60" x="188.75" y="856.1543">Freguesia</text><line style="stroke:#A80036;stroke-width:1.5;" x1="81.5" x2="323.5" y1="868" y2="868"/><rect fill="none" height="6" style="stroke:#C82930;stroke-width:1.0;" width="6" x="88.5" y="876"/><text fill="#000000" font-family="sans-serif" font-size="11" lengthAdjust="spacingAndGlyphs" textLength="70" x="100.5" y="882.2104">String nome</text><rect fill="none" height="6" style="stroke:#C82930;stroke-width:1.0;" width="6" x="88.5" y="888.8047"/><text fill="#000000" font-family="sans-serif" font-size="11" lengthAdjust="spacingAndGlyphs" textLength="84" x="100.5" y="895.0151">List terrenoList</text><rect fill="none" height="6" style="stroke:#C82930;stroke-width:1.0;" width="6" x="88.5" y="901.6094"/><text fill="#000000" font-family="sans-serif" font-size="11" lengthAdjust="spacingAndGlyphs" textLength="102" x="100.5" y="907.8198">Double contriAuto</text><ellipse cx="91.5" cy="917.4141" fill="none" rx="3" ry="3" style="stroke:#038048;stroke-width:1.0;"/><text fill="#000000" font-family="sans-serif" font-size="11" lengthAdjust="spacingAndGlyphs" textLength="157" x="100.5" y="920.6245">TerrenoList : List&lt;Terreno&gt;</text><ellipse cx="91.5" cy="930.2188" fill="none" rx="3" ry="3" style="stroke:#038048;stroke-width:1.0;"/><text fill="#000000" font-family="sans-serif" font-size="11" lengthAdjust="spacingAndGlyphs" textLength="127" x="100.5" y="933.4292">ContriAuttotal : double</text><ellipse cx="91.5" cy="943.0234" fill="none" rx="3" ry="3" style="stroke:#038048;stroke-width:1.0;"/><text fill="#000000" font-family="sans-serif" font-size="11" lengthAdjust="spacingAndGlyphs" textLength="136" x="100.5" y="946.2339">DimensaoTotal : double</text><ellipse cx="91.5" cy="955.8281" fill="none" rx="3" ry="3" style="stroke:#038048;stroke-width:1.0;"/><text fill="#000000" font-family="sans-serif" font-size="11" lengthAdjust="spacingAndGlyphs" textLength="109" x="100.5" y="959.0386">ContriAuto : double</text><line style="stroke:#A80036;stroke-width:1.5;" x1="81.5" x2="323.5" y1="965.6328" y2="965.6328"/><ellipse cx="91.5" cy="976.6328" fill="#84BE84" rx="3" ry="3" style="stroke:#038048;stroke-width:1.0;"/><text fill="#000000" font-family="sans-serif" font-size="11" lengthAdjust="spacingAndGlyphs" textLength="95" x="100.5" y="979.8433">Freguesia(string)</text><ellipse cx="91.5" cy="989.4375" fill="#84BE84" rx="3" ry="3" style="stroke:#038048;stroke-width:1.0;"/><text fill="#000000" font-family="sans-serif" font-size="11" lengthAdjust="spacingAndGlyphs" textLength="64" x="100.5" y="992.6479">Freguesia()</text><ellipse cx="91.5" cy="1002.2422" fill="#84BE84" rx="3" ry="3" style="stroke:#038048;stroke-width:1.0;"/><text fill="#000000" font-family="sans-serif" font-size="11" lengthAdjust="spacingAndGlyphs" textLength="97" x="100.5" y="1005.4526">ToString() : string</text><ellipse cx="91.5" cy="1015.0469" fill="#84BE84" rx="3" ry="3" style="stroke:#038048;stroke-width:1.0;"/><text fill="#000000" font-family="sans-serif" font-size="11" lengthAdjust="spacingAndGlyphs" textLength="187" x="100.5" y="1018.2573">TerrenoList.get() : List&lt;Terreno&gt;</text><ellipse cx="91.5" cy="1027.8516" fill="#84BE84" rx="3" ry="3" style="stroke:#038048;stroke-width:1.0;"/><text fill="#000000" font-family="sans-serif" font-size="11" lengthAdjust="spacingAndGlyphs" textLength="210" x="100.5" y="1031.062">TerrenoList.set(List&lt;Terreno&gt;) : void</text><ellipse cx="91.5" cy="1040.6563" fill="#84BE84" rx="3" ry="3" style="stroke:#038048;stroke-width:1.0;"/><text fill="#000000" font-family="sans-serif" font-size="11" lengthAdjust="spacingAndGlyphs" textLength="157" x="100.5" y="1043.8667">ContriAuttotal.get() : double</text><ellipse cx="91.5" cy="1053.4609" fill="#84BE84" rx="3" ry="3" style="stroke:#038048;stroke-width:1.0;"/><text fill="#000000" font-family="sans-serif" font-size="11" lengthAdjust="spacingAndGlyphs" textLength="180" x="100.5" y="1056.6714">ContriAuttotal.set(double) : void</text><ellipse cx="91.5" cy="1066.2656" fill="#84BE84" rx="3" ry="3" style="stroke:#038048;stroke-width:1.0;"/><text fill="#000000" font-family="sans-serif" font-size="11" lengthAdjust="spacingAndGlyphs" textLength="106" x="100.5" y="1069.4761">Nome.get() : string</text><ellipse cx="91.5" cy="1079.0703" fill="#84BE84" rx="3" ry="3" style="stroke:#038048;stroke-width:1.0;"/><text fill="#000000" font-family="sans-serif" font-size="11" lengthAdjust="spacingAndGlyphs" textLength="129" x="100.5" y="1082.2808">Nome.set(string) : void</text><ellipse cx="91.5" cy="1091.875" fill="#84BE84" rx="3" ry="3" style="stroke:#038048;stroke-width:1.0;"/><text fill="#000000" font-family="sans-serif" font-size="11" lengthAdjust="spacingAndGlyphs" textLength="166" x="100.5" y="1095.0854">DimensaoTotal.get() : double</text><ellipse cx="91.5" cy="1104.6797" fill="#84BE84" rx="3" ry="3" style="stroke:#038048;stroke-width:1.0;"/><text fill="#000000" font-family="sans-serif" font-size="11" lengthAdjust="spacingAndGlyphs" textLength="189" x="100.5" y="1107.8901">DimensaoTotal.set(double) : void</text><ellipse cx="91.5" cy="1117.4844" fill="#84BE84" rx="3" ry="3" style="stroke:#038048;stroke-width:1.0;"/><text fill="#000000" font-family="sans-serif" font-size="11" lengthAdjust="spacingAndGlyphs" textLength="139" x="100.5" y="1120.6948">ContriAuto.get() : double</text><ellipse cx="91.5" cy="1130.2891" fill="#84BE84" rx="3" ry="3" style="stroke:#038048;stroke-width:1.0;"/><text fill="#000000" font-family="sans-serif" font-size="11" lengthAdjust="spacingAndGlyphs" textLength="162" x="100.5" y="1133.4995">ContriAuto.set(double) : void</text><ellipse cx="91.5" cy="1143.0938" fill="#84BE84" rx="3" ry="3" style="stroke:#038048;stroke-width:1.0;"/><text fill="#000000" font-family="sans-serif" font-size="11" lengthAdjust="spacingAndGlyphs" textLength="179" x="100.5" y="1146.3042">RegistarTerreno(Terreno) : void</text><ellipse cx="91.5" cy="1155.8984" fill="#84BE84" rx="3" ry="3" style="stroke:#038048;stroke-width:1.0;"/><text fill="#000000" font-family="sans-serif" font-size="11" lengthAdjust="spacingAndGlyphs" textLength="177" x="100.5" y="1159.1089">PesquisarTerreno(int) : Terreno</text><ellipse cx="91.5" cy="1168.7031" fill="#84BE84" rx="3" ry="3" style="stroke:#038048;stroke-width:1.0;"/><text fill="#000000" font-family="sans-serif" font-size="11" lengthAdjust="spacingAndGlyphs" textLength="168" x="100.5" y="1171.9136">EliminarTerreno(int) : Terreno</text><ellipse cx="91.5" cy="1181.5078" fill="#84BE84" rx="3" ry="3" style="stroke:#038048;stroke-width:1.0;"/><text fill="#000000" font-family="sans-serif" font-size="11" lengthAdjust="spacingAndGlyphs" textLength="218" x="100.5" y="1184.7183">ObterTodosTerrenos() : List&lt;Terreno&gt;</text><ellipse cx="91.5" cy="1194.3125" fill="#84BE84" rx="3" ry="3" style="stroke:#038048;stroke-width:1.0;"/><text fill="#000000" font-family="sans-serif" font-size="11" lengthAdjust="spacingAndGlyphs" textLength="169" x="100.5" y="1197.5229">GetTerrenoById(int) : Terreno</text><ellipse cx="91.5" cy="1207.1172" fill="#84BE84" rx="3" ry="3" style="stroke:#038048;stroke-width:1.0;"/><text fill="#000000" font-family="sans-serif" font-size="11" lengthAdjust="spacingAndGlyphs" textLength="135" x="100.5" y="1210.3276">CriarTerreno() : Terreno</text><rect fill="#F24D5C" height="6" style="stroke:#C82930;stroke-width:1.0;" width="6" x="88.5" y="1216.9219"/><text fill="#000000" font-family="sans-serif" font-size="11" lengthAdjust="spacingAndGlyphs" textLength="137" x="100.5" y="1223.1323">GetAreaTri() : Triangular</text><rect fill="#F24D5C" height="6" style="stroke:#C82930;stroke-width:1.0;" width="6" x="88.5" y="1229.7266"/><text fill="#000000" font-family="sans-serif" font-size="11" lengthAdjust="spacingAndGlyphs" textLength="159" x="100.5" y="1235.937">GetAreaRect() : Rectangular</text><rect fill="#F24D5C" height="6" style="stroke:#C82930;stroke-width:1.0;" width="6" x="88.5" y="1242.5313"/><text fill="#000000" font-family="sans-serif" font-size="11" lengthAdjust="spacingAndGlyphs" textLength="130" x="100.5" y="1248.7417">GetAreaCirc() : Circular</text><rect fill="#F24D5C" height="6" style="stroke:#C82930;stroke-width:1.0;" width="6" x="88.5" y="1255.3359"/><text fill="#000000" font-family="sans-serif" font-size="11" lengthAdjust="spacingAndGlyphs" textLength="96" x="100.5" y="1261.5464">GetRural() : Rural</text><rect fill="#F24D5C" height="6" style="stroke:#C82930;stroke-width:1.0;" width="6" x="88.5" y="1268.1406"/><text fill="#000000" font-family="sans-serif" font-size="11" lengthAdjust="spacingAndGlyphs" textLength="159" x="100.5" y="1274.3511">GetUrbana(double) : Urbana</text><rect fill="#F24D5C" height="6" style="stroke:#C82930;stroke-width:1.0;" width="6" x="88.5" y="1280.9453"/><text fill="#000000" font-family="sans-serif" font-size="11" lengthAdjust="spacingAndGlyphs" textLength="181" x="100.5" y="1287.1558">GetIndustrial(double) : Industrial</text><!--MD5=[e8772d8d63e33a37d8668d3122b6c8d5]
link Autarquia to Freguesia--><path codeLine="94" d="M202.5,759.305 C202.5,785.29 202.5,810.998 202.5,835.812 " fill="none" id="Autarquia-Freguesia" style="stroke:#A80036;stroke-width:1.0;"/><polygon fill="#000000" points="207.5,802.5664,210.4389,793.5213,204.5611,793.5213,207.5,802.5664" style="stroke:#000000;stroke-width:1.0;"/><text fill="#000000" font-family="sans-serif" font-size="13" lengthAdjust="spacingAndGlyphs" textLength="41" x="216.5" y="802.0669">possui</text><text fill="#000000" font-family="sans-serif" font-size="13" lengthAdjust="spacingAndGlyphs" textLength="8" x="194.4188" y="779.1667">1</text><text fill="#000000" font-family="sans-serif" font-size="13" lengthAdjust="spacingAndGlyphs" textLength="27" x="175.057" y="825.1189">1...*</text><!--MD5=[2f3ec7c33e3c7b680715e788a448b1f5]
@startuml
class Autarquia {
-String nome
-Int valorBase
-List pessoaList
-List freguesiaList
-List escrituraList
+Autarquia(string, int)
+Autarquia()
+Valorbase : int
+Valorbase.get() : int
+Valorbase.set(int) : void
+FreguesiaList : List<Freguesia>
+FreguesiaList.get() : List<Freguesia>
+FreguesiaList.set(List<Freguesia>) : void
+PessoaList : List<Pessoa>
+PessoaList.get() : List<Pessoa>
+PessoaList.set(List<Pessoa>) : void
+EscrituraList : List<Escritura>
+EscrituraList.get() : List<Escritura>
+EscrituraList.set(List<Escritura>) : void
+Nome : string
+Nome.get() : string
+Nome.set(string) : void
+GetPessoaByNif(string) : Pessoa
+RegistarPessoa(Pessoa) : void
+PesquisarPessoa(string) : Pessoa
+ObterTodasPessoas() : List<Pessoa>
+AlterarPessoa(Pessoa) : Pessoa
+EliminarPessoa(string) : Pessoa
+CriarPessoa() : Pessoa
+GetFreguesiaByNome(string) : Freguesia
+CriarFreguesia() : Freguesia
+RegistarFreguesia(Freguesia) : void
+PesquisarFreguesia(string) : Freguesia
+ObterTodasFreguesias() : List<Freguesia>
+AlterarFreguesia(Freguesia, string) : void
+EliminarFreguesia(string) : Freguesia
+GetFuncionarioByNr(string) : Funcionario
+RegistarFuncionario(Funcionario) : void
+PesquisarFuncionario(string) : Funcionario
+ObterTodosFuncionarios() : List<Funcionario>
+EliminarFuncionario(string) : Funcionario
+GetEscrituraByNum(int) : Escritura
+RegistarEscritura(Escritura) : void
+PesquisarEscritura(int) : Escritura
+ObterTodasEscrituras() : List<Escritura>
+EliminarEscritura(int) : Escritura
+MostrarPessoasDeterminadaData(DateTime) : List<Pessoa>
+MostrarTop5PessoasMaisVelhas() : List<Pessoa>
+MostrarAreaTotalAutarquia() : double
+MostrarPercentagemAreaRuralAutarquia() : double
+MostrarAreaPredominanteFreguesia(Freguesia) : string
+MostrarTopProprietarios() : List<Pessoa>
+CalcContriAutarquia() : List<Freguesia>
+MostrarListaTerrenosInspecao(DateTime, string) : List<Terreno>
+MostrarFreguesiasDimensao() : List<Freguesia>
}


class Freguesia {
-String nome
-List terrenoList
-Double contriAuto
+Freguesia(string)
+Freguesia()
+ToString() : string
+TerrenoList : List<Terreno>
+TerrenoList.get() : List<Terreno>
+TerrenoList.set(List<Terreno>) : void
+ContriAuttotal : double
+ContriAuttotal.get() : double
+ContriAuttotal.set(double) : void
+Nome.get() : string
+Nome.set(string) : void
+DimensaoTotal : double
+DimensaoTotal.get() : double
+DimensaoTotal.set(double) : void
+ContriAuto : double
+ContriAuto.get() : double
+ContriAuto.set(double) : void
+RegistarTerreno(Terreno) : void
+PesquisarTerreno(int) : Terreno
+EliminarTerreno(int) : Terreno
+ObterTodosTerrenos() : List<Terreno>
+GetTerrenoById(int) : Terreno
+CriarTerreno() : Terreno
-GetAreaTri() : Triangular
-GetAreaRect() : Rectangular
-GetAreaCirc() : Circular
-GetRural() : Rural
-GetUrbana(double) : Urbana
-GetIndustrial(double) : Industrial
}
Autarquia "1" - - "1...*" Freguesia : possui >
@enduml

PlantUML version 1.2020.21(Mon Nov 30 16:40:11 UTC 2020)
(GPL source distribution)
Java Runtime: Java(TM) SE Runtime Environment
JVM: Java HotSpot(TM) 64-Bit Server VM
Default Encoding: UTF-8
Language: en
Country: US
--></g></svg>