<?xml version="1.0" encoding="UTF-8" standalone="no"?><svg xmlns="http://www.w3.org/2000/svg" xmlns:xlink="http://www.w3.org/1999/xlink" contentScriptType="application/ecmascript" contentStyleType="text/css" height="73px" preserveAspectRatio="none" style="width:317px;height:73px;" version="1.1" viewBox="0 0 317 73" width="317px" zoomAndPan="magnify"><defs><filter height="300%" id="f1kheghr8z2qql" width="300%" x="-1" y="-1"><feGaussianBlur result="blurOut" stdDeviation="2.0"/><feColorMatrix in="blurOut" result="blurOut2" type="matrix" values="0 0 0 0 0 0 0 0 0 0 0 0 0 0 0 0 0 0 .4 0"/><feOffset dx="4.0" dy="4.0" in="blurOut2" result="blurOut3"/><feBlend in="SourceGraphic" in2="blurOut3" mode="normal"/></filter></defs><g><!--MD5=[b8b6ee908b7faff6fecf4288f82e2ead]
class Autarquia--><rect codeLine="5" fill="#FEFECE" filter="url(#f1kheghr8z2qql)" height="52.8047" id="Autarquia" style="stroke:#A80036;stroke-width:1.5;" width="88" x="7" y="7"/><ellipse cx="22" cy="23" fill="#ADD1B2" rx="11" ry="11" style="stroke:#A80036;stroke-width:1.0;"/><path d="M24.3438,18.6719 C23.4063,18.2344 22.8125,18.0938 21.9375,18.0938 C19.3125,18.0938 17.3125,20.1719 17.3125,22.8906 L17.3125,24.0156 C17.3125,26.5938 19.4219,28.4844 22.3125,28.4844 C23.5313,28.4844 24.6875,28.1875 25.4375,27.6406 C26.0156,27.2344 26.3438,26.7813 26.3438,26.3906 C26.3438,25.9375 25.9531,25.5469 25.4844,25.5469 C25.2656,25.5469 25.0625,25.625 24.875,25.8125 C24.4219,26.2969 24.4219,26.2969 24.2344,26.3906 C23.8125,26.6563 23.125,26.7813 22.3594,26.7813 C20.3125,26.7813 19.0156,25.6875 19.0156,23.9844 L19.0156,22.8906 C19.0156,21.1094 20.2656,19.7969 22,19.7969 C22.5781,19.7969 23.1875,19.9531 23.6563,20.2031 C24.1406,20.4844 24.3125,20.7031 24.4063,21.1094 C24.4688,21.5156 24.5,21.6406 24.6406,21.7656 C24.7813,21.9063 25.0156,22.0156 25.2344,22.0156 C25.5,22.0156 25.7656,21.875 25.9375,21.6563 C26.0469,21.5 26.0781,21.3125 26.0781,20.8906 L26.0781,19.4688 C26.0781,19.0313 26.0625,18.9063 25.9688,18.75 C25.8125,18.4844 25.5313,18.3438 25.2344,18.3438 C24.9375,18.3438 24.7344,18.4375 24.5156,18.75 L24.3438,18.6719 Z " fill="#000000"/><text fill="#000000" font-family="sans-serif" font-size="12" lengthAdjust="spacingAndGlyphs" textLength="56" x="36" y="27.1543">Autarquia</text><line style="stroke:#A80036;stroke-width:1.5;" x1="8" x2="94" y1="39" y2="39"/><text fill="#000000" font-family="sans-serif" font-size="11" lengthAdjust="spacingAndGlyphs" textLength="74" x="13" y="53.2104">-String nome</text><!--MD5=[25ba56bf876b0b5138fdedf7889220de]
class Freguesia--><rect codeLine="9" fill="#FEFECE" filter="url(#f1kheghr8z2qql)" height="52.8047" id="Freguesia" style="stroke:#A80036;stroke-width:1.5;" width="92" x="211" y="7"/><ellipse cx="226" cy="23" fill="#ADD1B2" rx="11" ry="11" style="stroke:#A80036;stroke-width:1.0;"/><path d="M228.3438,18.6719 C227.4063,18.2344 226.8125,18.0938 225.9375,18.0938 C223.3125,18.0938 221.3125,20.1719 221.3125,22.8906 L221.3125,24.0156 C221.3125,26.5938 223.4219,28.4844 226.3125,28.4844 C227.5313,28.4844 228.6875,28.1875 229.4375,27.6406 C230.0156,27.2344 230.3438,26.7813 230.3438,26.3906 C230.3438,25.9375 229.9531,25.5469 229.4844,25.5469 C229.2656,25.5469 229.0625,25.625 228.875,25.8125 C228.4219,26.2969 228.4219,26.2969 228.2344,26.3906 C227.8125,26.6563 227.125,26.7813 226.3594,26.7813 C224.3125,26.7813 223.0156,25.6875 223.0156,23.9844 L223.0156,22.8906 C223.0156,21.1094 224.2656,19.7969 226,19.7969 C226.5781,19.7969 227.1875,19.9531 227.6563,20.2031 C228.1406,20.4844 228.3125,20.7031 228.4063,21.1094 C228.4688,21.5156 228.5,21.6406 228.6406,21.7656 C228.7813,21.9063 229.0156,22.0156 229.2344,22.0156 C229.5,22.0156 229.7656,21.875 229.9375,21.6563 C230.0469,21.5 230.0781,21.3125 230.0781,20.8906 L230.0781,19.4688 C230.0781,19.0313 230.0625,18.9063 229.9688,18.75 C229.8125,18.4844 229.5313,18.3438 229.2344,18.3438 C228.9375,18.3438 228.7344,18.4375 228.5156,18.75 L228.3438,18.6719 Z " fill="#000000"/><text fill="#000000" font-family="sans-serif" font-size="12" lengthAdjust="spacingAndGlyphs" textLength="60" x="240" y="27.1543">Freguesia</text><line style="stroke:#A80036;stroke-width:1.5;" x1="212" x2="302" y1="39" y2="39"/><text fill="#000000" font-family="sans-serif" font-size="11" lengthAdjust="spacingAndGlyphs" textLength="74" x="217" y="53.2104">-String nome</text><!--MD5=[e8772d8d63e33a37d8668d3122b6c8d5]
link Autarquia to Freguesia--><path codeLine="13" d="M95.2632,33.5 C129.181,33.5 176.243,33.5 210.678,33.5 " fill="none" id="Autarquia-Freguesia" style="stroke:#A80036;stroke-width:1.0;"/><polygon fill="#000000" points="135,25.0664,125.9549,22.1275,125.9549,28.0053,135,25.0664" style="stroke:#000000;stroke-width:1.0;"/><text fill="#000000" font-family="sans-serif" font-size="13" lengthAdjust="spacingAndGlyphs" textLength="41" x="139" y="29.5669">possui</text><text fill="#000000" font-family="sans-serif" font-size="13" lengthAdjust="spacingAndGlyphs" textLength="8" x="102.9551" y="46.7884">1</text><text fill="#000000" font-family="sans-serif" font-size="13" lengthAdjust="spacingAndGlyphs" textLength="27" x="176.0133" y="46.5489">1...*</text><!--MD5=[c1e87bc1b580e845bb2c169708bdaa2e]
@startuml
skinparam classAttributeIconSize 0
hide methods
left to right direction

class Autarquia {
  -String nome
}

class Freguesia {
  -String nome
}

Autarquia "1" - - "1...*" Freguesia : possui >
@enduml

PlantUML version 1.2020.21beta7(Unknown compile time)
(GPL source distribution)
Java Runtime: Java(TM) SE Runtime Environment
JVM: Java HotSpot(TM) 64-Bit Server VM
Default Encoding: UTF-8
Language: en
Country: US
--></g></svg>