<?xml version="1.0" encoding="UTF-8" standalone="no"?><svg xmlns="http://www.w3.org/2000/svg" xmlns:xlink="http://www.w3.org/1999/xlink" contentScriptType="application/ecmascript" contentStyleType="text/css" height="594px" preserveAspectRatio="none" style="width:338px;height:594px;" version="1.1" viewBox="0 0 338 594" width="338px" zoomAndPan="magnify"><defs><filter height="300%" id="f18sjumew0x4wg" width="300%" x="-1" y="-1"><feGaussianBlur result="blurOut" stdDeviation="2.0"/><feColorMatrix in="blurOut" result="blurOut2" type="matrix" values="0 0 0 0 0 0 0 0 0 0 0 0 0 0 0 0 0 0 .4 0"/><feOffset dx="4.0" dy="4.0" in="blurOut2" result="blurOut3"/><feBlend in="SourceGraphic" in2="blurOut3" mode="normal"/></filter></defs><g><ellipse cx="230.5567" cy="26.5113" fill="#FEFECE" filter="url(#f18sjumew0x4wg)" rx="90.5567" ry="20.5113" style="stroke:#A80036;stroke-width:1.5;"/><text fill="#000000" font-family="sans-serif" font-size="14" lengthAdjust="spacingAndGlyphs" textLength="155" x="153.0567" y="31.1598">UC1 - Registar Pessoa</text><ellipse cx="230.4095" cy="103.5819" fill="#FEFECE" filter="url(#f18sjumew0x4wg)" rx="95.9095" ry="21.5819" style="stroke:#A80036;stroke-width:1.5;"/><text fill="#000000" font-family="sans-serif" font-size="14" lengthAdjust="spacingAndGlyphs" textLength="167" x="146.9095" y="108.2303">UC2 - Registar Feguesia</text><ellipse cx="230.6163" cy="181.7233" fill="#FEFECE" filter="url(#f18sjumew0x4wg)" rx="94.1163" ry="21.2233" style="stroke:#A80036;stroke-width:1.5;"/><text fill="#000000" font-family="sans-serif" font-size="14" lengthAdjust="spacingAndGlyphs" textLength="163" x="149.1163" y="186.3717">UC3 - Registar Terreno</text><ellipse cx="230.3591" cy="259.6718" fill="#FEFECE" filter="url(#f18sjumew0x4wg)" rx="96.3591" ry="21.6718" style="stroke:#A80036;stroke-width:1.5;"/><text fill="#000000" font-family="sans-serif" font-size="14" lengthAdjust="spacingAndGlyphs" textLength="168" x="146.3591" y="264.3203">UC4 - Registar Escritura</text><ellipse cx="230.3592" cy="335.3718" fill="#FEFECE" filter="url(#f18sjumew0x4wg)" rx="84.8592" ry="19.3718" style="stroke:#A80036;stroke-width:1.5;"/><text fill="#000000" font-family="sans-serif" font-size="14" lengthAdjust="spacingAndGlyphs" textLength="142" x="159.3592" y="340.0203">UC5 - Listar Pessoas</text><ellipse cx="230.3518" cy="410.5704" fill="#FEFECE" filter="url(#f18sjumew0x4wg)" rx="88.3518" ry="20.0704" style="stroke:#A80036;stroke-width:1.5;"/><text fill="#000000" font-family="sans-serif" font-size="14" lengthAdjust="spacingAndGlyphs" textLength="150" x="155.3518" y="415.2188">UC6 - Listar Terrenos</text><ellipse cx="230.7229" cy="486.5446" fill="#FEFECE" filter="url(#f18sjumew0x4wg)" rx="93.2229" ry="21.0446" style="stroke:#A80036;stroke-width:1.5;"/><text fill="#000000" font-family="sans-serif" font-size="14" lengthAdjust="spacingAndGlyphs" textLength="161" x="150.2229" y="491.193">UC7 - Listar Freguesias</text><ellipse cx="230.2915" cy="562.6583" fill="#FEFECE" filter="url(#f18sjumew0x4wg)" rx="88.7915" ry="20.1583" style="stroke:#A80036;stroke-width:1.5;"/><text fill="#000000" font-family="sans-serif" font-size="14" lengthAdjust="spacingAndGlyphs" textLength="151" x="154.7915" y="567.3067">UC8 - Calcular Índices</text><!--MD5=[2ef883c7bda54365519191918ae31df7]
entity UNR--><ellipse cx="40" cy="266.5" fill="#FEFECE" filter="url(#f18sjumew0x4wg)" rx="8" ry="8" style="stroke:#A80036;stroke-width:1.5;"/><path d="M40,274.5 L40,301.5 M27,282.5 L53,282.5 M40,301.5 L27,316.5 M40,301.5 L53,316.5 " fill="none" filter="url(#f18sjumew0x4wg)" style="stroke:#A80036;stroke-width:1.5;"/><text fill="#000000" font-family="sans-serif" font-size="14" lengthAdjust="spacingAndGlyphs" textLength="68" x="6" y="334.9951">Utilizador</text><!--MD5=[7b21f0941fa32888f6ae813cc64547f3]
link UNR to UC1--><path d="M47.1777,256.698 C56.9615,205.437 80.6915,117.752 134,64.5 C142.616,55.893 153.426,49.174 164.647,43.949 " fill="none" id="UNR-to-UC1" style="stroke:#A80036;stroke-width:1.0;"/><polygon fill="#A80036" points="169.477,41.8,159.6281,41.8043,164.9088,43.8327,162.8804,49.1134,169.477,41.8" style="stroke:#A80036;stroke-width:1.0;"/><!--MD5=[5b9e3e0bbca42dc5b11bfecf11a5f33a]
link UNR to UC2--><path d="M56.6499,256.919 C71.7982,222.378 97.796,173.558 134,142.5 C143.48,134.368 154.882,127.772 166.456,122.479 " fill="none" id="UNR-to-UC2" style="stroke:#A80036;stroke-width:1.0;"/><polygon fill="#A80036" points="171.07,120.439,161.2212,120.4193,166.4969,122.4605,164.4556,127.7363,171.07,120.439" style="stroke:#A80036;stroke-width:1.0;"/><!--MD5=[9a0856f12a48dbddc94399dca5b961d2]
link UNR to UC3--><path d="M74.01,265.958 C91.0001,250.856 112.6,233.317 134,220.5 C146.179,213.206 159.971,206.69 173.211,201.169 " fill="none" id="UNR-to-UC3" style="stroke:#A80036;stroke-width:1.0;"/><polygon fill="#A80036" points="178.059,199.181,168.2143,198.8953,173.433,201.0783,171.2499,206.2969,178.059,199.181" style="stroke:#A80036;stroke-width:1.0;"/><!--MD5=[e5b213fcb16940a579d14f8c80015267]
link UNR to UC4--><path d="M74.2661,290.794 C96.156,286.381 125.737,280.418 153.206,274.88 " fill="none" id="UNR-to-UC4" style="stroke:#A80036;stroke-width:1.0;"/><polygon fill="#A80036" points="158.308,273.852,148.6948,271.7103,153.4067,274.8405,150.2765,279.5524,158.308,273.852" style="stroke:#A80036;stroke-width:1.0;"/><!--MD5=[ccd994a78f053788b2a7e58df95e35ff]
link UNR to UC5--><path d="M74.2661,304.206 C98.2451,309.04 131.454,315.735 161.004,321.692 " fill="none" id="UNR-to-UC5" style="stroke:#A80036;stroke-width:1.0;"/><polygon fill="#A80036" points="166.093,322.718,158.0599,317.0198,161.1914,321.7308,156.4804,324.8624,166.093,322.718" style="stroke:#A80036;stroke-width:1.0;"/><!--MD5=[2a62ce4127218f4cee8bb8eb193fd63d]
link UNR to UC6--><path d="M74.0845,328.252 C91.0929,342.969 112.687,360.05 134,372.5 C146.625,379.875 160.952,386.422 174.597,391.915 " fill="none" id="UNR-to-UC6" style="stroke:#A80036;stroke-width:1.0;"/><polygon fill="#A80036" points="179.589,393.891,172.6921,386.8601,174.9398,392.0513,169.7486,394.2989,179.589,393.891" style="stroke:#A80036;stroke-width:1.0;"/><!--MD5=[8a51f1b51a747a9c3d9f285a0b1eda80]
link UNR to UC7--><path d="M57.5758,338.094 C73.0029,371.431 98.899,417.829 134,447.5 C143.78,455.767 155.548,462.459 167.43,467.81 " fill="none" id="UNR-to-UC7" style="stroke:#A80036;stroke-width:1.0;"/><polygon fill="#A80036" points="172.163,469.871,165.5096,462.6093,167.5791,467.874,162.3144,469.9436,172.163,469.871" style="stroke:#A80036;stroke-width:1.0;"/><!--MD5=[091d1972b4517e8d8fc3f8df876aec1c]
link UNR to UC8--><path d="M47.6527,338.136 C57.8543,388.209 81.9406,472.965 134,524.5 C142.956,533.366 154.239,540.2323 165.884,545.5274 " fill="none" id="UNR-to-UC8" style="stroke:#A80036;stroke-width:1.0;"/><polygon fill="#A80036" points="170.535,547.554,163.8818,540.2921,165.9512,545.5569,160.6864,547.6262,170.535,547.554" style="stroke:#A80036;stroke-width:1.0;"/><!--MD5=[c775d7ffeab709e3ff803b6d2f92390a]
@startuml
usecase UC1 as "UC1 - Registar Pessoa"
usecase UC2 as "UC2 - Registar Feguesia"
usecase UC3 as "UC3 - Registar Terreno"
usecase UC4 as "UC4 - Registar Escritura"
usecase UC5 as "UC5 - Listar Pessoas"
usecase UC6 as "UC6 - Listar Terrenos"
usecase UC7 as "UC7 - Listar Freguesias"
usecase UC8 as "UC8 - Calcular Índices"

actor "Utilizador" as UNR

left to right direction
UNR - ->(UC1)
UNR - ->(UC2)
UNR - ->(UC3)
UNR - ->(UC4)
UNR - ->(UC5)
UNR - ->(UC6)
UNR - ->(UC7)
UNR - ->(UC8)
@enduml

PlantUML version 1.2020.21beta7(Unknown compile time)
(GPL source distribution)
Java Runtime: Java(TM) SE Runtime Environment
JVM: Java HotSpot(TM) 64-Bit Server VM
Default Encoding: UTF-8
Language: en
Country: US
--></g></svg>