<?xml version="1.0" encoding="UTF-8" standalone="no"?><svg xmlns="http://www.w3.org/2000/svg" xmlns:xlink="http://www.w3.org/1999/xlink" contentScriptType="application/ecmascript" contentStyleType="text/css" height="666px" preserveAspectRatio="none" style="width:1042px;height:666px;" version="1.1" viewBox="0 0 1042 666" width="1042px" zoomAndPan="magnify"><defs><filter height="300%" id="fkzlwuk5l35ua" width="300%" x="-1" y="-1"><feGaussianBlur result="blurOut" stdDeviation="2.0"/><feColorMatrix in="blurOut" result="blurOut2" type="matrix" values="0 0 0 0 0 0 0 0 0 0 0 0 0 0 0 0 0 0 .4 0"/><feOffset dx="4.0" dy="4.0" in="blurOut2" result="blurOut3"/><feBlend in="SourceGraphic" in2="blurOut3" mode="normal"/></filter></defs><g><!--MD5=[b8b6ee908b7faff6fecf4288f82e2ead]
class Autarquia--><rect codeLine="5" fill="#FEFECE" filter="url(#fkzlwuk5l35ua)" height="52.8047" id="Autarquia" style="stroke:#A80036;stroke-width:1.5;" width="88" x="7" y="86.5"/><ellipse cx="22" cy="102.5" fill="#ADD1B2" rx="11" ry="11" style="stroke:#A80036;stroke-width:1.0;"/><path d="M24.3438,98.1719 C23.4063,97.7344 22.8125,97.5938 21.9375,97.5938 C19.3125,97.5938 17.3125,99.6719 17.3125,102.3906 L17.3125,103.5156 C17.3125,106.0938 19.4219,107.9844 22.3125,107.9844 C23.5313,107.9844 24.6875,107.6875 25.4375,107.1406 C26.0156,106.7344 26.3438,106.2813 26.3438,105.8906 C26.3438,105.4375 25.9531,105.0469 25.4844,105.0469 C25.2656,105.0469 25.0625,105.125 24.875,105.3125 C24.4219,105.7969 24.4219,105.7969 24.2344,105.8906 C23.8125,106.1563 23.125,106.2813 22.3594,106.2813 C20.3125,106.2813 19.0156,105.1875 19.0156,103.4844 L19.0156,102.3906 C19.0156,100.6094 20.2656,99.2969 22,99.2969 C22.5781,99.2969 23.1875,99.4531 23.6563,99.7031 C24.1406,99.9844 24.3125,100.2031 24.4063,100.6094 C24.4688,101.0156 24.5,101.1406 24.6406,101.2656 C24.7813,101.4063 25.0156,101.5156 25.2344,101.5156 C25.5,101.5156 25.7656,101.375 25.9375,101.1563 C26.0469,101 26.0781,100.8125 26.0781,100.3906 L26.0781,98.9688 C26.0781,98.5313 26.0625,98.4063 25.9688,98.25 C25.8125,97.9844 25.5313,97.8438 25.2344,97.8438 C24.9375,97.8438 24.7344,97.9375 24.5156,98.25 L24.3438,98.1719 Z " fill="#000000"/><text fill="#000000" font-family="sans-serif" font-size="12" lengthAdjust="spacingAndGlyphs" textLength="56" x="36" y="106.6543">Autarquia</text><line style="stroke:#A80036;stroke-width:1.5;" x1="8" x2="94" y1="118.5" y2="118.5"/><text fill="#000000" font-family="sans-serif" font-size="11" lengthAdjust="spacingAndGlyphs" textLength="74" x="13" y="132.7104">-String nome</text><!--MD5=[ec4e9ac521a71f7b069122f6baf1b57e]
class Pessoa--><rect codeLine="9" fill="#FEFECE" filter="url(#fkzlwuk5l35ua)" height="78.4141" id="Pessoa" style="stroke:#A80036;stroke-width:1.5;" width="145" x="404" y="85"/><ellipse cx="450.75" cy="101" fill="#ADD1B2" rx="11" ry="11" style="stroke:#A80036;stroke-width:1.0;"/><path d="M453.0938,96.6719 C452.1563,96.2344 451.5625,96.0938 450.6875,96.0938 C448.0625,96.0938 446.0625,98.1719 446.0625,100.8906 L446.0625,102.0156 C446.0625,104.5938 448.1719,106.4844 451.0625,106.4844 C452.2813,106.4844 453.4375,106.1875 454.1875,105.6406 C454.7656,105.2344 455.0938,104.7813 455.0938,104.3906 C455.0938,103.9375 454.7031,103.5469 454.2344,103.5469 C454.0156,103.5469 453.8125,103.625 453.625,103.8125 C453.1719,104.2969 453.1719,104.2969 452.9844,104.3906 C452.5625,104.6563 451.875,104.7813 451.1094,104.7813 C449.0625,104.7813 447.7656,103.6875 447.7656,101.9844 L447.7656,100.8906 C447.7656,99.1094 449.0156,97.7969 450.75,97.7969 C451.3281,97.7969 451.9375,97.9531 452.4063,98.2031 C452.8906,98.4844 453.0625,98.7031 453.1563,99.1094 C453.2188,99.5156 453.25,99.6406 453.3906,99.7656 C453.5313,99.9063 453.7656,100.0156 453.9844,100.0156 C454.25,100.0156 454.5156,99.875 454.6875,99.6563 C454.7969,99.5 454.8281,99.3125 454.8281,98.8906 L454.8281,97.4688 C454.8281,97.0313 454.8125,96.9063 454.7188,96.75 C454.5625,96.4844 454.2813,96.3438 453.9844,96.3438 C453.6875,96.3438 453.4844,96.4375 453.2656,96.75 L453.0938,96.6719 Z " fill="#000000"/><text fill="#000000" font-family="sans-serif" font-size="12" lengthAdjust="spacingAndGlyphs" textLength="43" x="471.25" y="105.1543">Pessoa</text><line style="stroke:#A80036;stroke-width:1.5;" x1="405" x2="548" y1="117" y2="117"/><text fill="#000000" font-family="sans-serif" font-size="11" lengthAdjust="spacingAndGlyphs" textLength="74" x="410" y="131.2104">-String nome</text><text fill="#000000" font-family="sans-serif" font-size="11" lengthAdjust="spacingAndGlyphs" textLength="55" x="410" y="144.0151">-String nif</text><text fill="#000000" font-family="sans-serif" font-size="11" lengthAdjust="spacingAndGlyphs" textLength="133" x="410" y="156.8198">-String dataNascimento</text><!--MD5=[cf98b8104f7f757d2a3327e9c712e420]
class Funcionario--><rect codeLine="16" fill="#FEFECE" filter="url(#fkzlwuk5l35ua)" height="65.6094" id="Funcionario" style="stroke:#A80036;stroke-width:1.5;" width="123" x="703" y="7"/><ellipse cx="727.9" cy="23" fill="#ADD1B2" rx="11" ry="11" style="stroke:#A80036;stroke-width:1.0;"/><path d="M730.2438,18.6719 C729.3063,18.2344 728.7125,18.0938 727.8375,18.0938 C725.2125,18.0938 723.2125,20.1719 723.2125,22.8906 L723.2125,24.0156 C723.2125,26.5938 725.3219,28.4844 728.2125,28.4844 C729.4313,28.4844 730.5875,28.1875 731.3375,27.6406 C731.9156,27.2344 732.2438,26.7813 732.2438,26.3906 C732.2438,25.9375 731.8531,25.5469 731.3844,25.5469 C731.1656,25.5469 730.9625,25.625 730.775,25.8125 C730.3219,26.2969 730.3219,26.2969 730.1344,26.3906 C729.7125,26.6563 729.025,26.7813 728.2594,26.7813 C726.2125,26.7813 724.9156,25.6875 724.9156,23.9844 L724.9156,22.8906 C724.9156,21.1094 726.1656,19.7969 727.9,19.7969 C728.4781,19.7969 729.0875,19.9531 729.5563,20.2031 C730.0406,20.4844 730.2125,20.7031 730.3063,21.1094 C730.3688,21.5156 730.4,21.6406 730.5406,21.7656 C730.6813,21.9063 730.9156,22.0156 731.1344,22.0156 C731.4,22.0156 731.6656,21.875 731.8375,21.6563 C731.9469,21.5 731.9781,21.3125 731.9781,20.8906 L731.9781,19.4688 C731.9781,19.0313 731.9625,18.9063 731.8688,18.75 C731.7125,18.4844 731.4313,18.3438 731.1344,18.3438 C730.8375,18.3438 730.6344,18.4375 730.4156,18.75 L730.2438,18.6719 Z " fill="#000000"/><text fill="#000000" font-family="sans-serif" font-size="12" lengthAdjust="spacingAndGlyphs" textLength="69" x="744.1" y="27.1543">Funcionario</text><line style="stroke:#A80036;stroke-width:1.5;" x1="704" x2="825" y1="39" y2="39"/><text fill="#000000" font-family="sans-serif" font-size="11" lengthAdjust="spacingAndGlyphs" textLength="72" x="709" y="53.2104">-String cargo</text><text fill="#000000" font-family="sans-serif" font-size="11" lengthAdjust="spacingAndGlyphs" textLength="111" x="709" y="66.0151">-String numeroFunc</text><!--MD5=[55a49fe1500ca3a9afacd5256121ad4e]
class Escritura--><rect codeLine="21" fill="#FEFECE" filter="url(#fkzlwuk5l35ua)" height="65.6094" id="Escritura" style="stroke:#A80036;stroke-width:1.5;" width="86" x="721.5" y="110"/><ellipse cx="737.4" cy="126" fill="#ADD1B2" rx="11" ry="11" style="stroke:#A80036;stroke-width:1.0;"/><path d="M739.7438,121.6719 C738.8063,121.2344 738.2125,121.0938 737.3375,121.0938 C734.7125,121.0938 732.7125,123.1719 732.7125,125.8906 L732.7125,127.0156 C732.7125,129.5938 734.8219,131.4844 737.7125,131.4844 C738.9313,131.4844 740.0875,131.1875 740.8375,130.6406 C741.4156,130.2344 741.7438,129.7813 741.7438,129.3906 C741.7438,128.9375 741.3531,128.5469 740.8844,128.5469 C740.6656,128.5469 740.4625,128.625 740.275,128.8125 C739.8219,129.2969 739.8219,129.2969 739.6344,129.3906 C739.2125,129.6563 738.525,129.7813 737.7594,129.7813 C735.7125,129.7813 734.4156,128.6875 734.4156,126.9844 L734.4156,125.8906 C734.4156,124.1094 735.6656,122.7969 737.4,122.7969 C737.9781,122.7969 738.5875,122.9531 739.0563,123.2031 C739.5406,123.4844 739.7125,123.7031 739.8063,124.1094 C739.8688,124.5156 739.9,124.6406 740.0406,124.7656 C740.1813,124.9063 740.4156,125.0156 740.6344,125.0156 C740.9,125.0156 741.1656,124.875 741.3375,124.6563 C741.4469,124.5 741.4781,124.3125 741.4781,123.8906 L741.4781,122.4688 C741.4781,122.0313 741.4625,121.9063 741.3688,121.75 C741.2125,121.4844 740.9313,121.3438 740.6344,121.3438 C740.3375,121.3438 740.1344,121.4375 739.9156,121.75 L739.7438,121.6719 Z " fill="#000000"/><text fill="#000000" font-family="sans-serif" font-size="12" lengthAdjust="spacingAndGlyphs" textLength="52" x="751.6" y="130.1543">Escritura</text><line style="stroke:#A80036;stroke-width:1.5;" x1="722.5" x2="806.5" y1="142" y2="142"/><text fill="#000000" font-family="sans-serif" font-size="11" lengthAdjust="spacingAndGlyphs" textLength="74" x="727.5" y="156.2104">-Integer num</text><text fill="#000000" font-family="sans-serif" font-size="11" lengthAdjust="spacingAndGlyphs" textLength="66" x="727.5" y="169.0151">-String data</text><!--MD5=[25ba56bf876b0b5138fdedf7889220de]
class Freguesia--><rect codeLine="26" fill="#FEFECE" filter="url(#fkzlwuk5l35ua)" height="52.8047" id="Freguesia" style="stroke:#A80036;stroke-width:1.5;" width="92" x="211" y="183.5"/><ellipse cx="226" cy="199.5" fill="#ADD1B2" rx="11" ry="11" style="stroke:#A80036;stroke-width:1.0;"/><path d="M228.3438,195.1719 C227.4063,194.7344 226.8125,194.5938 225.9375,194.5938 C223.3125,194.5938 221.3125,196.6719 221.3125,199.3906 L221.3125,200.5156 C221.3125,203.0938 223.4219,204.9844 226.3125,204.9844 C227.5313,204.9844 228.6875,204.6875 229.4375,204.1406 C230.0156,203.7344 230.3438,203.2813 230.3438,202.8906 C230.3438,202.4375 229.9531,202.0469 229.4844,202.0469 C229.2656,202.0469 229.0625,202.125 228.875,202.3125 C228.4219,202.7969 228.4219,202.7969 228.2344,202.8906 C227.8125,203.1563 227.125,203.2813 226.3594,203.2813 C224.3125,203.2813 223.0156,202.1875 223.0156,200.4844 L223.0156,199.3906 C223.0156,197.6094 224.2656,196.2969 226,196.2969 C226.5781,196.2969 227.1875,196.4531 227.6563,196.7031 C228.1406,196.9844 228.3125,197.2031 228.4063,197.6094 C228.4688,198.0156 228.5,198.1406 228.6406,198.2656 C228.7813,198.4063 229.0156,198.5156 229.2344,198.5156 C229.5,198.5156 229.7656,198.375 229.9375,198.1563 C230.0469,198 230.0781,197.8125 230.0781,197.3906 L230.0781,195.9688 C230.0781,195.5313 230.0625,195.4063 229.9688,195.25 C229.8125,194.9844 229.5313,194.8438 229.2344,194.8438 C228.9375,194.8438 228.7344,194.9375 228.5156,195.25 L228.3438,195.1719 Z " fill="#000000"/><text fill="#000000" font-family="sans-serif" font-size="12" lengthAdjust="spacingAndGlyphs" textLength="60" x="240" y="203.6543">Freguesia</text><line style="stroke:#A80036;stroke-width:1.5;" x1="212" x2="302" y1="215.5" y2="215.5"/><text fill="#000000" font-family="sans-serif" font-size="11" lengthAdjust="spacingAndGlyphs" textLength="74" x="217" y="229.7104">-String nome</text><!--MD5=[26905466b2de2c704432800e111a1f71]
class Terreno--><rect codeLine="30" fill="#FEFECE" filter="url(#fkzlwuk5l35ua)" height="91.2188" id="Terreno" style="stroke:#A80036;stroke-width:1.5;" width="113" x="420" y="198.5"/><ellipse cx="449.85" cy="214.5" fill="#ADD1B2" rx="11" ry="11" style="stroke:#A80036;stroke-width:1.0;"/><path d="M452.1938,210.1719 C451.2563,209.7344 450.6625,209.5938 449.7875,209.5938 C447.1625,209.5938 445.1625,211.6719 445.1625,214.3906 L445.1625,215.5156 C445.1625,218.0938 447.2719,219.9844 450.1625,219.9844 C451.3813,219.9844 452.5375,219.6875 453.2875,219.1406 C453.8656,218.7344 454.1938,218.2813 454.1938,217.8906 C454.1938,217.4375 453.8031,217.0469 453.3344,217.0469 C453.1156,217.0469 452.9125,217.125 452.725,217.3125 C452.2719,217.7969 452.2719,217.7969 452.0844,217.8906 C451.6625,218.1563 450.975,218.2813 450.2094,218.2813 C448.1625,218.2813 446.8656,217.1875 446.8656,215.4844 L446.8656,214.3906 C446.8656,212.6094 448.1156,211.2969 449.85,211.2969 C450.4281,211.2969 451.0375,211.4531 451.5063,211.7031 C451.9906,211.9844 452.1625,212.2031 452.2563,212.6094 C452.3188,213.0156 452.35,213.1406 452.4906,213.2656 C452.6313,213.4063 452.8656,213.5156 453.0844,213.5156 C453.35,213.5156 453.6156,213.375 453.7875,213.1563 C453.8969,213 453.9281,212.8125 453.9281,212.3906 L453.9281,210.9688 C453.9281,210.5313 453.9125,210.4063 453.8188,210.25 C453.6625,209.9844 453.3813,209.8438 453.0844,209.8438 C452.7875,209.8438 452.5844,209.9375 452.3656,210.25 L452.1938,210.1719 Z " fill="#000000"/><text fill="#000000" font-family="sans-serif" font-size="12" lengthAdjust="spacingAndGlyphs" textLength="48" x="467.15" y="218.6543">Terreno</text><line style="stroke:#A80036;stroke-width:1.5;" x1="421" x2="532" y1="230.5" y2="230.5"/><text fill="#000000" font-family="sans-serif" font-size="11" lengthAdjust="spacingAndGlyphs" textLength="59" x="426" y="244.7104">-Integer id</text><text fill="#000000" font-family="sans-serif" font-size="11" lengthAdjust="spacingAndGlyphs" textLength="101" x="426" y="257.5151">-String indiceCont</text><text fill="#000000" font-family="sans-serif" font-size="11" lengthAdjust="spacingAndGlyphs" textLength="75" x="426" y="270.3198">-Double area</text><text fill="#000000" font-family="sans-serif" font-size="11" lengthAdjust="spacingAndGlyphs" textLength="66" x="426" y="283.1245">-Double imi</text><!--MD5=[78f21c08692eebc4688c39ddeb4c353c]
class Forma--><rect codeLine="37" fill="#FEFECE" filter="url(#fkzlwuk5l35ua)" height="52.8047" id="Forma" style="stroke:#A80036;stroke-width:1.5;" width="87" x="721" y="215.5"/><ellipse cx="743.65" cy="231.5" fill="#ADD1B2" rx="11" ry="11" style="stroke:#A80036;stroke-width:1.0;"/><path d="M745.9938,227.1719 C745.0563,226.7344 744.4625,226.5938 743.5875,226.5938 C740.9625,226.5938 738.9625,228.6719 738.9625,231.3906 L738.9625,232.5156 C738.9625,235.0938 741.0719,236.9844 743.9625,236.9844 C745.1813,236.9844 746.3375,236.6875 747.0875,236.1406 C747.6656,235.7344 747.9938,235.2813 747.9938,234.8906 C747.9938,234.4375 747.6031,234.0469 747.1344,234.0469 C746.9156,234.0469 746.7125,234.125 746.525,234.3125 C746.0719,234.7969 746.0719,234.7969 745.8844,234.8906 C745.4625,235.1563 744.775,235.2813 744.0094,235.2813 C741.9625,235.2813 740.6656,234.1875 740.6656,232.4844 L740.6656,231.3906 C740.6656,229.6094 741.9156,228.2969 743.65,228.2969 C744.2281,228.2969 744.8375,228.4531 745.3063,228.7031 C745.7906,228.9844 745.9625,229.2031 746.0563,229.6094 C746.1188,230.0156 746.15,230.1406 746.2906,230.2656 C746.4313,230.4063 746.6656,230.5156 746.8844,230.5156 C747.15,230.5156 747.4156,230.375 747.5875,230.1563 C747.6969,230 747.7281,229.8125 747.7281,229.3906 L747.7281,227.9688 C747.7281,227.5313 747.7125,227.4063 747.6188,227.25 C747.4625,226.9844 747.1813,226.8438 746.8844,226.8438 C746.5875,226.8438 746.3844,226.9375 746.1656,227.25 L745.9938,227.1719 Z " fill="#000000"/><text fill="#000000" font-family="sans-serif" font-size="12" lengthAdjust="spacingAndGlyphs" textLength="38" x="759.35" y="235.6543">Forma</text><line style="stroke:#A80036;stroke-width:1.5;" x1="722" x2="807" y1="247.5" y2="247.5"/><text fill="#000000" font-family="sans-serif" font-size="11" lengthAdjust="spacingAndGlyphs" textLength="75" x="727" y="261.7104">-Double area</text><!--MD5=[1a24822eaf8b73e881588c13f79b9fdb]
class Triangular--><rect codeLine="41" fill="#FEFECE" filter="url(#fkzlwuk5l35ua)" height="52.8047" id="Triangular" style="stroke:#A80036;stroke-width:1.5;" width="91" x="923" y="83.5"/><ellipse cx="938" cy="99.5" fill="#ADD1B2" rx="11" ry="11" style="stroke:#A80036;stroke-width:1.0;"/><path d="M940.3438,95.1719 C939.4063,94.7344 938.8125,94.5938 937.9375,94.5938 C935.3125,94.5938 933.3125,96.6719 933.3125,99.3906 L933.3125,100.5156 C933.3125,103.0938 935.4219,104.9844 938.3125,104.9844 C939.5313,104.9844 940.6875,104.6875 941.4375,104.1406 C942.0156,103.7344 942.3438,103.2813 942.3438,102.8906 C942.3438,102.4375 941.9531,102.0469 941.4844,102.0469 C941.2656,102.0469 941.0625,102.125 940.875,102.3125 C940.4219,102.7969 940.4219,102.7969 940.2344,102.8906 C939.8125,103.1563 939.125,103.2813 938.3594,103.2813 C936.3125,103.2813 935.0156,102.1875 935.0156,100.4844 L935.0156,99.3906 C935.0156,97.6094 936.2656,96.2969 938,96.2969 C938.5781,96.2969 939.1875,96.4531 939.6563,96.7031 C940.1406,96.9844 940.3125,97.2031 940.4063,97.6094 C940.4688,98.0156 940.5,98.1406 940.6406,98.2656 C940.7813,98.4063 941.0156,98.5156 941.2344,98.5156 C941.5,98.5156 941.7656,98.375 941.9375,98.1563 C942.0469,98 942.0781,97.8125 942.0781,97.3906 L942.0781,95.9688 C942.0781,95.5313 942.0625,95.4063 941.9688,95.25 C941.8125,94.9844 941.5313,94.8438 941.2344,94.8438 C940.9375,94.8438 940.7344,94.9375 940.5156,95.25 L940.3438,95.1719 Z " fill="#000000"/><text fill="#000000" font-family="sans-serif" font-size="12" lengthAdjust="spacingAndGlyphs" textLength="59" x="952" y="103.6543">Triangular</text><line style="stroke:#A80036;stroke-width:1.5;" x1="924" x2="1013" y1="115.5" y2="115.5"/><text fill="#000000" font-family="sans-serif" font-size="11" lengthAdjust="spacingAndGlyphs" textLength="75" x="929" y="129.7104">-Double area</text><!--MD5=[b6aed8f55a7bdd1ed0168b25c887807c]
class Circular--><rect codeLine="45" fill="#FEFECE" filter="url(#fkzlwuk5l35ua)" height="52.8047" id="Circular" style="stroke:#A80036;stroke-width:1.5;" width="87" x="925" y="171.5"/><ellipse cx="944.5" cy="187.5" fill="#ADD1B2" rx="11" ry="11" style="stroke:#A80036;stroke-width:1.0;"/><path d="M946.8438,183.1719 C945.9063,182.7344 945.3125,182.5938 944.4375,182.5938 C941.8125,182.5938 939.8125,184.6719 939.8125,187.3906 L939.8125,188.5156 C939.8125,191.0938 941.9219,192.9844 944.8125,192.9844 C946.0313,192.9844 947.1875,192.6875 947.9375,192.1406 C948.5156,191.7344 948.8438,191.2813 948.8438,190.8906 C948.8438,190.4375 948.4531,190.0469 947.9844,190.0469 C947.7656,190.0469 947.5625,190.125 947.375,190.3125 C946.9219,190.7969 946.9219,190.7969 946.7344,190.8906 C946.3125,191.1563 945.625,191.2813 944.8594,191.2813 C942.8125,191.2813 941.5156,190.1875 941.5156,188.4844 L941.5156,187.3906 C941.5156,185.6094 942.7656,184.2969 944.5,184.2969 C945.0781,184.2969 945.6875,184.4531 946.1563,184.7031 C946.6406,184.9844 946.8125,185.2031 946.9063,185.6094 C946.9688,186.0156 947,186.1406 947.1406,186.2656 C947.2813,186.4063 947.5156,186.5156 947.7344,186.5156 C948,186.5156 948.2656,186.375 948.4375,186.1563 C948.5469,186 948.5781,185.8125 948.5781,185.3906 L948.5781,183.9688 C948.5781,183.5313 948.5625,183.4063 948.4688,183.25 C948.3125,182.9844 948.0313,182.8438 947.7344,182.8438 C947.4375,182.8438 947.2344,182.9375 947.0156,183.25 L946.8438,183.1719 Z " fill="#000000"/><text fill="#000000" font-family="sans-serif" font-size="12" lengthAdjust="spacingAndGlyphs" textLength="45" x="959.5" y="191.6543">Circular</text><line style="stroke:#A80036;stroke-width:1.5;" x1="926" x2="1011" y1="203.5" y2="203.5"/><text fill="#000000" font-family="sans-serif" font-size="11" lengthAdjust="spacingAndGlyphs" textLength="75" x="931" y="217.7104">-Double area</text><!--MD5=[d6947a45c6a695ad90c719b257327e44]
class Rectangular--><rect codeLine="49" fill="#FEFECE" filter="url(#fkzlwuk5l35ua)" height="52.8047" id="Rectangular" style="stroke:#A80036;stroke-width:1.5;" width="102" x="917.5" y="259.5"/><ellipse cx="932.5" cy="275.5" fill="#ADD1B2" rx="11" ry="11" style="stroke:#A80036;stroke-width:1.0;"/><path d="M934.8438,271.1719 C933.9063,270.7344 933.3125,270.5938 932.4375,270.5938 C929.8125,270.5938 927.8125,272.6719 927.8125,275.3906 L927.8125,276.5156 C927.8125,279.0938 929.9219,280.9844 932.8125,280.9844 C934.0313,280.9844 935.1875,280.6875 935.9375,280.1406 C936.5156,279.7344 936.8438,279.2813 936.8438,278.8906 C936.8438,278.4375 936.4531,278.0469 935.9844,278.0469 C935.7656,278.0469 935.5625,278.125 935.375,278.3125 C934.9219,278.7969 934.9219,278.7969 934.7344,278.8906 C934.3125,279.1563 933.625,279.2813 932.8594,279.2813 C930.8125,279.2813 929.5156,278.1875 929.5156,276.4844 L929.5156,275.3906 C929.5156,273.6094 930.7656,272.2969 932.5,272.2969 C933.0781,272.2969 933.6875,272.4531 934.1563,272.7031 C934.6406,272.9844 934.8125,273.2031 934.9063,273.6094 C934.9688,274.0156 935,274.1406 935.1406,274.2656 C935.2813,274.4063 935.5156,274.5156 935.7344,274.5156 C936,274.5156 936.2656,274.375 936.4375,274.1563 C936.5469,274 936.5781,273.8125 936.5781,273.3906 L936.5781,271.9688 C936.5781,271.5313 936.5625,271.4063 936.4688,271.25 C936.3125,270.9844 936.0313,270.8438 935.7344,270.8438 C935.4375,270.8438 935.2344,270.9375 935.0156,271.25 L934.8438,271.1719 Z " fill="#000000"/><text fill="#000000" font-family="sans-serif" font-size="12" lengthAdjust="spacingAndGlyphs" textLength="70" x="946.5" y="279.6543">Rectangular</text><line style="stroke:#A80036;stroke-width:1.5;" x1="918.5" x2="1018.5" y1="291.5" y2="291.5"/><text fill="#000000" font-family="sans-serif" font-size="11" lengthAdjust="spacingAndGlyphs" textLength="75" x="923.5" y="305.7104">-Double area</text><!--MD5=[716bba0e94eea125d5a66a891f2c3c34]
class Classificacao--><rect codeLine="53" fill="#FEFECE" filter="url(#fkzlwuk5l35ua)" height="78.4141" id="Classificacao" style="stroke:#A80036;stroke-width:1.5;" width="119" x="705" y="405"/><ellipse cx="724.05" cy="421" fill="#ADD1B2" rx="11" ry="11" style="stroke:#A80036;stroke-width:1.0;"/><path d="M726.3938,416.6719 C725.4563,416.2344 724.8625,416.0938 723.9875,416.0938 C721.3625,416.0938 719.3625,418.1719 719.3625,420.8906 L719.3625,422.0156 C719.3625,424.5938 721.4719,426.4844 724.3625,426.4844 C725.5813,426.4844 726.7375,426.1875 727.4875,425.6406 C728.0656,425.2344 728.3938,424.7813 728.3938,424.3906 C728.3938,423.9375 728.0031,423.5469 727.5344,423.5469 C727.3156,423.5469 727.1125,423.625 726.925,423.8125 C726.4719,424.2969 726.4719,424.2969 726.2844,424.3906 C725.8625,424.6563 725.175,424.7813 724.4094,424.7813 C722.3625,424.7813 721.0656,423.6875 721.0656,421.9844 L721.0656,420.8906 C721.0656,419.1094 722.3156,417.7969 724.05,417.7969 C724.6281,417.7969 725.2375,417.9531 725.7063,418.2031 C726.1906,418.4844 726.3625,418.7031 726.4563,419.1094 C726.5188,419.5156 726.55,419.6406 726.6906,419.7656 C726.8313,419.9063 727.0656,420.0156 727.2844,420.0156 C727.55,420.0156 727.8156,419.875 727.9875,419.6563 C728.0969,419.5 728.1281,419.3125 728.1281,418.8906 L728.1281,417.4688 C728.1281,417.0313 728.1125,416.9063 728.0188,416.75 C727.8625,416.4844 727.5813,416.3438 727.2844,416.3438 C726.9875,416.3438 726.7844,416.4375 726.5656,416.75 L726.3938,416.6719 Z " fill="#000000"/><text fill="#000000" font-family="sans-serif" font-size="12" lengthAdjust="spacingAndGlyphs" textLength="78" x="738.95" y="425.1543">Classificacao</text><line style="stroke:#A80036;stroke-width:1.5;" x1="706" x2="823" y1="437" y2="437"/><text fill="#000000" font-family="sans-serif" font-size="11" lengthAdjust="spacingAndGlyphs" textLength="68" x="711" y="451.2104">-String desc</text><text fill="#000000" font-family="sans-serif" font-size="11" lengthAdjust="spacingAndGlyphs" textLength="107" x="711" y="464.0151">-Double areaConst</text><text fill="#000000" font-family="sans-serif" font-size="11" lengthAdjust="spacingAndGlyphs" textLength="98" x="711" y="476.8198">-String dataConst</text><!--MD5=[e1b108aeef6100ad38510f06dc65f284]
class Urbana--><rect codeLine="59" fill="#FEFECE" filter="url(#fkzlwuk5l35ua)" height="78.4141" id="Urbana" style="stroke:#A80036;stroke-width:1.5;" width="119" x="909" y="348"/><ellipse cx="943.8" cy="364" fill="#ADD1B2" rx="11" ry="11" style="stroke:#A80036;stroke-width:1.0;"/><path d="M946.1438,359.6719 C945.2063,359.2344 944.6125,359.0938 943.7375,359.0938 C941.1125,359.0938 939.1125,361.1719 939.1125,363.8906 L939.1125,365.0156 C939.1125,367.5938 941.2219,369.4844 944.1125,369.4844 C945.3313,369.4844 946.4875,369.1875 947.2375,368.6406 C947.8156,368.2344 948.1438,367.7813 948.1438,367.3906 C948.1438,366.9375 947.7531,366.5469 947.2844,366.5469 C947.0656,366.5469 946.8625,366.625 946.675,366.8125 C946.2219,367.2969 946.2219,367.2969 946.0344,367.3906 C945.6125,367.6563 944.925,367.7813 944.1594,367.7813 C942.1125,367.7813 940.8156,366.6875 940.8156,364.9844 L940.8156,363.8906 C940.8156,362.1094 942.0656,360.7969 943.8,360.7969 C944.3781,360.7969 944.9875,360.9531 945.4563,361.2031 C945.9406,361.4844 946.1125,361.7031 946.2063,362.1094 C946.2688,362.5156 946.3,362.6406 946.4406,362.7656 C946.5813,362.9063 946.8156,363.0156 947.0344,363.0156 C947.3,363.0156 947.5656,362.875 947.7375,362.6563 C947.8469,362.5 947.8781,362.3125 947.8781,361.8906 L947.8781,360.4688 C947.8781,360.0313 947.8625,359.9063 947.7688,359.75 C947.6125,359.4844 947.3313,359.3438 947.0344,359.3438 C946.7375,359.3438 946.5344,359.4375 946.3156,359.75 L946.1438,359.6719 Z " fill="#000000"/><text fill="#000000" font-family="sans-serif" font-size="12" lengthAdjust="spacingAndGlyphs" textLength="43" x="962.2" y="368.1543">Urbana</text><line style="stroke:#A80036;stroke-width:1.5;" x1="910" x2="1027" y1="380" y2="380"/><text fill="#000000" font-family="sans-serif" font-size="11" lengthAdjust="spacingAndGlyphs" textLength="68" x="915" y="394.2104">-String desc</text><text fill="#000000" font-family="sans-serif" font-size="11" lengthAdjust="spacingAndGlyphs" textLength="107" x="915" y="407.0151">-Double areaConst</text><text fill="#000000" font-family="sans-serif" font-size="11" lengthAdjust="spacingAndGlyphs" textLength="98" x="915" y="419.8198">-String dataConst</text><!--MD5=[97e7c7c927ed2b2c9a6c4a278020550a]
class Industrial--><rect codeLine="65" fill="#FEFECE" filter="url(#fkzlwuk5l35ua)" height="78.4141" id="Industrial" style="stroke:#A80036;stroke-width:1.5;" width="119" x="909" y="461"/><ellipse cx="938.85" cy="477" fill="#ADD1B2" rx="11" ry="11" style="stroke:#A80036;stroke-width:1.0;"/><path d="M941.1938,472.6719 C940.2563,472.2344 939.6625,472.0938 938.7875,472.0938 C936.1625,472.0938 934.1625,474.1719 934.1625,476.8906 L934.1625,478.0156 C934.1625,480.5938 936.2719,482.4844 939.1625,482.4844 C940.3813,482.4844 941.5375,482.1875 942.2875,481.6406 C942.8656,481.2344 943.1938,480.7813 943.1938,480.3906 C943.1938,479.9375 942.8031,479.5469 942.3344,479.5469 C942.1156,479.5469 941.9125,479.625 941.725,479.8125 C941.2719,480.2969 941.2719,480.2969 941.0844,480.3906 C940.6625,480.6563 939.975,480.7813 939.2094,480.7813 C937.1625,480.7813 935.8656,479.6875 935.8656,477.9844 L935.8656,476.8906 C935.8656,475.1094 937.1156,473.7969 938.85,473.7969 C939.4281,473.7969 940.0375,473.9531 940.5063,474.2031 C940.9906,474.4844 941.1625,474.7031 941.2563,475.1094 C941.3188,475.5156 941.35,475.6406 941.4906,475.7656 C941.6313,475.9063 941.8656,476.0156 942.0844,476.0156 C942.35,476.0156 942.6156,475.875 942.7875,475.6563 C942.8969,475.5 942.9281,475.3125 942.9281,474.8906 L942.9281,473.4688 C942.9281,473.0313 942.9125,472.9063 942.8188,472.75 C942.6625,472.4844 942.3813,472.3438 942.0844,472.3438 C941.7875,472.3438 941.5844,472.4375 941.3656,472.75 L941.1938,472.6719 Z " fill="#000000"/><text fill="#000000" font-family="sans-serif" font-size="12" lengthAdjust="spacingAndGlyphs" textLength="54" x="956.15" y="481.1543">Industrial</text><line style="stroke:#A80036;stroke-width:1.5;" x1="910" x2="1027" y1="493" y2="493"/><text fill="#000000" font-family="sans-serif" font-size="11" lengthAdjust="spacingAndGlyphs" textLength="68" x="915" y="507.2104">-String desc</text><text fill="#000000" font-family="sans-serif" font-size="11" lengthAdjust="spacingAndGlyphs" textLength="107" x="915" y="520.0151">-Double areaConst</text><text fill="#000000" font-family="sans-serif" font-size="11" lengthAdjust="spacingAndGlyphs" textLength="98" x="915" y="532.8198">-String dataConst</text><!--MD5=[9d6c8135b42eb16496d6c21566b10e69]
class Rural--><rect codeLine="71" fill="#FEFECE" filter="url(#fkzlwuk5l35ua)" height="78.4141" id="Rural" style="stroke:#A80036;stroke-width:1.5;" width="119" x="909" y="574"/><ellipse cx="950.1" cy="590" fill="#ADD1B2" rx="11" ry="11" style="stroke:#A80036;stroke-width:1.0;"/><path d="M952.4438,585.6719 C951.5063,585.2344 950.9125,585.0938 950.0375,585.0938 C947.4125,585.0938 945.4125,587.1719 945.4125,589.8906 L945.4125,591.0156 C945.4125,593.5938 947.5219,595.4844 950.4125,595.4844 C951.6313,595.4844 952.7875,595.1875 953.5375,594.6406 C954.1156,594.2344 954.4438,593.7813 954.4438,593.3906 C954.4438,592.9375 954.0531,592.5469 953.5844,592.5469 C953.3656,592.5469 953.1625,592.625 952.975,592.8125 C952.5219,593.2969 952.5219,593.2969 952.3344,593.3906 C951.9125,593.6563 951.225,593.7813 950.4594,593.7813 C948.4125,593.7813 947.1156,592.6875 947.1156,590.9844 L947.1156,589.8906 C947.1156,588.1094 948.3656,586.7969 950.1,586.7969 C950.6781,586.7969 951.2875,586.9531 951.7563,587.2031 C952.2406,587.4844 952.4125,587.7031 952.5063,588.1094 C952.5688,588.5156 952.6,588.6406 952.7406,588.7656 C952.8813,588.9063 953.1156,589.0156 953.3344,589.0156 C953.6,589.0156 953.8656,588.875 954.0375,588.6563 C954.1469,588.5 954.1781,588.3125 954.1781,587.8906 L954.1781,586.4688 C954.1781,586.0313 954.1625,585.9063 954.0688,585.75 C953.9125,585.4844 953.6313,585.3438 953.3344,585.3438 C953.0375,585.3438 952.8344,585.4375 952.6156,585.75 L952.4438,585.6719 Z " fill="#000000"/><text fill="#000000" font-family="sans-serif" font-size="12" lengthAdjust="spacingAndGlyphs" textLength="29" x="969.9" y="594.1543">Rural</text><line style="stroke:#A80036;stroke-width:1.5;" x1="910" x2="1027" y1="606" y2="606"/><text fill="#000000" font-family="sans-serif" font-size="11" lengthAdjust="spacingAndGlyphs" textLength="68" x="915" y="620.2104">-String desc</text><text fill="#000000" font-family="sans-serif" font-size="11" lengthAdjust="spacingAndGlyphs" textLength="107" x="915" y="633.0151">-Double areaConst</text><text fill="#000000" font-family="sans-serif" font-size="11" lengthAdjust="spacingAndGlyphs" textLength="98" x="915" y="645.8198">-String dataConst</text><!--MD5=[e8772d8d63e33a37d8668d3122b6c8d5]
link Autarquia to Freguesia--><path codeLine="77" d="M95.0623,139.721 C104.7679,145.361 115.123,151.086 125,156 C152.861,169.861 185.174,183.209 210.737,193.166 " fill="none" id="Autarquia-Freguesia" style="stroke:#A80036;stroke-width:1.0;"/><polygon fill="#000000" points="134.539,149.6635,127.5606,143.2019,125.0953,148.5377,134.539,149.6635" style="stroke:#000000;stroke-width:1.0;"/><text fill="#000000" font-family="sans-serif" font-size="13" lengthAdjust="spacingAndGlyphs" textLength="41" x="139" y="152.0669">possui</text><text fill="#000000" font-family="sans-serif" font-size="13" lengthAdjust="spacingAndGlyphs" textLength="8" x="95.8259" y="159.3096">1</text><text fill="#000000" font-family="sans-serif" font-size="13" lengthAdjust="spacingAndGlyphs" textLength="27" x="176.0799" y="204.058">1...*</text><!--MD5=[9d1f79f015101a430f970ca1fac3815a]
link Autarquia to Pessoa--><path codeLine="78" d="M95.3317,114.125 C168.062,116.015 315.39,119.841 403.761,122.137 " fill="none" id="Autarquia-Pessoa" style="stroke:#A80036;stroke-width:1.0;"/><polygon fill="#000000" points="246.4983,108.6962,237.5326,105.5234,237.38,111.3993,246.4983,108.6962" style="stroke:#000000;stroke-width:1.0;"/><text fill="#000000" font-family="sans-serif" font-size="13" lengthAdjust="spacingAndGlyphs" textLength="26" x="250.5" y="113.0669">tem</text><text fill="#000000" font-family="sans-serif" font-size="13" lengthAdjust="spacingAndGlyphs" textLength="8" x="103.0346" y="127.5927">1</text><text fill="#000000" font-family="sans-serif" font-size="13" lengthAdjust="spacingAndGlyphs" textLength="27" x="369.0803" y="134.6934">1...*</text><!--MD5=[a8bb375dffa434869353e727df24f725]
link Autarquia to Funcionario--><path codeLine="79" d="M95.16,96.914 C104.8601,93.833 115.188,90.961 125,89 C323.451,49.332 377.213,69.434 579,54 C620.318,50.84 666.844,47.309 702.838,44.585 " fill="none" id="Autarquia-Funcionario" style="stroke:#A80036;stroke-width:1.0;"/><polygon fill="#000000" points="342.9816,52.1374,333.7177,49.9854,334.222,55.8415,342.9816,52.1374" style="stroke:#000000;stroke-width:1.0;"/><text fill="#000000" font-family="sans-serif" font-size="13" lengthAdjust="spacingAndGlyphs" textLength="26" x="347" y="57.0669">tem</text><text fill="#000000" font-family="sans-serif" font-size="13" lengthAdjust="spacingAndGlyphs" textLength="8" x="103.1365" y="107.586">1</text><text fill="#000000" font-family="sans-serif" font-size="13" lengthAdjust="spacingAndGlyphs" textLength="27" x="668.0869" y="57.9251">1...*</text><!--MD5=[97f4d02d2a2e1049e7b3bab1d1d1a91f]
link Pessoa to Funcionario--><path codeLine="81" d="M549.133,108.285 C586.383,99.55 632.478,87.86 673,75 C682.634,71.943 692.723,68.396 702.525,64.757 " fill="none" id="Pessoa-Funcionario" style="stroke:#A80036;stroke-width:1.0;"/><polygon fill="#000000" points="624.3101,65.2015,614.8063,64.8434,616.4109,70.498,624.3101,65.2015" style="stroke:#000000;stroke-width:1.0;"/><text fill="#000000" font-family="sans-serif" font-size="13" lengthAdjust="spacingAndGlyphs" textLength="8" x="628.5" y="71.0669">é</text><text fill="#000000" font-family="sans-serif" font-size="13" lengthAdjust="spacingAndGlyphs" textLength="8" x="557.0358" y="119.4902">1</text><text fill="#000000" font-family="sans-serif" font-size="13" lengthAdjust="spacingAndGlyphs" textLength="24" x="670.8963" y="80.1774">0..1</text><!--MD5=[47051fed48d110500a8c7a9c799d5112]
link Pessoa to Escritura--><path codeLine="82" d="M549.021,129.809 C559.085,130.577 569.301,131.329 579,132 C627.818,135.379 683.946,138.636 721.351,140.717 " fill="none" id="Pessoa-Escritura" style="stroke:#A80036;stroke-width:1.0;"/><polygon fill="#000000" points="615.49,123.8823,606.6486,120.3778,606.2773,126.2439,615.49,123.8823" style="stroke:#000000;stroke-width:1.0;"/><text fill="#000000" font-family="sans-serif" font-size="13" lengthAdjust="spacingAndGlyphs" textLength="26" x="619.5" y="128.0669">tem</text><text fill="#000000" font-family="sans-serif" font-size="13" lengthAdjust="spacingAndGlyphs" textLength="27" x="556.9511" y="143.0899">1...*</text><text fill="#000000" font-family="sans-serif" font-size="13" lengthAdjust="spacingAndGlyphs" textLength="27" x="686.3847" y="153.5543">0...*</text><!--MD5=[fe58f711169fdf6c6f3bd7925b9573f1]
link Freguesia to Terreno--><path codeLine="84" d="M303.343,223.36 C313.062,225.866 323.32,228.246 333,230 C361.374,235.142 393.292,238.498 419.717,240.632 " fill="none" id="Freguesia-Terreno" style="stroke:#A80036;stroke-width:1.0;"/><polygon fill="#000000" points="342.9458,222.3005,334.4302,218.0655,333.5673,223.8796,342.9458,222.3005" style="stroke:#000000;stroke-width:1.0;"/><text fill="#000000" font-family="sans-serif" font-size="13" lengthAdjust="spacingAndGlyphs" textLength="26" x="347" y="226.0669">tem</text><text fill="#000000" font-family="sans-serif" font-size="13" lengthAdjust="spacingAndGlyphs" textLength="8" x="311.0518" y="238.6462">1</text><text fill="#000000" font-family="sans-serif" font-size="13" lengthAdjust="spacingAndGlyphs" textLength="27" x="385.0298" y="253.1461">1...*</text><!--MD5=[6571597d05da3f90679511d771047437]
link Freguesia to Pessoa--><path codeLine="85" d="M303.066,192.181 C332.182,180.668 370.702,165.437 403.948,152.292 " fill="none" id="Freguesia-Pessoa" style="stroke:#A80036;stroke-width:1.0;stroke-dasharray:7.0,7.0;"/><polygon fill="#000000" points="342.6497,153.7279,333.1576,154.3208,335.3189,159.7868,342.6497,153.7279" style="stroke:#000000;stroke-width:1.0;"/><text fill="#000000" font-family="sans-serif" font-size="13" lengthAdjust="spacingAndGlyphs" textLength="26" x="347" y="160.0669">tem</text><text fill="#000000" font-family="sans-serif" font-size="13" lengthAdjust="spacingAndGlyphs" textLength="8" x="311.0453" y="202.6295">1</text><text fill="#000000" font-family="sans-serif" font-size="13" lengthAdjust="spacingAndGlyphs" textLength="27" x="369.0151" y="167.6455">1...*</text><!--MD5=[bb2ac99ed3864569c12ac4b2b8fa227c]
link Terreno to Forma--><path codeLine="86" d="M533.125,246.123 C572.251,247.306 625.834,248.302 673,247 C688.572,246.57 705.635,245.725 720.706,244.85 " fill="none" id="Terreno-Forma" style="stroke:#A80036;stroke-width:1.0;"/><polygon fill="#000000" points="615.4999,238.5325,606.4351,235.655,606.475,241.5327,615.4999,238.5325" style="stroke:#000000;stroke-width:1.0;"/><text fill="#000000" font-family="sans-serif" font-size="13" lengthAdjust="spacingAndGlyphs" textLength="26" x="619.5" y="243.0669">tem</text><text fill="#000000" font-family="sans-serif" font-size="13" lengthAdjust="spacingAndGlyphs" textLength="23" x="541.002" y="259.2976">1..*</text><text fill="#000000" font-family="sans-serif" font-size="13" lengthAdjust="spacingAndGlyphs" textLength="8" x="705.0888" y="258.5926">1</text><!--MD5=[0e6a292806aae07b926a297a01593e7d]
link Terreno to Classificacao--><path codeLine="87" d="M533.323,283.037 C583.554,318.164 656.992,369.519 707.33,404.72 " fill="none" id="Terreno-Classificacao" style="stroke:#A80036;stroke-width:1.0;"/><polygon fill="#000000" points="614.5975,314.4318,608.8693,306.8398,605.5008,311.6567,614.5975,314.4318" style="stroke:#000000;stroke-width:1.0;"/><text fill="#000000" font-family="sans-serif" font-size="13" lengthAdjust="spacingAndGlyphs" textLength="26" x="619.5" y="316.0669">tem</text><text fill="#000000" font-family="sans-serif" font-size="13" lengthAdjust="spacingAndGlyphs" textLength="23" x="540.7958" y="300.1892">1..*</text><text fill="#000000" font-family="sans-serif" font-size="13" lengthAdjust="spacingAndGlyphs" textLength="8" x="689.1987" y="394.0157">1</text><!--MD5=[d1c4e62a2a52de7ff48c70b94e540036]
link Terreno to Escritura--><path codeLine="88" d="M533.323,224.286 C588.431,204.825 671.471,175.5 721.296,157.904 " fill="none" id="Terreno-Escritura" style="stroke:#A80036;stroke-width:1.0;"/><polygon fill="#000000" points="588.7146,164.9014,579.2071,165.1422,581.1644,170.6846,588.7146,164.9014" style="stroke:#000000;stroke-width:1.0;"/><text fill="#000000" font-family="sans-serif" font-size="13" lengthAdjust="spacingAndGlyphs" textLength="79" x="593" y="171.0669">está contido</text><text fill="#000000" font-family="sans-serif" font-size="13" lengthAdjust="spacingAndGlyphs" textLength="8" x="541.1159" y="234.7825">1</text><text fill="#000000" font-family="sans-serif" font-size="13" lengthAdjust="spacingAndGlyphs" textLength="8" x="705.4778" y="173.7249">1</text><!--MD5=[1c465b32ca0468e7ec758b35a8aaffc3]
reverse link Forma to Triangular--><path codeLine="90" d="M810.977,212.282 C845.712,189.584 893.16,158.579 926.683,136.672 " fill="none" id="Forma-backto-Triangular" style="stroke:#A80036;stroke-width:1.0;"/><polygon fill="#A80036" points="806.378,215.288,816.1,213.7124,810.5634,212.5525,811.7233,207.0159,806.378,215.288" style="stroke:#A80036;stroke-width:1.0;"/><polygon fill="#000000" points="865.1856,156.8313,856.0061,159.319,859.2215,164.2394,865.1856,156.8313" style="stroke:#000000;stroke-width:1.0;"/><text fill="#000000" font-family="sans-serif" font-size="13" lengthAdjust="spacingAndGlyphs" textLength="8" x="870" y="164.0669">é</text><text fill="#000000" font-family="sans-serif" font-size="13" lengthAdjust="spacingAndGlyphs" textLength="8" x="807.1373" y="204.4813">1</text><text fill="#000000" font-family="sans-serif" font-size="13" lengthAdjust="spacingAndGlyphs" textLength="8" x="908.6605" y="156.2499">1</text><!--MD5=[03b4786bbfe644ecee2a05797579cc38]
reverse link Forma to Circular--><path codeLine="91" d="M813.246,231.6 C847.074,224.231 892.065,214.431 924.723,207.318 " fill="none" id="Forma-backto-Circular" style="stroke:#A80036;stroke-width:1.0;"/><polygon fill="#A80036" points="808.339,232.669,817.9843,234.6612,813.2244,231.6045,816.281,226.8446,808.339,232.669" style="stroke:#A80036;stroke-width:1.0;"/><polygon fill="#000000" points="865.8854,207.5023,856.4221,206.5557,857.6731,212.2989,865.8854,207.5023" style="stroke:#000000;stroke-width:1.0;"/><text fill="#000000" font-family="sans-serif" font-size="13" lengthAdjust="spacingAndGlyphs" textLength="8" x="870" y="213.0669">é</text><text fill="#000000" font-family="sans-serif" font-size="13" lengthAdjust="spacingAndGlyphs" textLength="8" x="815.9633" y="244.4702">1</text><text fill="#000000" font-family="sans-serif" font-size="13" lengthAdjust="spacingAndGlyphs" textLength="8" x="909.1085" y="222.0914">1</text><!--MD5=[4137596e5fb08a916841c8b9c7c2f64b]
reverse link Forma to Rectangular--><path codeLine="92" d="M813.279,252.407 C844.584,259.226 885.44,268.126 917.235,275.051 " fill="none" id="Forma-backto-Rectangular" style="stroke:#A80036;stroke-width:1.0;"/><polygon fill="#A80036" points="808.339,251.331,816.281,257.1554,813.2244,252.3955,817.9843,249.3388,808.339,251.331" style="stroke:#A80036;stroke-width:1.0;"/><polygon fill="#000000" points="870.8854,256.5642,862.6731,251.7675,861.4221,257.5107,870.8854,256.5642" style="stroke:#000000;stroke-width:1.0;"/><text fill="#000000" font-family="sans-serif" font-size="13" lengthAdjust="spacingAndGlyphs" textLength="8" x="815.9633" y="266.1065">1</text><text fill="#000000" font-family="sans-serif" font-size="13" lengthAdjust="spacingAndGlyphs" textLength="8" x="901.4634" y="286.656">1</text><!--MD5=[831c5d2265282725a77cd49af7f57604]
reverse link Classificacao to Rural--><path codeLine="94" d="M816.209,486.425 C848.222,513.208 889.287,547.565 920.554,573.7234 " fill="none" id="Classificacao-backto-Rural" style="stroke:#A80036;stroke-width:1.0;"/><polygon fill="#A80036" points="812.351,483.197,816.6881,492.0395,816.1862,486.4049,821.8208,485.9031,812.351,483.197" style="stroke:#A80036;stroke-width:1.0;"/><polygon fill="#000000" points="864.8349,517.7748,859.7834,509.7167,856.0117,514.2249,864.8349,517.7748" style="stroke:#000000;stroke-width:1.0;"/><text fill="#000000" font-family="sans-serif" font-size="13" lengthAdjust="spacingAndGlyphs" textLength="8" x="870" y="519.0669">é</text><text fill="#000000" font-family="sans-serif" font-size="13" lengthAdjust="spacingAndGlyphs" textLength="8" x="812.162" y="503.5567">1</text><text fill="#000000" font-family="sans-serif" font-size="13" lengthAdjust="spacingAndGlyphs" textLength="8" x="903.9504" y="563.0196">1</text><!--MD5=[68897943cf52423f8cdb49efab270e91]
reverse link Classificacao to Urbana--><path codeLine="95" d="M829.231,426.016 C854.654,418.843 883.74,410.635 908.655,403.605 " fill="none" id="Classificacao-backto-Urbana" style="stroke:#A80036;stroke-width:1.0;"/><polygon fill="#A80036" points="824.198,427.437,833.9459,428.8435,829.0102,426.0796,831.7741,421.144,824.198,427.437" style="stroke:#A80036;stroke-width:1.0;"/><polygon fill="#000000" points="865.8121,402.2086,856.3088,401.8364,857.905,407.4934,865.8121,402.2086" style="stroke:#000000;stroke-width:1.0;"/><text fill="#000000" font-family="sans-serif" font-size="13" lengthAdjust="spacingAndGlyphs" textLength="8" x="870" y="408.0669">é</text><text fill="#000000" font-family="sans-serif" font-size="13" lengthAdjust="spacingAndGlyphs" textLength="8" x="831.9612" y="438.3822">1</text><text fill="#000000" font-family="sans-serif" font-size="13" lengthAdjust="spacingAndGlyphs" textLength="8" x="892.8739" y="418.5926">1</text><!--MD5=[3d88720ea708b8b4b0463f4934725acf]
reverse link Classificacao to Industrial--><path codeLine="96" d="M829.231,461.668 C854.654,468.716 883.74,476.779 908.655,483.687 " fill="none" id="Classificacao-backto-Industrial" style="stroke:#A80036;stroke-width:1.0;"/><polygon fill="#A80036" points="824.198,460.273,831.8024,466.5318,829.0163,461.6086,833.9395,458.8225,824.198,460.273" style="stroke:#A80036;stroke-width:1.0;"/><polygon fill="#000000" points="865.8183,462.9022,857.8871,457.6536,856.3168,463.3178,865.8183,462.9022" style="stroke:#000000;stroke-width:1.0;"/><text fill="#000000" font-family="sans-serif" font-size="13" lengthAdjust="spacingAndGlyphs" textLength="8" x="870" y="466.0669">é</text><text fill="#000000" font-family="sans-serif" font-size="13" lengthAdjust="spacingAndGlyphs" textLength="8" x="831.9612" y="475.2201">1</text><text fill="#000000" font-family="sans-serif" font-size="13" lengthAdjust="spacingAndGlyphs" textLength="8" x="892.8739" y="494.6627">1</text><!--MD5=[197a27047debdded98f525fb295ca66e]
@startuml
skinparam classAttributeIconSize 0
hide methods
left to right direction

class Autarquia {
  -String nome
}

class Pessoa {
  -String nome	
  -String nif
  -String dataNascimento

}

class Funcionario {
  -String cargo
  -String numeroFunc
}

class Escritura {
  -Integer num
  -String data
}

class Freguesia {
  -String nome
}

class Terreno {
  -Integer id
  -String indiceCont
  -Double area
  -Double imi
}

class Forma {
  -Double area
}

class Triangular {
  -Double area
}

class Circular {
  -Double area
}

class Rectangular {
  -Double area
}

class Classificacao {
  -String desc
  -Double areaConst
  -String dataConst
}

class Urbana {
  -String desc
  -Double areaConst
  -String dataConst
}

class Industrial {
  -String desc
  -Double areaConst
  -String dataConst
}

class Rural {
  -String desc
  -Double areaConst
  -String dataConst
}

Autarquia "1" - - "1...*" Freguesia : possui >
Autarquia "1" - - "1...*" Pessoa : tem >
Autarquia "1" - - "1...*" Funcionario : tem >

Pessoa "1" - - "0..1" Funcionario : é >
Pessoa "1...*" - - "0...*" Escritura : tem  >

Freguesia "1" - - "1...*" Terreno : tem >
Freguesia "1" .. "1...*" Pessoa : tem >
Terreno "1..*" - - "1" Forma : tem >
Terreno "1..*" - - "1" Classificacao : tem >
Terreno "1" - - "1" Escritura : está contido >

Forma "1" <- - "1" Triangular : é >
Forma "1" <- - "1" Circular : é >
Forma "1" <- - "1" Rectangular : >

Classificacao "1" <- - "1" Rural : é >
Classificacao "1" <- - "1" Urbana : é >
Classificacao "1" <- - "1" Industrial : é >
@enduml

PlantUML version 1.2020.21beta7(Unknown compile time)
(GPL source distribution)
Java Runtime: Java(TM) SE Runtime Environment
JVM: Java HotSpot(TM) 64-Bit Server VM
Default Encoding: UTF-8
Language: en
Country: US
--></g></svg>