<?xml version="1.0" encoding="UTF-8" standalone="no"?><svg xmlns="http://www.w3.org/2000/svg" xmlns:xlink="http://www.w3.org/1999/xlink" contentScriptType="application/ecmascript" contentStyleType="text/css" height="947px" preserveAspectRatio="none" style="width:1093px;height:947px;" version="1.1" viewBox="0 0 1093 947" width="1093px" zoomAndPan="magnify"><defs><filter height="300%" id="f1wvkseneb7a38" width="300%" x="-1" y="-1"><feGaussianBlur result="blurOut" stdDeviation="2.0"/><feColorMatrix in="blurOut" result="blurOut2" type="matrix" values="0 0 0 0 0 0 0 0 0 0 0 0 0 0 0 0 0 0 .4 0"/><feOffset dx="4.0" dy="4.0" in="blurOut2" result="blurOut3"/><feBlend in="SourceGraphic" in2="blurOut3" mode="normal"/></filter></defs><g><!--MD5=[b8b6ee908b7faff6fecf4288f82e2ead]
class Autarquia--><rect codeLine="5" fill="#FEFECE" filter="url(#f1wvkseneb7a38)" height="104.0234" id="Autarquia" style="stroke:#A80036;stroke-width:1.5;" width="112" x="7" y="75"/><ellipse cx="32.8" cy="91" fill="#ADD1B2" rx="11" ry="11" style="stroke:#A80036;stroke-width:1.0;"/><path d="M35.1438,86.6719 C34.2063,86.2344 33.6125,86.0938 32.7375,86.0938 C30.1125,86.0938 28.1125,88.1719 28.1125,90.8906 L28.1125,92.0156 C28.1125,94.5938 30.2219,96.4844 33.1125,96.4844 C34.3313,96.4844 35.4875,96.1875 36.2375,95.6406 C36.8156,95.2344 37.1438,94.7813 37.1438,94.3906 C37.1438,93.9375 36.7531,93.5469 36.2844,93.5469 C36.0656,93.5469 35.8625,93.625 35.675,93.8125 C35.2219,94.2969 35.2219,94.2969 35.0344,94.3906 C34.6125,94.6563 33.925,94.7813 33.1594,94.7813 C31.1125,94.7813 29.8156,93.6875 29.8156,91.9844 L29.8156,90.8906 C29.8156,89.1094 31.0656,87.7969 32.8,87.7969 C33.3781,87.7969 33.9875,87.9531 34.4563,88.2031 C34.9406,88.4844 35.1125,88.7031 35.2063,89.1094 C35.2688,89.5156 35.3,89.6406 35.4406,89.7656 C35.5813,89.9063 35.8156,90.0156 36.0344,90.0156 C36.3,90.0156 36.5656,89.875 36.7375,89.6563 C36.8469,89.5 36.8781,89.3125 36.8781,88.8906 L36.8781,87.4688 C36.8781,87.0313 36.8625,86.9063 36.7688,86.75 C36.6125,86.4844 36.3313,86.3438 36.0344,86.3438 C35.7375,86.3438 35.5344,86.4375 35.3156,86.75 L35.1438,86.6719 Z " fill="#000000"/><text fill="#000000" font-family="sans-serif" font-size="12" lengthAdjust="spacingAndGlyphs" textLength="56" x="49.2" y="95.1543">Autarquia</text><line style="stroke:#A80036;stroke-width:1.5;" x1="8" x2="118" y1="107" y2="107"/><text fill="#000000" font-family="sans-serif" font-size="11" lengthAdjust="spacingAndGlyphs" textLength="74" x="13" y="121.2104">-String nome</text><text fill="#000000" font-family="sans-serif" font-size="11" lengthAdjust="spacingAndGlyphs" textLength="79" x="13" y="134.0151">-Int valorBase</text><text fill="#000000" font-family="sans-serif" font-size="11" lengthAdjust="spacingAndGlyphs" textLength="87" x="13" y="146.8198">-List pessoaList</text><text fill="#000000" font-family="sans-serif" font-size="11" lengthAdjust="spacingAndGlyphs" textLength="100" x="13" y="159.6245">-List freguesiaList</text><text fill="#000000" font-family="sans-serif" font-size="11" lengthAdjust="spacingAndGlyphs" textLength="95" x="13" y="172.4292">-List escrituraList</text><!--MD5=[ec4e9ac521a71f7b069122f6baf1b57e]
class Pessoa--><rect codeLine="13" fill="#FEFECE" filter="url(#f1wvkseneb7a38)" height="91.2188" id="Pessoa" style="stroke:#A80036;stroke-width:1.5;" width="145" x="447" y="95.5"/><ellipse cx="493.75" cy="111.5" fill="#ADD1B2" rx="11" ry="11" style="stroke:#A80036;stroke-width:1.0;"/><path d="M496.0938,107.1719 C495.1563,106.7344 494.5625,106.5938 493.6875,106.5938 C491.0625,106.5938 489.0625,108.6719 489.0625,111.3906 L489.0625,112.5156 C489.0625,115.0938 491.1719,116.9844 494.0625,116.9844 C495.2813,116.9844 496.4375,116.6875 497.1875,116.1406 C497.7656,115.7344 498.0938,115.2813 498.0938,114.8906 C498.0938,114.4375 497.7031,114.0469 497.2344,114.0469 C497.0156,114.0469 496.8125,114.125 496.625,114.3125 C496.1719,114.7969 496.1719,114.7969 495.9844,114.8906 C495.5625,115.1563 494.875,115.2813 494.1094,115.2813 C492.0625,115.2813 490.7656,114.1875 490.7656,112.4844 L490.7656,111.3906 C490.7656,109.6094 492.0156,108.2969 493.75,108.2969 C494.3281,108.2969 494.9375,108.4531 495.4063,108.7031 C495.8906,108.9844 496.0625,109.2031 496.1563,109.6094 C496.2188,110.0156 496.25,110.1406 496.3906,110.2656 C496.5313,110.4063 496.7656,110.5156 496.9844,110.5156 C497.25,110.5156 497.5156,110.375 497.6875,110.1563 C497.7969,110 497.8281,109.8125 497.8281,109.3906 L497.8281,107.9688 C497.8281,107.5313 497.8125,107.4063 497.7188,107.25 C497.5625,106.9844 497.2813,106.8438 496.9844,106.8438 C496.6875,106.8438 496.4844,106.9375 496.2656,107.25 L496.0938,107.1719 Z " fill="#000000"/><text fill="#000000" font-family="sans-serif" font-size="12" lengthAdjust="spacingAndGlyphs" textLength="43" x="514.25" y="115.6543">Pessoa</text><line style="stroke:#A80036;stroke-width:1.5;" x1="448" x2="591" y1="127.5" y2="127.5"/><text fill="#000000" font-family="sans-serif" font-size="11" lengthAdjust="spacingAndGlyphs" textLength="74" x="453" y="141.7104">-String nome</text><text fill="#000000" font-family="sans-serif" font-size="11" lengthAdjust="spacingAndGlyphs" textLength="55" x="453" y="154.5151">-String nif</text><text fill="#000000" font-family="sans-serif" font-size="11" lengthAdjust="spacingAndGlyphs" textLength="133" x="453" y="167.3198">-String dataNascimento</text><text fill="#000000" font-family="sans-serif" font-size="11" lengthAdjust="spacingAndGlyphs" textLength="110" x="453" y="180.1245">-Int terrenosOwned</text><!--MD5=[cf98b8104f7f757d2a3327e9c712e420]
class Funcionario--><rect codeLine="20" fill="#FEFECE" filter="url(#f1wvkseneb7a38)" height="65.6094" id="Funcionario" style="stroke:#A80036;stroke-width:1.5;" width="123" x="711.5" y="7"/><ellipse cx="736.4" cy="23" fill="#ADD1B2" rx="11" ry="11" style="stroke:#A80036;stroke-width:1.0;"/><path d="M738.7438,18.6719 C737.8063,18.2344 737.2125,18.0938 736.3375,18.0938 C733.7125,18.0938 731.7125,20.1719 731.7125,22.8906 L731.7125,24.0156 C731.7125,26.5938 733.8219,28.4844 736.7125,28.4844 C737.9313,28.4844 739.0875,28.1875 739.8375,27.6406 C740.4156,27.2344 740.7438,26.7813 740.7438,26.3906 C740.7438,25.9375 740.3531,25.5469 739.8844,25.5469 C739.6656,25.5469 739.4625,25.625 739.275,25.8125 C738.8219,26.2969 738.8219,26.2969 738.6344,26.3906 C738.2125,26.6563 737.525,26.7813 736.7594,26.7813 C734.7125,26.7813 733.4156,25.6875 733.4156,23.9844 L733.4156,22.8906 C733.4156,21.1094 734.6656,19.7969 736.4,19.7969 C736.9781,19.7969 737.5875,19.9531 738.0563,20.2031 C738.5406,20.4844 738.7125,20.7031 738.8063,21.1094 C738.8688,21.5156 738.9,21.6406 739.0406,21.7656 C739.1813,21.9063 739.4156,22.0156 739.6344,22.0156 C739.9,22.0156 740.1656,21.875 740.3375,21.6563 C740.4469,21.5 740.4781,21.3125 740.4781,20.8906 L740.4781,19.4688 C740.4781,19.0313 740.4625,18.9063 740.3688,18.75 C740.2125,18.4844 739.9313,18.3438 739.6344,18.3438 C739.3375,18.3438 739.1344,18.4375 738.9156,18.75 L738.7438,18.6719 Z " fill="#000000"/><text fill="#000000" font-family="sans-serif" font-size="12" lengthAdjust="spacingAndGlyphs" textLength="69" x="752.6" y="27.1543">Funcionario</text><line style="stroke:#A80036;stroke-width:1.5;" x1="712.5" x2="833.5" y1="39" y2="39"/><text fill="#000000" font-family="sans-serif" font-size="11" lengthAdjust="spacingAndGlyphs" textLength="72" x="717.5" y="53.2104">-String cargo</text><text fill="#000000" font-family="sans-serif" font-size="11" lengthAdjust="spacingAndGlyphs" textLength="111" x="717.5" y="66.0151">-String numeroFunc</text><!--MD5=[55a49fe1500ca3a9afacd5256121ad4e]
class Escritura--><rect codeLine="25" fill="#FEFECE" filter="url(#f1wvkseneb7a38)" height="91.2188" id="Escritura" style="stroke:#A80036;stroke-width:1.5;" width="129" x="946.5" y="95.5"/><ellipse cx="981.75" cy="111.5" fill="#ADD1B2" rx="11" ry="11" style="stroke:#A80036;stroke-width:1.0;"/><path d="M984.0938,107.1719 C983.1563,106.7344 982.5625,106.5938 981.6875,106.5938 C979.0625,106.5938 977.0625,108.6719 977.0625,111.3906 L977.0625,112.5156 C977.0625,115.0938 979.1719,116.9844 982.0625,116.9844 C983.2813,116.9844 984.4375,116.6875 985.1875,116.1406 C985.7656,115.7344 986.0938,115.2813 986.0938,114.8906 C986.0938,114.4375 985.7031,114.0469 985.2344,114.0469 C985.0156,114.0469 984.8125,114.125 984.625,114.3125 C984.1719,114.7969 984.1719,114.7969 983.9844,114.8906 C983.5625,115.1563 982.875,115.2813 982.1094,115.2813 C980.0625,115.2813 978.7656,114.1875 978.7656,112.4844 L978.7656,111.3906 C978.7656,109.6094 980.0156,108.2969 981.75,108.2969 C982.3281,108.2969 982.9375,108.4531 983.4063,108.7031 C983.8906,108.9844 984.0625,109.2031 984.1563,109.6094 C984.2188,110.0156 984.25,110.1406 984.3906,110.2656 C984.5313,110.4063 984.7656,110.5156 984.9844,110.5156 C985.25,110.5156 985.5156,110.375 985.6875,110.1563 C985.7969,110 985.8281,109.8125 985.8281,109.3906 L985.8281,107.9688 C985.8281,107.5313 985.8125,107.4063 985.7188,107.25 C985.5625,106.9844 985.2813,106.8438 984.9844,106.8438 C984.6875,106.8438 984.4844,106.9375 984.2656,107.25 L984.0938,107.1719 Z " fill="#000000"/><text fill="#000000" font-family="sans-serif" font-size="12" lengthAdjust="spacingAndGlyphs" textLength="52" x="1000.25" y="115.6543">Escritura</text><line style="stroke:#A80036;stroke-width:1.5;" x1="947.5" x2="1074.5" y1="127.5" y2="127.5"/><text fill="#000000" font-family="sans-serif" font-size="11" lengthAdjust="spacingAndGlyphs" textLength="47" x="952.5" y="141.7104">-Int num</text><text fill="#000000" font-family="sans-serif" font-size="11" lengthAdjust="spacingAndGlyphs" textLength="66" x="952.5" y="154.5151">-String data</text><text fill="#000000" font-family="sans-serif" font-size="11" lengthAdjust="spacingAndGlyphs" textLength="117" x="952.5" y="167.3198">-List proprietariosList</text><text fill="#000000" font-family="sans-serif" font-size="11" lengthAdjust="spacingAndGlyphs" textLength="95" x="952.5" y="180.1245">-Terreno terreno</text><!--MD5=[25ba56bf876b0b5138fdedf7889220de]
class Freguesia--><rect codeLine="32" fill="#FEFECE" filter="url(#f1wvkseneb7a38)" height="65.6094" id="Freguesia" style="stroke:#A80036;stroke-width:1.5;" width="100" x="235" y="197"/><ellipse cx="253.6" cy="213" fill="#ADD1B2" rx="11" ry="11" style="stroke:#A80036;stroke-width:1.0;"/><path d="M255.9438,208.6719 C255.0063,208.2344 254.4125,208.0938 253.5375,208.0938 C250.9125,208.0938 248.9125,210.1719 248.9125,212.8906 L248.9125,214.0156 C248.9125,216.5938 251.0219,218.4844 253.9125,218.4844 C255.1313,218.4844 256.2875,218.1875 257.0375,217.6406 C257.6156,217.2344 257.9438,216.7813 257.9438,216.3906 C257.9438,215.9375 257.5531,215.5469 257.0844,215.5469 C256.8656,215.5469 256.6625,215.625 256.475,215.8125 C256.0219,216.2969 256.0219,216.2969 255.8344,216.3906 C255.4125,216.6563 254.725,216.7813 253.9594,216.7813 C251.9125,216.7813 250.6156,215.6875 250.6156,213.9844 L250.6156,212.8906 C250.6156,211.1094 251.8656,209.7969 253.6,209.7969 C254.1781,209.7969 254.7875,209.9531 255.2563,210.2031 C255.7406,210.4844 255.9125,210.7031 256.0063,211.1094 C256.0688,211.5156 256.1,211.6406 256.2406,211.7656 C256.3813,211.9063 256.6156,212.0156 256.8344,212.0156 C257.1,212.0156 257.3656,211.875 257.5375,211.6563 C257.6469,211.5 257.6781,211.3125 257.6781,210.8906 L257.6781,209.4688 C257.6781,209.0313 257.6625,208.9063 257.5688,208.75 C257.4125,208.4844 257.1313,208.3438 256.8344,208.3438 C256.5375,208.3438 256.3344,208.4375 256.1156,208.75 L255.9438,208.6719 Z " fill="#000000"/><text fill="#000000" font-family="sans-serif" font-size="12" lengthAdjust="spacingAndGlyphs" textLength="60" x="268.4" y="217.1543">Freguesia</text><line style="stroke:#A80036;stroke-width:1.5;" x1="236" x2="334" y1="229" y2="229"/><text fill="#000000" font-family="sans-serif" font-size="11" lengthAdjust="spacingAndGlyphs" textLength="74" x="241" y="243.2104">-String nome</text><text fill="#000000" font-family="sans-serif" font-size="11" lengthAdjust="spacingAndGlyphs" textLength="88" x="241" y="256.0151">-List terrenoList</text><!--MD5=[26905466b2de2c704432800e111a1f71]
class Terreno--><rect codeLine="37" fill="#FEFECE" filter="url(#f1wvkseneb7a38)" height="91.2188" id="Terreno" style="stroke:#A80036;stroke-width:1.5;" width="167" x="436" y="298.5"/><ellipse cx="491.25" cy="314.5" fill="#ADD1B2" rx="11" ry="11" style="stroke:#A80036;stroke-width:1.0;"/><path d="M493.5938,310.1719 C492.6563,309.7344 492.0625,309.5938 491.1875,309.5938 C488.5625,309.5938 486.5625,311.6719 486.5625,314.3906 L486.5625,315.5156 C486.5625,318.0938 488.6719,319.9844 491.5625,319.9844 C492.7813,319.9844 493.9375,319.6875 494.6875,319.1406 C495.2656,318.7344 495.5938,318.2813 495.5938,317.8906 C495.5938,317.4375 495.2031,317.0469 494.7344,317.0469 C494.5156,317.0469 494.3125,317.125 494.125,317.3125 C493.6719,317.7969 493.6719,317.7969 493.4844,317.8906 C493.0625,318.1563 492.375,318.2813 491.6094,318.2813 C489.5625,318.2813 488.2656,317.1875 488.2656,315.4844 L488.2656,314.3906 C488.2656,312.6094 489.5156,311.2969 491.25,311.2969 C491.8281,311.2969 492.4375,311.4531 492.9063,311.7031 C493.3906,311.9844 493.5625,312.2031 493.6563,312.6094 C493.7188,313.0156 493.75,313.1406 493.8906,313.2656 C494.0313,313.4063 494.2656,313.5156 494.4844,313.5156 C494.75,313.5156 495.0156,313.375 495.1875,313.1563 C495.2969,313 495.3281,312.8125 495.3281,312.3906 L495.3281,310.9688 C495.3281,310.5313 495.3125,310.4063 495.2188,310.25 C495.0625,309.9844 494.7813,309.8438 494.4844,309.8438 C494.1875,309.8438 493.9844,309.9375 493.7656,310.25 L493.5938,310.1719 Z " fill="#000000"/><text fill="#000000" font-family="sans-serif" font-size="12" lengthAdjust="spacingAndGlyphs" textLength="48" x="511.75" y="318.6543">Terreno</text><line style="stroke:#A80036;stroke-width:1.5;" x1="437" x2="602" y1="330.5" y2="330.5"/><text fill="#000000" font-family="sans-serif" font-size="11" lengthAdjust="spacingAndGlyphs" textLength="32" x="442" y="344.7104">-Int id</text><text fill="#000000" font-family="sans-serif" font-size="11" lengthAdjust="spacingAndGlyphs" textLength="79" x="442" y="357.5151">-IForma forma</text><text fill="#000000" font-family="sans-serif" font-size="11" lengthAdjust="spacingAndGlyphs" textLength="155" x="442" y="370.3198">-IClassificacao classificacao</text><text fill="#000000" font-family="sans-serif" font-size="11" lengthAdjust="spacingAndGlyphs" textLength="105" x="442" y="383.1245">-Escritura escritura</text><!--MD5=[78f21c08692eebc4688c39ddeb4c353c]
class Forma--><rect codeLine="44" fill="#FEFECE" filter="url(#f1wvkseneb7a38)" height="40" id="Forma" style="stroke:#A80036;stroke-width:1.5;" width="70" x="738" y="742"/><ellipse cx="753" cy="758" fill="#ADD1B2" rx="11" ry="11" style="stroke:#A80036;stroke-width:1.0;"/><path d="M755.3438,753.6719 C754.4063,753.2344 753.8125,753.0938 752.9375,753.0938 C750.3125,753.0938 748.3125,755.1719 748.3125,757.8906 L748.3125,759.0156 C748.3125,761.5938 750.4219,763.4844 753.3125,763.4844 C754.5313,763.4844 755.6875,763.1875 756.4375,762.6406 C757.0156,762.2344 757.3438,761.7813 757.3438,761.3906 C757.3438,760.9375 756.9531,760.5469 756.4844,760.5469 C756.2656,760.5469 756.0625,760.625 755.875,760.8125 C755.4219,761.2969 755.4219,761.2969 755.2344,761.3906 C754.8125,761.6563 754.125,761.7813 753.3594,761.7813 C751.3125,761.7813 750.0156,760.6875 750.0156,758.9844 L750.0156,757.8906 C750.0156,756.1094 751.2656,754.7969 753,754.7969 C753.5781,754.7969 754.1875,754.9531 754.6563,755.2031 C755.1406,755.4844 755.3125,755.7031 755.4063,756.1094 C755.4688,756.5156 755.5,756.6406 755.6406,756.7656 C755.7813,756.9063 756.0156,757.0156 756.2344,757.0156 C756.5,757.0156 756.7656,756.875 756.9375,756.6563 C757.0469,756.5 757.0781,756.3125 757.0781,755.8906 L757.0781,754.4688 C757.0781,754.0313 757.0625,753.9063 756.9688,753.75 C756.8125,753.4844 756.5313,753.3438 756.2344,753.3438 C755.9375,753.3438 755.7344,753.4375 755.5156,753.75 L755.3438,753.6719 Z " fill="#000000"/><text fill="#000000" font-family="sans-serif" font-size="12" lengthAdjust="spacingAndGlyphs" textLength="38" x="767" y="762.1543">Forma</text><line style="stroke:#A80036;stroke-width:1.5;" x1="739" x2="807" y1="774" y2="774"/><!--MD5=[1a24822eaf8b73e881588c13f79b9fdb]
class Triangular--><rect codeLine="47" fill="#FEFECE" filter="url(#f1wvkseneb7a38)" height="65.6094" id="Triangular" style="stroke:#A80036;stroke-width:1.5;" width="136" x="943" y="779"/><ellipse cx="978.25" cy="795" fill="#ADD1B2" rx="11" ry="11" style="stroke:#A80036;stroke-width:1.0;"/><path d="M980.5938,790.6719 C979.6563,790.2344 979.0625,790.0938 978.1875,790.0938 C975.5625,790.0938 973.5625,792.1719 973.5625,794.8906 L973.5625,796.0156 C973.5625,798.5938 975.6719,800.4844 978.5625,800.4844 C979.7813,800.4844 980.9375,800.1875 981.6875,799.6406 C982.2656,799.2344 982.5938,798.7813 982.5938,798.3906 C982.5938,797.9375 982.2031,797.5469 981.7344,797.5469 C981.5156,797.5469 981.3125,797.625 981.125,797.8125 C980.6719,798.2969 980.6719,798.2969 980.4844,798.3906 C980.0625,798.6563 979.375,798.7813 978.6094,798.7813 C976.5625,798.7813 975.2656,797.6875 975.2656,795.9844 L975.2656,794.8906 C975.2656,793.1094 976.5156,791.7969 978.25,791.7969 C978.8281,791.7969 979.4375,791.9531 979.9063,792.2031 C980.3906,792.4844 980.5625,792.7031 980.6563,793.1094 C980.7188,793.5156 980.75,793.6406 980.8906,793.7656 C981.0313,793.9063 981.2656,794.0156 981.4844,794.0156 C981.75,794.0156 982.0156,793.875 982.1875,793.6563 C982.2969,793.5 982.3281,793.3125 982.3281,792.8906 L982.3281,791.4688 C982.3281,791.0313 982.3125,790.9063 982.2188,790.75 C982.0625,790.4844 981.7813,790.3438 981.4844,790.3438 C981.1875,790.3438 980.9844,790.4375 980.7656,790.75 L980.5938,790.6719 Z " fill="#000000"/><text fill="#000000" font-family="sans-serif" font-size="12" lengthAdjust="spacingAndGlyphs" textLength="59" x="996.75" y="799.1543">Triangular</text><line style="stroke:#A80036;stroke-width:1.5;" x1="944" x2="1078" y1="811" y2="811"/><text fill="#000000" font-family="sans-serif" font-size="11" lengthAdjust="spacingAndGlyphs" textLength="88" x="949" y="825.2104">-Double largura</text><text fill="#000000" font-family="sans-serif" font-size="11" lengthAdjust="spacingAndGlyphs" textLength="124" x="949" y="838.0151">-Double comprimento</text><!--MD5=[b6aed8f55a7bdd1ed0168b25c887807c]
class Circular--><rect codeLine="52" fill="#FEFECE" filter="url(#f1wvkseneb7a38)" height="52.8047" id="Circular" style="stroke:#A80036;stroke-width:1.5;" width="82" x="970" y="880.5"/><ellipse cx="987.25" cy="896.5" fill="#ADD1B2" rx="11" ry="11" style="stroke:#A80036;stroke-width:1.0;"/><path d="M989.5938,892.1719 C988.6563,891.7344 988.0625,891.5938 987.1875,891.5938 C984.5625,891.5938 982.5625,893.6719 982.5625,896.3906 L982.5625,897.5156 C982.5625,900.0938 984.6719,901.9844 987.5625,901.9844 C988.7813,901.9844 989.9375,901.6875 990.6875,901.1406 C991.2656,900.7344 991.5938,900.2813 991.5938,899.8906 C991.5938,899.4375 991.2031,899.0469 990.7344,899.0469 C990.5156,899.0469 990.3125,899.125 990.125,899.3125 C989.6719,899.7969 989.6719,899.7969 989.4844,899.8906 C989.0625,900.1563 988.375,900.2813 987.6094,900.2813 C985.5625,900.2813 984.2656,899.1875 984.2656,897.4844 L984.2656,896.3906 C984.2656,894.6094 985.5156,893.2969 987.25,893.2969 C987.8281,893.2969 988.4375,893.4531 988.9063,893.7031 C989.3906,893.9844 989.5625,894.2031 989.6563,894.6094 C989.7188,895.0156 989.75,895.1406 989.8906,895.2656 C990.0313,895.4063 990.2656,895.5156 990.4844,895.5156 C990.75,895.5156 991.0156,895.375 991.1875,895.1563 C991.2969,895 991.3281,894.8125 991.3281,894.3906 L991.3281,892.9688 C991.3281,892.5313 991.3125,892.4063 991.2188,892.25 C991.0625,891.9844 990.7813,891.8438 990.4844,891.8438 C990.1875,891.8438 989.9844,891.9375 989.7656,892.25 L989.5938,892.1719 Z " fill="#000000"/><text fill="#000000" font-family="sans-serif" font-size="12" lengthAdjust="spacingAndGlyphs" textLength="45" x="1001.75" y="900.6543">Circular</text><line style="stroke:#A80036;stroke-width:1.5;" x1="971" x2="1051" y1="912.5" y2="912.5"/><text fill="#000000" font-family="sans-serif" font-size="11" lengthAdjust="spacingAndGlyphs" textLength="70" x="976" y="926.7104">-Double raio</text><!--MD5=[d6947a45c6a695ad90c719b257327e44]
class Rectangular--><rect codeLine="56" fill="#FEFECE" filter="url(#f1wvkseneb7a38)" height="65.6094" id="Rectangular" style="stroke:#A80036;stroke-width:1.5;" width="136" x="943" y="678"/><ellipse cx="973.3" cy="694" fill="#ADD1B2" rx="11" ry="11" style="stroke:#A80036;stroke-width:1.0;"/><path d="M975.6438,689.6719 C974.7063,689.2344 974.1125,689.0938 973.2375,689.0938 C970.6125,689.0938 968.6125,691.1719 968.6125,693.8906 L968.6125,695.0156 C968.6125,697.5938 970.7219,699.4844 973.6125,699.4844 C974.8313,699.4844 975.9875,699.1875 976.7375,698.6406 C977.3156,698.2344 977.6438,697.7813 977.6438,697.3906 C977.6438,696.9375 977.2531,696.5469 976.7844,696.5469 C976.5656,696.5469 976.3625,696.625 976.175,696.8125 C975.7219,697.2969 975.7219,697.2969 975.5344,697.3906 C975.1125,697.6563 974.425,697.7813 973.6594,697.7813 C971.6125,697.7813 970.3156,696.6875 970.3156,694.9844 L970.3156,693.8906 C970.3156,692.1094 971.5656,690.7969 973.3,690.7969 C973.8781,690.7969 974.4875,690.9531 974.9563,691.2031 C975.4406,691.4844 975.6125,691.7031 975.7063,692.1094 C975.7688,692.5156 975.8,692.6406 975.9406,692.7656 C976.0813,692.9063 976.3156,693.0156 976.5344,693.0156 C976.8,693.0156 977.0656,692.875 977.2375,692.6563 C977.3469,692.5 977.3781,692.3125 977.3781,691.8906 L977.3781,690.4688 C977.3781,690.0313 977.3625,689.9063 977.2688,689.75 C977.1125,689.4844 976.8313,689.3438 976.5344,689.3438 C976.2375,689.3438 976.0344,689.4375 975.8156,689.75 L975.6438,689.6719 Z " fill="#000000"/><text fill="#000000" font-family="sans-serif" font-size="12" lengthAdjust="spacingAndGlyphs" textLength="70" x="990.7" y="698.1543">Rectangular</text><line style="stroke:#A80036;stroke-width:1.5;" x1="944" x2="1078" y1="710" y2="710"/><text fill="#000000" font-family="sans-serif" font-size="11" lengthAdjust="spacingAndGlyphs" textLength="88" x="949" y="724.2104">-Double largura</text><text fill="#000000" font-family="sans-serif" font-size="11" lengthAdjust="spacingAndGlyphs" textLength="124" x="949" y="737.0151">-Double comprimento</text><!--MD5=[716bba0e94eea125d5a66a891f2c3c34]
class Classificacao--><rect codeLine="61" fill="#FEFECE" filter="url(#f1wvkseneb7a38)" height="40" id="Classificacao" style="stroke:#A80036;stroke-width:1.5;" width="110" x="718" y="373"/><ellipse cx="733" cy="389" fill="#ADD1B2" rx="11" ry="11" style="stroke:#A80036;stroke-width:1.0;"/><path d="M735.3438,384.6719 C734.4063,384.2344 733.8125,384.0938 732.9375,384.0938 C730.3125,384.0938 728.3125,386.1719 728.3125,388.8906 L728.3125,390.0156 C728.3125,392.5938 730.4219,394.4844 733.3125,394.4844 C734.5313,394.4844 735.6875,394.1875 736.4375,393.6406 C737.0156,393.2344 737.3438,392.7813 737.3438,392.3906 C737.3438,391.9375 736.9531,391.5469 736.4844,391.5469 C736.2656,391.5469 736.0625,391.625 735.875,391.8125 C735.4219,392.2969 735.4219,392.2969 735.2344,392.3906 C734.8125,392.6563 734.125,392.7813 733.3594,392.7813 C731.3125,392.7813 730.0156,391.6875 730.0156,389.9844 L730.0156,388.8906 C730.0156,387.1094 731.2656,385.7969 733,385.7969 C733.5781,385.7969 734.1875,385.9531 734.6563,386.2031 C735.1406,386.4844 735.3125,386.7031 735.4063,387.1094 C735.4688,387.5156 735.5,387.6406 735.6406,387.7656 C735.7813,387.9063 736.0156,388.0156 736.2344,388.0156 C736.5,388.0156 736.7656,387.875 736.9375,387.6563 C737.0469,387.5 737.0781,387.3125 737.0781,386.8906 L737.0781,385.4688 C737.0781,385.0313 737.0625,384.9063 736.9688,384.75 C736.8125,384.4844 736.5313,384.3438 736.2344,384.3438 C735.9375,384.3438 735.7344,384.4375 735.5156,384.75 L735.3438,384.6719 Z " fill="#000000"/><text fill="#000000" font-family="sans-serif" font-size="12" lengthAdjust="spacingAndGlyphs" textLength="78" x="747" y="393.1543">Classificacao</text><line style="stroke:#A80036;stroke-width:1.5;" x1="719" x2="827" y1="405" y2="405"/><!--MD5=[e1b108aeef6100ad38510f06dc65f284]
class Urbana--><rect codeLine="64" fill="#FEFECE" filter="url(#f1wvkseneb7a38)" height="116.8281" id="Urbana" style="stroke:#A80036;stroke-width:1.5;" width="134" x="944" y="525.5"/><ellipse cx="985.55" cy="541.5" fill="#ADD1B2" rx="11" ry="11" style="stroke:#A80036;stroke-width:1.0;"/><path d="M987.8938,537.1719 C986.9563,536.7344 986.3625,536.5938 985.4875,536.5938 C982.8625,536.5938 980.8625,538.6719 980.8625,541.3906 L980.8625,542.5156 C980.8625,545.0938 982.9719,546.9844 985.8625,546.9844 C987.0813,546.9844 988.2375,546.6875 988.9875,546.1406 C989.5656,545.7344 989.8938,545.2813 989.8938,544.8906 C989.8938,544.4375 989.5031,544.0469 989.0344,544.0469 C988.8156,544.0469 988.6125,544.125 988.425,544.3125 C987.9719,544.7969 987.9719,544.7969 987.7844,544.8906 C987.3625,545.1563 986.675,545.2813 985.9094,545.2813 C983.8625,545.2813 982.5656,544.1875 982.5656,542.4844 L982.5656,541.3906 C982.5656,539.6094 983.8156,538.2969 985.55,538.2969 C986.1281,538.2969 986.7375,538.4531 987.2063,538.7031 C987.6906,538.9844 987.8625,539.2031 987.9563,539.6094 C988.0188,540.0156 988.05,540.1406 988.1906,540.2656 C988.3313,540.4063 988.5656,540.5156 988.7844,540.5156 C989.05,540.5156 989.3156,540.375 989.4875,540.1563 C989.5969,540 989.6281,539.8125 989.6281,539.3906 L989.6281,537.9688 C989.6281,537.5313 989.6125,537.4063 989.5188,537.25 C989.3625,536.9844 989.0813,536.8438 988.7844,536.8438 C988.4875,536.8438 988.2844,536.9375 988.0656,537.25 L987.8938,537.1719 Z " fill="#000000"/><text fill="#000000" font-family="sans-serif" font-size="12" lengthAdjust="spacingAndGlyphs" textLength="43" x="1005.45" y="545.6543">Urbana</text><line style="stroke:#A80036;stroke-width:1.5;" x1="945" x2="1077" y1="557.5" y2="557.5"/><text fill="#000000" font-family="sans-serif" font-size="11" lengthAdjust="spacingAndGlyphs" textLength="75" x="950" y="571.7104">-Double area</text><text fill="#000000" font-family="sans-serif" font-size="11" lengthAdjust="spacingAndGlyphs" textLength="107" x="950" y="584.5151">-Double areaConst</text><text fill="#000000" font-family="sans-serif" font-size="11" lengthAdjust="spacingAndGlyphs" textLength="122" x="950" y="597.3198">-DateTime dataConst</text><text fill="#000000" font-family="sans-serif" font-size="11" lengthAdjust="spacingAndGlyphs" textLength="109" x="950" y="610.1245">-Double indiceCont</text><text fill="#000000" font-family="sans-serif" font-size="11" lengthAdjust="spacingAndGlyphs" textLength="89" x="950" y="622.9292">-String tipologia</text><text fill="#000000" font-family="sans-serif" font-size="11" lengthAdjust="spacingAndGlyphs" textLength="79" x="950" y="635.7339">-Int valorBase</text><!--MD5=[97e7c7c927ed2b2c9a6c4a278020550a]
class Industrial--><rect codeLine="73" fill="#FEFECE" filter="url(#f1wvkseneb7a38)" height="155.2422" id="Industrial" style="stroke:#A80036;stroke-width:1.5;" width="134" x="944" y="335.5"/><ellipse cx="980.6" cy="351.5" fill="#ADD1B2" rx="11" ry="11" style="stroke:#A80036;stroke-width:1.0;"/><path d="M982.9438,347.1719 C982.0063,346.7344 981.4125,346.5938 980.5375,346.5938 C977.9125,346.5938 975.9125,348.6719 975.9125,351.3906 L975.9125,352.5156 C975.9125,355.0938 978.0219,356.9844 980.9125,356.9844 C982.1313,356.9844 983.2875,356.6875 984.0375,356.1406 C984.6156,355.7344 984.9438,355.2813 984.9438,354.8906 C984.9438,354.4375 984.5531,354.0469 984.0844,354.0469 C983.8656,354.0469 983.6625,354.125 983.475,354.3125 C983.0219,354.7969 983.0219,354.7969 982.8344,354.8906 C982.4125,355.1563 981.725,355.2813 980.9594,355.2813 C978.9125,355.2813 977.6156,354.1875 977.6156,352.4844 L977.6156,351.3906 C977.6156,349.6094 978.8656,348.2969 980.6,348.2969 C981.1781,348.2969 981.7875,348.4531 982.2563,348.7031 C982.7406,348.9844 982.9125,349.2031 983.0063,349.6094 C983.0688,350.0156 983.1,350.1406 983.2406,350.2656 C983.3813,350.4063 983.6156,350.5156 983.8344,350.5156 C984.1,350.5156 984.3656,350.375 984.5375,350.1563 C984.6469,350 984.6781,349.8125 984.6781,349.3906 L984.6781,347.9688 C984.6781,347.5313 984.6625,347.4063 984.5688,347.25 C984.4125,346.9844 984.1313,346.8438 983.8344,346.8438 C983.5375,346.8438 983.3344,346.9375 983.1156,347.25 L982.9438,347.1719 Z " fill="#000000"/><text fill="#000000" font-family="sans-serif" font-size="12" lengthAdjust="spacingAndGlyphs" textLength="54" x="999.4" y="355.6543">Industrial</text><line style="stroke:#A80036;stroke-width:1.5;" x1="945" x2="1077" y1="367.5" y2="367.5"/><text fill="#000000" font-family="sans-serif" font-size="11" lengthAdjust="spacingAndGlyphs" textLength="109" x="950" y="381.7104">-Double indiceCont</text><text fill="#000000" font-family="sans-serif" font-size="11" lengthAdjust="spacingAndGlyphs" textLength="75" x="950" y="394.5151">-Double area</text><text fill="#000000" font-family="sans-serif" font-size="11" lengthAdjust="spacingAndGlyphs" textLength="68" x="950" y="407.3198">-String desc</text><text fill="#000000" font-family="sans-serif" font-size="11" lengthAdjust="spacingAndGlyphs" textLength="79" x="950" y="420.1245">-Int valorBase</text><text fill="#000000" font-family="sans-serif" font-size="11" lengthAdjust="spacingAndGlyphs" textLength="107" x="950" y="432.9292">-Double areaConst</text><text fill="#000000" font-family="sans-serif" font-size="11" lengthAdjust="spacingAndGlyphs" textLength="122" x="950" y="445.7339">-DateTime dataConst</text><text fill="#000000" font-family="sans-serif" font-size="11" lengthAdjust="spacingAndGlyphs" textLength="113" x="950" y="458.5386">-DateTime dataInsp</text><text fill="#000000" font-family="sans-serif" font-size="11" lengthAdjust="spacingAndGlyphs" textLength="91" x="950" y="471.3433">-String descInsp</text><text fill="#000000" font-family="sans-serif" font-size="11" lengthAdjust="spacingAndGlyphs" textLength="89" x="950" y="484.1479">-String tipologia</text><!--MD5=[9d6c8135b42eb16496d6c21566b10e69]
class Rural--><rect codeLine="85" fill="#FEFECE" filter="url(#f1wvkseneb7a38)" height="78.4141" id="Rural" style="stroke:#A80036;stroke-width:1.5;" width="121" x="950.5" y="222"/><ellipse cx="992.5" cy="238" fill="#ADD1B2" rx="11" ry="11" style="stroke:#A80036;stroke-width:1.0;"/><path d="M994.8438,233.6719 C993.9063,233.2344 993.3125,233.0938 992.4375,233.0938 C989.8125,233.0938 987.8125,235.1719 987.8125,237.8906 L987.8125,239.0156 C987.8125,241.5938 989.9219,243.4844 992.8125,243.4844 C994.0313,243.4844 995.1875,243.1875 995.9375,242.6406 C996.5156,242.2344 996.8438,241.7813 996.8438,241.3906 C996.8438,240.9375 996.4531,240.5469 995.9844,240.5469 C995.7656,240.5469 995.5625,240.625 995.375,240.8125 C994.9219,241.2969 994.9219,241.2969 994.7344,241.3906 C994.3125,241.6563 993.625,241.7813 992.8594,241.7813 C990.8125,241.7813 989.5156,240.6875 989.5156,238.9844 L989.5156,237.8906 C989.5156,236.1094 990.7656,234.7969 992.5,234.7969 C993.0781,234.7969 993.6875,234.9531 994.1563,235.2031 C994.6406,235.4844 994.8125,235.7031 994.9063,236.1094 C994.9688,236.5156 995,236.6406 995.1406,236.7656 C995.2813,236.9063 995.5156,237.0156 995.7344,237.0156 C996,237.0156 996.2656,236.875 996.4375,236.6563 C996.5469,236.5 996.5781,236.3125 996.5781,235.8906 L996.5781,234.4688 C996.5781,234.0313 996.5625,233.9063 996.4688,233.75 C996.3125,233.4844 996.0313,233.3438 995.7344,233.3438 C995.4375,233.3438 995.2344,233.4375 995.0156,233.75 L994.8438,233.6719 Z " fill="#000000"/><text fill="#000000" font-family="sans-serif" font-size="12" lengthAdjust="spacingAndGlyphs" textLength="29" x="1012.5" y="242.1543">Rural</text><line style="stroke:#A80036;stroke-width:1.5;" x1="951.5" x2="1070.5" y1="254" y2="254"/><text fill="#000000" font-family="sans-serif" font-size="11" lengthAdjust="spacingAndGlyphs" textLength="89" x="956.5" y="268.2104">-String descUso</text><text fill="#000000" font-family="sans-serif" font-size="11" lengthAdjust="spacingAndGlyphs" textLength="79" x="956.5" y="281.0151">-Int valorBase</text><text fill="#000000" font-family="sans-serif" font-size="11" lengthAdjust="spacingAndGlyphs" textLength="109" x="956.5" y="293.8198">-Double indiceCont</text><!--MD5=[07976d168ee79168b17fdeff6de5eb79]
class Proprietario--><rect codeLine="91" fill="#FEFECE" filter="url(#f1wvkseneb7a38)" height="65.6094" id="Proprietario" style="stroke:#A80036;stroke-width:1.5;" width="138" x="704" y="108"/><ellipse cx="735.2" cy="124" fill="#ADD1B2" rx="11" ry="11" style="stroke:#A80036;stroke-width:1.0;"/><path d="M737.5438,119.6719 C736.6063,119.2344 736.0125,119.0938 735.1375,119.0938 C732.5125,119.0938 730.5125,121.1719 730.5125,123.8906 L730.5125,125.0156 C730.5125,127.5938 732.6219,129.4844 735.5125,129.4844 C736.7313,129.4844 737.8875,129.1875 738.6375,128.6406 C739.2156,128.2344 739.5438,127.7813 739.5438,127.3906 C739.5438,126.9375 739.1531,126.5469 738.6844,126.5469 C738.4656,126.5469 738.2625,126.625 738.075,126.8125 C737.6219,127.2969 737.6219,127.2969 737.4344,127.3906 C737.0125,127.6563 736.325,127.7813 735.5594,127.7813 C733.5125,127.7813 732.2156,126.6875 732.2156,124.9844 L732.2156,123.8906 C732.2156,122.1094 733.4656,120.7969 735.2,120.7969 C735.7781,120.7969 736.3875,120.9531 736.8563,121.2031 C737.3406,121.4844 737.5125,121.7031 737.6063,122.1094 C737.6688,122.5156 737.7,122.6406 737.8406,122.7656 C737.9813,122.9063 738.2156,123.0156 738.4344,123.0156 C738.7,123.0156 738.9656,122.875 739.1375,122.6563 C739.2469,122.5 739.2781,122.3125 739.2781,121.8906 L739.2781,120.4688 C739.2781,120.0313 739.2625,119.9063 739.1688,119.75 C739.0125,119.4844 738.7313,119.3438 738.4344,119.3438 C738.1375,119.3438 737.9344,119.4375 737.7156,119.75 L737.5438,119.6719 Z " fill="#000000"/><text fill="#000000" font-family="sans-serif" font-size="12" lengthAdjust="spacingAndGlyphs" textLength="70" x="752.8" y="128.1543">Proprietario</text><line style="stroke:#A80036;stroke-width:1.5;" x1="705" x2="841" y1="140" y2="140"/><text fill="#000000" font-family="sans-serif" font-size="11" lengthAdjust="spacingAndGlyphs" textLength="126" x="710" y="154.2104">-Double percentagem</text><text fill="#000000" font-family="sans-serif" font-size="11" lengthAdjust="spacingAndGlyphs" textLength="94" x="710" y="167.0151">-List terrenosList</text><!--MD5=[e8772d8d63e33a37d8668d3122b6c8d5]
link Autarquia to Freguesia--><path codeLine="96" d="M119.127,155.392 C129.03,160.348 139.289,165.389 149,170 C177.266,183.421 209.251,197.677 234.991,208.924 " fill="none" id="Autarquia-Freguesia" style="stroke:#A80036;stroke-width:1.0;"/><polygon fill="#000000" points="158.539,163.6635,151.5606,157.2019,149.0953,162.5377,158.539,163.6635" style="stroke:#000000;stroke-width:1.0;"/><text fill="#000000" font-family="sans-serif" font-size="13" lengthAdjust="spacingAndGlyphs" textLength="41" x="163" y="166.0669">possui</text><text fill="#000000" font-family="sans-serif" font-size="13" lengthAdjust="spacingAndGlyphs" textLength="8" x="126.8308" y="172.0646">1</text><text fill="#000000" font-family="sans-serif" font-size="13" lengthAdjust="spacingAndGlyphs" textLength="27" x="199.8539" y="219.285">1...*</text><!--MD5=[9d1f79f015101a430f970ca1fac3815a]
link Autarquia to Pessoa--><path codeLine="97" d="M119.276,128.703 C201.485,131.235 356.004,135.995 446.808,138.792 " fill="none" id="Autarquia-Pessoa" style="stroke:#A80036;stroke-width:1.0;"/><polygon fill="#000000" points="274.4976,123.7203,265.5473,120.5043,265.3663,126.3794,274.4976,123.7203" style="stroke:#000000;stroke-width:1.0;"/><text fill="#000000" font-family="sans-serif" font-size="13" lengthAdjust="spacingAndGlyphs" textLength="26" x="278.5" y="128.0669">tem</text><text fill="#000000" font-family="sans-serif" font-size="13" lengthAdjust="spacingAndGlyphs" textLength="8" x="126.9989" y="141.956">1</text><text fill="#000000" font-family="sans-serif" font-size="13" lengthAdjust="spacingAndGlyphs" textLength="27" x="412.1315" y="151.3264">1...*</text><!--MD5=[a8bb375dffa434869353e727df24f725]
link Autarquia to Funcionario--><path codeLine="98" d="M119.027,110.72 C128.941,108.186 139.23,105.811 149,104 C353.193,66.143 599.488,49.15 711.396,42.961 " fill="none" id="Autarquia-Funcionario" style="stroke:#A80036;stroke-width:1.0;"/><polygon fill="#000000" points="374.9676,57.9982,365.6471,56.1062,366.3151,61.946,374.9676,57.9982" style="stroke:#000000;stroke-width:1.0;"/><text fill="#000000" font-family="sans-serif" font-size="13" lengthAdjust="spacingAndGlyphs" textLength="26" x="379" y="63.0669">tem</text><text fill="#000000" font-family="sans-serif" font-size="13" lengthAdjust="spacingAndGlyphs" textLength="8" x="127.0931" y="121.6144">1</text><text fill="#000000" font-family="sans-serif" font-size="13" lengthAdjust="spacingAndGlyphs" textLength="27" x="676.6509" y="56.1337">1...*</text><!--MD5=[97f4d02d2a2e1049e7b3bab1d1d1a91f]
link Pessoa to Funcionario--><path codeLine="100" d="M592.34,115.444 C618.226,105.941 647.563,94.83 674,84 C686.167,79.016 699.065,73.44 711.369,67.976 " fill="none" id="Pessoa-Funcionario" style="stroke:#A80036;stroke-width:1.0;"/><polygon fill="#000000" points="651.6443,73.7143,642.154,74.3349,644.3313,79.7947,651.6443,73.7143" style="stroke:#000000;stroke-width:1.0;"/><text fill="#000000" font-family="sans-serif" font-size="13" lengthAdjust="spacingAndGlyphs" textLength="8" x="656" y="80.0669">é</text><text fill="#000000" font-family="sans-serif" font-size="13" lengthAdjust="spacingAndGlyphs" textLength="8" x="599.9039" y="125.7293">1</text><text fill="#000000" font-family="sans-serif" font-size="13" lengthAdjust="spacingAndGlyphs" textLength="24" x="679.3156" y="83.9517">0..1</text><!--MD5=[f83f82a9bff656a47cc72f9dd1210109]
link Pessoa to Proprietario--><path codeLine="101" d="M592.344,141.813 C618.099,142.013 647.35,142.136 674,142 C683.698,141.951 693.936,141.873 703.993,141.784 " fill="none" id="Pessoa-Proprietario" style="stroke:#A80036;stroke-width:1.0;"/><polygon fill="#000000" points="652,133.5651,642.9542,130.6285,642.9557,136.5064,652,133.5651" style="stroke:#000000;stroke-width:1.0;"/><text fill="#000000" font-family="sans-serif" font-size="13" lengthAdjust="spacingAndGlyphs" textLength="8" x="656" y="138.0669">é</text><text fill="#000000" font-family="sans-serif" font-size="13" lengthAdjust="spacingAndGlyphs" textLength="8" x="599.9083" y="154.694">1</text><text fill="#000000" font-family="sans-serif" font-size="13" lengthAdjust="spacingAndGlyphs" textLength="24" x="672.0189" y="154.6921">0..1</text><!--MD5=[b7f86b7ed38bf22270e14e9251ae0465]
link Proprietario to Escritura--><path codeLine="103" d="M842.261,141 C875.069,141 914.156,141 946.341,141 " fill="none" id="Proprietario-Escritura" style="stroke:#A80036;stroke-width:1.0;"/><polygon fill="#000000" points="882,132.5664,872.9549,129.6275,872.9549,135.5053,882,132.5664" style="stroke:#000000;stroke-width:1.0;"/><text fill="#000000" font-family="sans-serif" font-size="13" lengthAdjust="spacingAndGlyphs" textLength="26" x="886" y="137.0669">tem</text><text fill="#000000" font-family="sans-serif" font-size="13" lengthAdjust="spacingAndGlyphs" textLength="8" x="849.816" y="153.8673">1</text><text fill="#000000" font-family="sans-serif" font-size="13" lengthAdjust="spacingAndGlyphs" textLength="8" x="930.4023" y="153.9291">1</text><!--MD5=[fe58f711169fdf6c6f3bd7925b9573f1]
link Freguesia to Terreno--><path codeLine="105" d="M335.023,254.037 C364.2,268.343 401.985,286.87 435.677,303.39 " fill="none" id="Freguesia-Terreno" style="stroke:#A80036;stroke-width:1.0;"/><polygon fill="#000000" points="374.4894,263.7677,367.6619,257.1468,365.0742,262.4244,374.4894,263.7677" style="stroke:#000000;stroke-width:1.0;"/><text fill="#000000" font-family="sans-serif" font-size="13" lengthAdjust="spacingAndGlyphs" textLength="26" x="379" y="266.0669">tem</text><text fill="#000000" font-family="sans-serif" font-size="13" lengthAdjust="spacingAndGlyphs" textLength="8" x="342.9576" y="270.7743">1</text><text fill="#000000" font-family="sans-serif" font-size="13" lengthAdjust="spacingAndGlyphs" textLength="27" x="400.9216" y="312.815">1...*</text><!--MD5=[6571597d05da3f90679511d771047437]
link Freguesia to Pessoa--><path codeLine="106" d="M335.023,211.234 C367.398,198.841 410.371,182.391 446.589,168.527 " fill="none" id="Freguesia-Pessoa" style="stroke:#A80036;stroke-width:1.0;stroke-dasharray:7.0,7.0;"/><polygon fill="#000000" points="374.6696,174.7789,365.1716,175.2678,367.2729,180.7572,374.6696,174.7789" style="stroke:#000000;stroke-width:1.0;"/><text fill="#000000" font-family="sans-serif" font-size="13" lengthAdjust="spacingAndGlyphs" textLength="26" x="379" y="181.0669">tem</text><text fill="#000000" font-family="sans-serif" font-size="13" lengthAdjust="spacingAndGlyphs" textLength="8" x="342.9576" y="221.6846">1</text><text fill="#000000" font-family="sans-serif" font-size="13" lengthAdjust="spacingAndGlyphs" textLength="27" x="411.893" y="183.7097">1...*</text><!--MD5=[bb2ac99ed3864569c12ac4b2b8fa227c]
link Terreno to Forma--><path codeLine="107" d="M547.894,389.529 C602.128,479.668 721.257,677.663 759.746,741.634 " fill="none" id="Terreno-Forma" style="stroke:#A80036;stroke-width:1.0;"/><polygon fill="#000000" points="640.5777,535.8507,638.4328,526.5852,633.3963,529.6155,640.5777,535.8507" style="stroke:#000000;stroke-width:1.0;"/><text fill="#000000" font-family="sans-serif" font-size="13" lengthAdjust="spacingAndGlyphs" textLength="26" x="647" y="536.0669">tem</text><text fill="#000000" font-family="sans-serif" font-size="13" lengthAdjust="spacingAndGlyphs" textLength="23" x="527.4809" y="409.7094">1..*</text><text fill="#000000" font-family="sans-serif" font-size="13" lengthAdjust="spacingAndGlyphs" textLength="8" x="746.8933" y="730.8823">1</text><!--MD5=[0e6a292806aae07b926a297a01593e7d]
link Terreno to Classificacao--><path codeLine="108" d="M603.199,360.112 C640.852,367.448 684.362,375.925 717.777,382.436 " fill="none" id="Terreno-Classificacao" style="stroke:#A80036;stroke-width:1.0;"/><polygon fill="#000000" points="642.9077,359.5226,634.5916,354.9081,633.4675,360.6775,642.9077,359.5226" style="stroke:#000000;stroke-width:1.0;"/><text fill="#000000" font-family="sans-serif" font-size="13" lengthAdjust="spacingAndGlyphs" textLength="26" x="647" y="363.0669">tem</text><text fill="#000000" font-family="sans-serif" font-size="13" lengthAdjust="spacingAndGlyphs" textLength="23" x="611.0827" y="374.1307">1..*</text><text fill="#000000" font-family="sans-serif" font-size="13" lengthAdjust="spacingAndGlyphs" textLength="8" x="701.8189" y="394.1001">1</text><!--MD5=[d1c4e62a2a52de7ff48c70b94e540036]
link Terreno to Escritura--><path codeLine="109" d="M603.26,309.679 C700.176,269.487 858.598,203.788 946.391,167.379 " fill="none" id="Terreno-Escritura" style="stroke:#A80036;stroke-width:1.0;"/><polygon fill="#000000" points="735.6186,201.651,726.1377,202.4012,728.3893,207.8307,735.6186,201.651" style="stroke:#000000;stroke-width:1.0;"/><text fill="#000000" font-family="sans-serif" font-size="13" lengthAdjust="spacingAndGlyphs" textLength="79" x="740" y="208.0669">está contido</text><text fill="#000000" font-family="sans-serif" font-size="13" lengthAdjust="spacingAndGlyphs" textLength="8" x="611.0761" y="319.3533">1</text><text fill="#000000" font-family="sans-serif" font-size="13" lengthAdjust="spacingAndGlyphs" textLength="8" x="930.4581" y="183.3582">1</text><!--MD5=[1c465b32ca0468e7ec758b35a8aaffc3]
reverse link Forma to Triangular--><path codeLine="111" d="M813.133,770.291 C848.359,777.754 900.88,788.881 942.817,797.766 " fill="none" id="Forma-backto-Triangular" style="stroke:#A80036;stroke-width:1.0;"/><polygon fill="#A80036" points="808.064,769.217,816.0386,774.9968,812.9553,770.2541,817.698,767.1708,808.064,769.217" style="stroke:#A80036;stroke-width:1.0;"/><polygon fill="#000000" points="890.8914,776.6027,882.6519,771.8529,881.4336,777.6031,890.8914,776.6027" style="stroke:#000000;stroke-width:1.0;"/><text fill="#000000" font-family="sans-serif" font-size="13" lengthAdjust="spacingAndGlyphs" textLength="8" x="895" y="780.0669">é</text><text fill="#000000" font-family="sans-serif" font-size="13" lengthAdjust="spacingAndGlyphs" textLength="8" x="816.121" y="784.333">1</text><text fill="#000000" font-family="sans-serif" font-size="13" lengthAdjust="spacingAndGlyphs" textLength="8" x="926.922" y="809.125">1</text><!--MD5=[03b4786bbfe644ecee2a05797579cc38]
reverse link Forma to Circular--><path codeLine="112" d="M811.169,784.837 C854.414,811.407 925.544,855.1097 969.974,882.4079 " fill="none" id="Forma-backto-Circular" style="stroke:#A80036;stroke-width:1.0;"/><polygon fill="#A80036" points="806.815,782.162,812.3896,790.2813,811.0753,784.7793,816.5773,783.4649,806.815,782.162" style="stroke:#A80036;stroke-width:1.0;"/><polygon fill="#000000" points="890.2601,819.1839,884.092,811.9448,881.015,816.9529,890.2601,819.1839" style="stroke:#000000;stroke-width:1.0;"/><text fill="#000000" font-family="sans-serif" font-size="13" lengthAdjust="spacingAndGlyphs" textLength="8" x="895" y="821.0669">é</text><text fill="#000000" font-family="sans-serif" font-size="13" lengthAdjust="spacingAndGlyphs" textLength="8" x="807.2005" y="802.0275">1</text><text fill="#000000" font-family="sans-serif" font-size="13" lengthAdjust="spacingAndGlyphs" textLength="8" x="953.9537" y="891.4595">1</text><!--MD5=[4137596e5fb08a916841c8b9c7c2f64b]
reverse link Forma to Rectangular--><path codeLine="113" d="M813.133,753.543 C848.359,745.931 900.88,734.581 942.817,725.518 " fill="none" id="Forma-backto-Rectangular" style="stroke:#A80036;stroke-width:1.0;"/><polygon fill="#A80036" points="808.064,754.639,817.7057,756.6485,812.9513,753.5833,816.0165,748.8288,808.064,754.639" style="stroke:#A80036;stroke-width:1.0;"/><polygon fill="#000000" points="895.8872,725.4439,886.4254,724.4818,887.667,730.227,895.8872,725.4439" style="stroke:#000000;stroke-width:1.0;"/><text fill="#000000" font-family="sans-serif" font-size="13" lengthAdjust="spacingAndGlyphs" textLength="8" x="816.121" y="766.7483">1</text><text fill="#000000" font-family="sans-serif" font-size="13" lengthAdjust="spacingAndGlyphs" textLength="8" x="926.922" y="740.0217">1</text><!--MD5=[831c5d2265282725a77cd49af7f57604]
reverse link Classificacao to Rural--><path codeLine="115" d="M814.308,370.455 C851.693,349.545 907.807,318.159 950.373,294.35 " fill="none" id="Classificacao-backto-Rural" style="stroke:#A80036;stroke-width:1.0;"/><polygon fill="#A80036" points="809.843,372.952,819.6506,372.0514,814.2072,370.512,815.7466,365.0687,809.843,372.952" style="stroke:#A80036;stroke-width:1.0;"/><polygon fill="#000000" points="890.3638,308.1256,881.035,309.9761,883.9043,315.106,890.3638,308.1256" style="stroke:#000000;stroke-width:1.0;"/><text fill="#000000" font-family="sans-serif" font-size="13" lengthAdjust="spacingAndGlyphs" textLength="8" x="895" y="315.0669">é</text><text fill="#000000" font-family="sans-serif" font-size="13" lengthAdjust="spacingAndGlyphs" textLength="8" x="811.4906" y="361.9462">1</text><text fill="#000000" font-family="sans-serif" font-size="13" lengthAdjust="spacingAndGlyphs" textLength="8" x="934.4966" y="311.3783">1</text><!--MD5=[68897943cf52423f8cdb49efab270e91]
reverse link Classificacao to Urbana--><path codeLine="116" d="M802.939,416.421 C837.83,444.659 897.557,492.997 943.923,530.523 " fill="none" id="Classificacao-backto-Urbana" style="stroke:#A80036;stroke-width:1.0;"/><polygon fill="#A80036" points="798.81,413.079,803.2882,421.8509,802.6962,416.2251,808.3219,415.633,798.81,413.079" style="stroke:#A80036;stroke-width:1.0;"/><polygon fill="#000000" points="889.8866,471.7119,884.7046,463.7371,881.0068,468.3061,889.8866,471.7119" style="stroke:#000000;stroke-width:1.0;"/><text fill="#000000" font-family="sans-serif" font-size="13" lengthAdjust="spacingAndGlyphs" textLength="8" x="895" y="473.0669">é</text><text fill="#000000" font-family="sans-serif" font-size="13" lengthAdjust="spacingAndGlyphs" textLength="8" x="796.9441" y="432.9212">1</text><text fill="#000000" font-family="sans-serif" font-size="13" lengthAdjust="spacingAndGlyphs" textLength="8" x="928.149" y="537.5778">1</text><!--MD5=[3d88720ea708b8b4b0463f4934725acf]
reverse link Classificacao to Industrial--><path codeLine="117" d="M833.466,398.04 C867.102,400.89 909.236,404.461 943.904,407.399 " fill="none" id="Classificacao-backto-Industrial" style="stroke:#A80036;stroke-width:1.0;"/><polygon fill="#A80036" points="828.143,397.588,836.7738,402.3325,833.1252,398.0095,837.4482,394.3609,828.143,397.588" style="stroke:#A80036;stroke-width:1.0;"/><polygon fill="#000000" points="890.9821,392.9886,882.2175,389.2964,881.7212,395.1533,890.9821,392.9886" style="stroke:#000000;stroke-width:1.0;"/><text fill="#000000" font-family="sans-serif" font-size="13" lengthAdjust="spacingAndGlyphs" textLength="8" x="895" y="397.0669">é</text><text fill="#000000" font-family="sans-serif" font-size="13" lengthAdjust="spacingAndGlyphs" textLength="8" x="836.0903" y="411.2881">1</text><text fill="#000000" font-family="sans-serif" font-size="13" lengthAdjust="spacingAndGlyphs" textLength="8" x="928.1279" y="419.6676">1</text><!--MD5=[7ffc26cafa03f16ce4276f8011e6d089]
@startuml
skinparam classAttributeIconSize 0
hide methods
left to right direction

class Autarquia {
  -String nome
  -Int valorBase
  -List pessoaList
  -List freguesiaList
  -List escrituraList
}

class Pessoa {
  -String nome	
  -String nif
  -String dataNascimento
  -Int terrenosOwned
}

class Funcionario {
  -String cargo
  -String numeroFunc
}

class Escritura {
  -Int num
  -String data
  -List proprietariosList
  -Terreno terreno
}

class Freguesia {
  -String nome
  -List terrenoList
}

class Terreno {
  -Int id
  -IForma forma
  -IClassificacao classificacao
  -Escritura escritura
}

class Forma {
}

class Triangular {
  -Double largura
  -Double comprimento
}

class Circular {
  -Double raio
}

class Rectangular {
  -Double largura
  -Double comprimento
}

class Classificacao {
}

class Urbana {
  -Double area
  -Double areaConst
  -DateTime dataConst
  -Double indiceCont
  -String tipologia
  -Int valorBase
}

class Industrial {
  -Double indiceCont
  -Double area
  -String desc
  -Int valorBase 
  -Double areaConst 
  -DateTime dataConst
  -DateTime dataInsp 
  -String descInsp
  -String tipologia
}

class Rural {
  -String descUso
  -Int valorBase
  -Double indiceCont
}

class Proprietario {
  -Double percentagem
  -List terrenosList
}

Autarquia "1" - - "1...*" Freguesia : possui >
Autarquia "1" - - "1...*" Pessoa : tem >
Autarquia "1" - - "1...*" Funcionario : tem >

Pessoa "1" - - "0..1" Funcionario : é >
Pessoa "1" - - "0..1" Proprietario : é >

Proprietario "1" - - "1" Escritura : tem >

Freguesia "1" - - "1...*" Terreno : tem >
Freguesia "1" .. "1...*" Pessoa : tem >
Terreno "1..*" - - "1" Forma : tem >
Terreno "1..*" - - "1" Classificacao : tem >
Terreno "1" - - "1" Escritura : está contido >

Forma "1" <- - "1" Triangular : é >
Forma "1" <- - "1" Circular : é >
Forma "1" <- - "1" Rectangular : >

Classificacao "1" <- - "1" Rural : é >
Classificacao "1" <- - "1" Urbana : é >
Classificacao "1" <- - "1" Industrial : é >
@enduml

PlantUML version 1.2020.21(Mon Nov 30 16:40:11 UTC 2020)
(GPL source distribution)
Java Runtime: Java(TM) SE Runtime Environment
JVM: Java HotSpot(TM) 64-Bit Server VM
Default Encoding: UTF-8
Language: en
Country: US
--></g></svg>